<svg data-v-423bf9ae="" xmlns="http://www.w3.org/2000/svg" viewBox="0 0 242.35420369535402 163" class="iconAbove"><!----><!----><!----><g data-v-423bf9ae="" id="aac71fbc-8254-473e-a724-dcaa89ea1130" fill="white" transform="matrix(2.159827160437883,0,0,2.159827160437883,0.000003102274163779839,105.54859738559361)"><path d="M0.32 3.82L0.32 3.82L0.32 3.82Q0.32 2.72 0.76 1.98L0.76 1.98L0.76 1.98Q1.20 1.25 1.85 0.81L1.85 0.81L1.85 0.81Q2.49 0.38 3.23 0.20L3.23 0.20L3.23 0.20Q3.98 0.01 4.56 0.01L4.56 0.01L4.56 0.01Q5.04 0.01 5.34 0.08L5.34 0.08L5.34 0.08Q5.64 0.14 6.02 0.14L6.02 0.14L6.02 0.14Q6.23 0.14 6.39 0.13L6.39 0.13L6.39 0.13Q6.55 0.11 6.66 0.08L6.66 0.08L6.66 0.08Q6.79 0.06 6.87 0.01L6.87 0.01L6.87 0.01Q6.43 0.80 6.25 1.67L6.25 1.67L6.25 1.67Q6.08 2.53 6.15 3.22L6.15 3.22L6.02 3.22L6.02 3.22Q6.02 2.67 5.78 2.24L5.78 2.24L5.78 2.24Q5.53 1.81 5.12 1.50L5.12 1.50L5.12 1.50Q4.70 1.20 4.17 1.04L4.17 1.04L4.17 1.04Q3.63 0.87 3.02 0.87L3.02 0.87L3.02 0.87Q2.83 0.87 2.55 0.95L2.55 0.95L2.55 0.95Q2.27 1.04 2.02 1.23L2.02 1.23L2.02 1.23Q1.76 1.43 1.58 1.75L1.58 1.75L1.58 1.75Q1.40 2.07 1.40 2.55L1.40 2.55L1.40 2.55Q1.40 3.18 1.65 3.69L1.65 3.69L1.65 3.69Q1.90 4.20 2.31 4.64L2.31 4.64L2.31 4.64Q2.72 5.08 3.24 5.46L3.24 5.46L3.24 5.46Q3.77 5.84 4.32 6.22L4.32 6.22L4.32 6.22Q4.87 6.59 5.40 6.99L5.40 6.99L5.40 6.99Q5.92 7.39 6.33 7.85L6.33 7.85L6.33 7.85Q6.73 8.32 6.99 8.86L6.99 8.86L6.99 8.86Q7.24 9.41 7.24 10.09L7.24 10.09L7.24 10.09Q7.24 10.89 7.01 11.49L7.01 11.49L7.01 11.49Q6.79 12.10 6.43 12.53L6.43 12.53L6.43 12.53Q6.08 12.96 5.62 13.24L5.62 13.24L5.62 13.24Q5.17 13.52 4.69 13.69L4.69 13.69L4.69 13.69Q4.21 13.86 3.77 13.92L3.77 13.92L3.77 13.92Q3.32 13.99 2.98 13.99L2.98 13.99L2.98 13.99Q2.56 13.99 2.23 13.96L2.23 13.96L2.23 13.96Q1.90 13.94 1.64 13.92L1.64 13.92L1.64 13.92Q1.37 13.89 1.16 13.87L1.16 13.87L1.16 13.87Q0.94 13.85 0.73 13.85L0.73 13.85L0.73 13.85Q0.62 13.85 0.49 13.88L0.49 13.88L0.49 13.88Q0.36 13.92 0.25 13.94L0.25 13.94L0.25 13.94Q0.11 13.99 0 14.03L0 14.03L0 14.03Q0.29 13.73 0.45 13.23L0.45 13.23L0.45 13.23Q0.59 12.80 0.61 12.09L0.61 12.09L0.61 12.09Q0.63 11.38 0.36 10.33L0.36 10.33L0.59 10.33L0.59 10.33Q0.59 10.84 0.91 11.35L0.91 11.35L0.91 11.35Q1.23 11.86 1.76 12.28L1.76 12.28L1.76 12.28Q2.28 12.70 2.94 12.96L2.94 12.96L2.94 12.96Q3.60 13.22 4.26 13.22L4.26 13.22L4.26 13.22Q4.59 13.22 4.94 13.15L4.94 13.15L4.94 13.15Q5.29 13.09 5.58 12.90L5.58 12.90L5.58 12.90Q5.87 12.71 6.05 12.35L6.05 12.35L6.05 12.35Q6.23 11.98 6.23 11.37L6.23 11.37L6.23 11.37Q6.23 10.75 5.98 10.25L5.98 10.25L5.98 10.25Q5.73 9.76 5.31 9.34L5.31 9.34L5.31 9.34Q4.89 8.93 4.36 8.57L4.36 8.57L4.36 8.57Q3.84 8.20 3.28 7.84L3.28 7.84L3.28 7.84Q2.72 7.48 2.19 7.08L2.19 7.08L2.19 7.08Q1.67 6.69 1.25 6.22L1.25 6.22L1.25 6.22Q0.83 5.74 0.57 5.15L0.57 5.15L0.57 5.15Q0.32 4.56 0.32 3.82ZM14.81 9.52L14.81 9.52L14.81 9.52Q14.92 9.79 15.13 10.30L15.13 10.30L15.13 10.30Q15.34 10.82 15.57 11.35L15.57 11.35L15.57 11.35Q15.81 11.89 16.03 12.29L16.03 12.29L16.03 12.29Q16.25 12.70 16.41 12.73L16.41 12.73L16.41 12.73Q15.99 12.96 15.53 13.30L15.53 13.30L15.53 13.30Q15.08 13.64 14.74 14L14.74 14L14.74 14Q14.67 13.69 14.49 13.14L14.49 13.14L14.49 13.14Q14.31 12.59 14 11.93L14 11.93L14 11.93Q13.73 12.19 13.33 12.55L13.33 12.55L13.33 12.55Q12.92 12.91 12.46 13.23L12.46 13.23L12.46 13.23Q12.00 13.55 11.50 13.78L11.50 13.78L11.50 13.78Q11.00 14 10.56 14L10.56 14L10.56 14Q10.23 14 9.89 13.91L9.89 13.91L9.89 13.91Q9.55 13.82 9.27 13.64L9.27 13.64L9.27 13.64Q8.99 13.47 8.81 13.22L8.81 13.22L8.81 13.22Q8.64 12.96 8.64 12.64L8.64 12.64L8.64 12.64Q8.64 12.25 9.04 11.80L9.04 11.80L9.04 11.80Q9.45 11.35 10.05 10.91L10.05 10.91L10.05 10.91Q10.65 10.47 11.35 10.05L11.35 10.05L11.35 10.05Q12.05 9.63 12.64 9.27L12.64 9.27L12.64 9.27Q12.21 8.72 11.82 8.48L11.82 8.48L11.82 8.48Q11.44 8.23 10.98 8.23L10.98 8.23L10.98 8.23Q10.78 8.23 10.46 8.34L10.46 8.34L10.46 8.34Q10.15 8.46 9.86 8.60L9.86 8.60L9.86 8.60Q9.49 8.75 9.13 8.95L9.13 8.95L9.13 8.95Q9.91 8.41 10.64 7.98L10.64 7.98L10.64 7.98Q10.95 7.80 11.27 7.63L11.27 7.63L11.27 7.63Q11.59 7.46 11.89 7.32L11.89 7.32L11.89 7.32Q12.19 7.18 12.45 7.10L12.45 7.10L12.45 7.10Q12.71 7.01 12.89 7.01L12.89 7.01L12.89 7.01Q13.24 7.01 13.54 7.31L13.54 7.31L13.54 7.31Q13.85 7.62 14.09 8.03L14.09 8.03L14.09 8.03Q14.34 8.44 14.51 8.86L14.51 8.86L14.51 8.86Q14.69 9.28 14.81 9.52ZM12.07 12.64L12.07 12.64L12.07 12.64Q12.40 12.64 12.71 12.54L12.71 12.54L12.71 12.54Q13.02 12.45 13.25 12.26L13.25 12.26L13.25 12.26Q13.48 12.08 13.62 11.83L13.62 11.83L13.62 11.83Q13.76 11.58 13.76 11.28L13.76 11.28L13.76 11.28Q13.65 11.10 13.52 10.88L13.52 10.88L13.52 10.88Q13.40 10.67 13.29 10.47L13.29 10.47L13.29 10.47Q13.17 10.22 13.05 9.99L13.05 9.99L13.05 9.99Q12.94 9.76 12.81 9.60L12.81 9.60L12.81 9.60Q12.50 9.72 12.06 9.92L12.06 9.92L12.06 9.92Q11.62 10.12 11.21 10.39L11.21 10.39L11.21 10.39Q10.81 10.67 10.52 10.99L10.52 10.99L10.52 10.99Q10.23 11.31 10.23 11.66L10.23 11.66L10.23 11.66Q10.23 11.86 10.38 12.03L10.38 12.03L10.38 12.03Q10.53 12.21 10.77 12.34L10.77 12.34L10.77 12.34Q11.02 12.47 11.35 12.56L11.35 12.56L11.35 12.56Q11.69 12.64 12.07 12.64ZM17.19 8.26L17.19 8.26L17.19 8.26Q17.09 8.23 17.02 8.21L17.02 8.21L17.02 8.21Q16.94 8.19 16.88 8.16L16.88 8.16L16.88 8.16Q16.83 8.15 16.77 8.13L16.77 8.13L16.77 8.13Q16.72 8.13 16.88 8.06L16.88 8.06L16.88 8.06Q17.04 7.98 17.30 7.83L17.30 7.83L17.30 7.83Q17.56 7.69 17.85 7.48L17.85 7.48L17.85 7.48Q18.14 7.27 18.35 6.99L18.35 6.99L18.35 6.99Q18.54 7.48 18.80 7.96L18.80 7.96L18.80 7.96Q19.07 8.44 19.39 8.99L19.39 8.99L19.39 8.99Q19.77 8.54 20.20 8.17L20.20 8.17L20.20 8.17Q20.64 7.80 21.04 7.54L21.04 7.54L21.04 7.54Q21.45 7.28 21.81 7.13L21.81 7.13L21.81 7.13Q22.18 6.99 22.41 6.99L22.41 6.99L22.41 6.99Q22.71 6.99 23.02 7.07L23.02 7.07L23.02 7.07Q23.32 7.15 23.59 7.28L23.59 7.28L23.59 7.28Q23.86 7.41 24.07 7.56L24.07 7.56L24.07 7.56Q24.29 7.71 24.40 7.87L24.40 7.87L24.40 7.87Q24.39 8.11 24.16 8.56L24.16 8.56L24.16 8.56Q23.93 9.02 23.58 9.59L23.58 9.59L23.58 9.59Q23.23 10.16 22.80 10.81L22.80 10.81L22.80 10.81Q22.37 11.45 21.95 12.05L21.95 12.05L21.95 12.05Q21.53 12.66 21.16 13.17L21.16 13.17L21.16 13.17Q20.79 13.68 20.55 14L20.55 14L20.55 14Q20.38 13.61 20.10 13.03L20.10 13.03L20.10 13.03Q19.81 12.46 19.46 11.83L19.46 11.83L19.46 11.83Q19.11 11.20 18.75 10.57L18.75 10.57L18.75 10.57Q18.38 9.94 18.06 9.44L18.06 9.44L18.06 9.44Q17.74 8.93 17.51 8.61L17.51 8.61L17.51 8.61Q17.28 8.29 17.19 8.26ZM21.29 7.80L21.29 7.80L21.29 7.80Q21.13 7.80 20.89 7.94L20.89 7.94L20.89 7.94Q20.65 8.08 20.40 8.29L20.40 8.29L20.40 8.29Q20.15 8.50 19.92 8.74L19.92 8.74L19.92 8.74Q19.70 8.97 19.54 9.16L19.54 9.16L19.54 9.16Q20.02 9.98 20.44 10.77L20.44 10.77L20.44 10.77Q20.86 11.55 21.46 12.33L21.46 12.33L21.46 12.33Q21.81 11.94 22.13 11.45L22.13 11.45L22.13 11.45Q22.44 10.95 22.65 10.46L22.65 10.46L22.65 10.46Q22.86 9.97 22.94 9.53L22.94 9.53L22.94 9.53Q23.02 9.09 22.89 8.81L22.89 8.81L22.89 8.81Q22.83 8.64 22.69 8.46L22.69 8.46L22.69 8.46Q22.55 8.27 22.34 8.13L22.34 8.13L22.34 8.13Q22.13 7.98 21.87 7.89L21.87 7.89L21.87 7.89Q21.60 7.80 21.29 7.80ZM28.06 5.24L28.06 5.24L28.06 5.24Q27.87 5.38 27.69 5.53L27.69 5.53L27.69 5.53Q27.54 5.67 27.35 5.85L27.35 5.85L27.35 5.85Q27.16 6.03 27.01 6.23L27.01 6.23L27.01 6.23Q26.85 5.98 26.68 5.80L26.68 5.80L26.68 5.80Q26.52 5.61 26.36 5.49L26.36 5.49L26.36 5.49Q26.19 5.33 26.03 5.24L26.03 5.24L26.03 5.24Q26.21 5.10 26.38 4.94L26.38 4.94L26.38 4.94Q26.53 4.80 26.70 4.62L26.70 4.62L26.70 4.62Q26.87 4.44 27.01 4.23L27.01 4.23L27.01 4.23Q27.16 4.47 27.34 4.65L27.34 4.65L27.34 4.65Q27.52 4.84 27.68 4.97L27.68 4.97L27.68 4.97Q27.86 5.12 28.06 5.24ZM25.80 8.12L25.80 8.12L25.80 8.12Q26.14 7.98 26.44 7.88L26.44 7.88L26.44 7.88Q26.74 7.77 27.01 7.65L27.01 7.65L27.01 7.65Q27.29 7.53 27.54 7.38L27.54 7.38L27.54 7.38Q27.80 7.24 28.06 7.01L28.06 7.01L28.06 7.01Q28.17 7.39 28.15 7.93L28.15 7.93L28.15 7.93Q28.14 8.47 28.09 9.06L28.09 9.06L28.09 9.06Q28.04 9.66 28.03 10.26L28.03 10.26L28.03 10.26Q28.01 10.86 28.13 11.35L28.13 11.35L28.13 11.35Q28.25 11.84 28.55 12.17L28.55 12.17L28.55 12.17Q28.85 12.50 29.46 12.56L29.46 12.56L29.46 12.56Q28.85 12.95 28.43 13.30L28.43 13.30L28.43 13.30Q28 13.65 27.58 14.01L27.58 14.01L27.58 14.01Q27.45 13.96 27.30 13.89L27.30 13.89L27.30 13.89Q27.15 13.82 27.01 13.69L27.01 13.69L27.01 13.69Q26.87 13.55 26.76 13.35L26.76 13.35L26.76 13.35Q26.66 13.15 26.64 12.82L26.64 12.82L26.64 12.82Q26.66 11.87 26.68 11.01L26.68 11.01L26.68 11.01Q26.71 10.15 26.66 9.50L26.66 9.50L26.66 9.50Q26.60 8.85 26.41 8.48L26.41 8.48L26.41 8.48Q26.22 8.11 25.80 8.12ZM38.26 10.01L38.26 10.01L38.26 10.01Q38.26 11.00 37.93 11.75L37.93 11.75L37.93 11.75Q37.60 12.50 37.21 13.01L37.21 13.01L37.21 13.01Q36.75 13.59 36.16 14.01L36.16 14.01L36.16 14.01Q36.39 13.66 36.57 13.24L36.57 13.24L36.57 13.24Q36.72 12.88 36.85 12.42L36.85 12.42L36.85 12.42Q36.97 11.96 36.97 11.44L36.97 11.44L36.97 11.44Q36.97 10.81 36.72 10.22L36.72 10.22L36.72 10.22Q36.47 9.63 36.05 9.18L36.05 9.18L36.05 9.18Q35.63 8.72 35.08 8.44L35.08 8.44L35.08 8.44Q34.52 8.16 33.92 8.16L33.92 8.16L33.92 8.16Q33.63 8.16 33.35 8.23L33.35 8.23L33.35 8.23Q33.07 8.30 32.89 8.48L32.89 8.48L32.89 8.48Q32.89 8.78 32.87 9.27L32.87 9.27L32.87 9.27Q32.84 9.77 32.84 10.42L32.84 10.42L32.84 10.42Q32.84 11.06 32.88 11.82L32.88 11.82L32.88 11.82Q32.91 12.57 33.04 13.38L33.04 13.38L33.04 13.38Q32.55 13.38 32.07 13.58L32.07 13.58L32.07 13.58Q31.58 13.78 31.29 14.01L31.29 14.01L31.29 14.01Q31.30 13.75 31.33 13.24L31.33 13.24L31.33 13.24Q31.36 12.73 31.37 12.10L31.37 12.10L31.37 12.10Q31.39 11.48 31.38 10.82L31.38 10.82L31.38 10.82Q31.37 10.16 31.32 9.61L31.32 9.61L31.32 9.61Q31.26 9.06 31.16 8.68L31.16 8.68L31.16 8.68Q31.05 8.30 30.87 8.25L30.87 8.25L30.87 8.25Q30.63 8.15 30.39 8.15L30.39 8.15L30.39 8.15Q30.27 8.15 30.16 8.16L30.16 8.16L30.16 8.16Q30.63 7.85 31.07 7.60L31.07 7.60L31.07 7.60Q31.43 7.39 31.81 7.22L31.81 7.22L31.81 7.22Q32.19 7.04 32.40 7.04L32.40 7.04L32.40 7.04Q32.58 7.04 32.68 7.07L32.68 7.07L32.68 7.07Q32.77 7.10 32.82 7.21L32.82 7.21L32.82 7.21Q32.87 7.32 32.88 7.55L32.88 7.55L32.88 7.55Q32.89 7.77 32.89 8.16L32.89 8.16L32.89 8.16Q33.49 7.62 34.17 7.33L34.17 7.33L34.17 7.33Q34.85 7.04 35.45 7.04L35.45 7.04L35.45 7.04Q36.08 7.04 36.60 7.29L36.60 7.29L36.60 7.29Q37.11 7.55 37.48 7.96L37.48 7.96L37.48 7.96Q37.86 8.37 38.06 8.90L38.06 8.90L38.06 8.90Q38.26 9.44 38.26 10.01ZM44.17 11.66L44.17 11.66L44.17 11.66Q44.00 11.77 43.79 11.98L43.79 11.98L43.79 11.98Q43.58 12.19 43.33 12.40L43.33 12.40L43.33 12.40Q43.08 12.60 42.77 12.75L42.77 12.75L42.77 12.75Q42.46 12.91 42.11 12.91L42.11 12.91L42.11 12.91Q41.72 12.91 41.30 12.71L41.30 12.71L41.30 12.71Q40.88 12.52 40.53 12.17L40.53 12.17L40.53 12.17Q40.18 11.83 39.96 11.35L39.96 11.35L39.96 11.35Q39.73 10.88 39.73 10.32L39.73 10.32L39.73 10.32Q39.73 9.86 39.90 9.48L39.90 9.48L39.90 9.48Q40.07 9.11 40.33 8.82L40.33 8.82L40.33 8.82Q40.60 8.53 40.94 8.27L40.94 8.27L40.94 8.27Q41.29 8.02 41.65 7.78L41.65 7.78L41.65 7.78Q42.22 7.42 42.70 7.21L42.70 7.21L42.70 7.21Q43.18 7 43.50 7L43.50 7L43.50 7Q43.89 7 44.32 7.13L44.32 7.13L44.32 7.13Q44.74 7.27 45.23 7.38L45.23 7.38L45.23 7.38Q45.71 7.49 46.24 7.50L46.24 7.50L46.24 7.50Q46.77 7.52 47.36 7.29L47.36 7.29L47.36 7.29Q47.17 7.49 46.96 7.60L46.96 7.60L46.96 7.60Q46.75 7.71 46.54 7.80L46.54 7.80L46.54 7.80Q46.33 7.88 46.12 7.97L46.12 7.97L46.12 7.97Q45.92 8.05 45.72 8.19L45.72 8.19L45.72 8.19Q45.57 9.67 45.69 10.87L45.69 10.87L45.69 10.87Q45.81 12.07 46.11 13.05L46.11 13.05L46.11 13.05Q46.41 14.03 46.84 14.83L46.84 14.83L46.84 14.83Q47.28 15.62 47.75 16.32L47.75 16.32L47.75 16.32Q48.23 17.01 48.70 17.63L48.70 17.63L48.70 17.63Q49.17 18.26 49.55 18.88L49.55 18.88L49.55 18.88Q49.92 19.50 50.16 20.15L50.16 20.15L50.16 20.15Q50.39 20.80 50.39 21.57L50.39 21.57L50.39 21.57Q50.39 22.51 49.96 23.41L49.96 23.41L49.96 23.41Q49.53 24.32 48.73 25.02L48.73 25.02L48.73 25.02Q47.92 25.73 46.77 26.17L46.77 26.17L46.77 26.17Q45.61 26.60 44.17 26.60L44.17 26.60L44.17 26.60Q42.99 26.60 42.15 26.40L42.15 26.40L42.15 26.40Q41.31 26.19 40.75 25.94L40.75 25.94L40.75 25.94Q40.10 25.65 39.66 25.27L39.66 25.27L39.66 25.27Q40.17 25.61 40.84 25.86L40.84 25.86L40.84 25.86Q41.43 26.08 42.25 26.26L42.25 26.26L42.25 26.26Q43.08 26.45 44.17 26.45L44.17 26.45L44.17 26.45Q45.09 26.45 45.98 26.24L45.98 26.24L45.98 26.24Q46.87 26.04 47.57 25.60L47.57 25.60L47.57 25.60Q48.27 25.16 48.71 24.46L48.71 24.46L48.71 24.46Q49.14 23.76 49.14 22.76L49.14 22.76L49.14 22.76Q49.14 21.97 48.81 21.27L48.81 21.27L48.81 21.27Q48.48 20.57 47.97 19.86L47.97 19.86L47.97 19.86Q47.46 19.15 46.85 18.37L46.85 18.37L46.85 18.37Q46.24 17.58 45.69 16.62L45.69 16.62L45.69 16.62Q45.14 15.65 44.72 14.44L44.72 14.44L44.72 14.44Q44.30 13.23 44.17 11.66ZM44.10 10.47L44.10 10.47L44.10 10.47Q44.10 9.81 44.14 9.36L44.14 9.36L44.14 9.36Q44.17 8.90 44.39 8.41L44.39 8.41L44.39 8.41Q44.23 8.33 43.93 8.24L43.93 8.24L43.93 8.24Q43.64 8.15 43.28 8.09L43.28 8.09L43.28 8.09Q42.92 8.02 42.53 8.00L42.53 8.00L42.53 8.00Q42.13 7.98 41.73 8.04L41.73 8.04L41.73 8.04Q41.40 8.15 41.27 8.44L41.27 8.44L41.27 8.44Q41.15 8.74 41.15 9.07L41.15 9.07L41.15 9.07Q41.15 9.81 41.46 10.34L41.46 10.34L41.46 10.34Q41.78 10.86 42.24 11.17L42.24 11.17L42.24 11.17Q42.70 11.48 43.23 11.56L43.23 11.56L43.23 11.56Q43.75 11.65 44.17 11.51L44.17 11.51L44.17 11.51Q44.17 11.28 44.14 11.02L44.14 11.02L44.14 11.02Q44.10 10.75 44.10 10.47ZM69.15 0.15L69.15 0.15L69.15 0.15Q69.62 0.15 69.96 0.13L69.96 0.13L69.96 0.13Q70.29 0.11 70.52 0.08L70.52 0.08L70.52 0.08Q70.77 0.06 70.95 0.01L70.95 0.01L70.95 0.15L70.41 0.29L70.41 0.29Q70.25 0.63 70.06 1.27L70.06 1.27L70.06 1.27Q69.87 1.92 69.66 2.77L69.66 2.77L69.66 2.77Q69.44 3.61 69.20 4.62L69.20 4.62L69.20 4.62Q68.96 5.63 68.71 6.68L68.71 6.68L68.71 6.68Q68.46 7.74 68.20 8.81L68.20 8.81L68.20 8.81Q67.94 9.87 67.68 10.84L67.68 10.84L67.68 10.84Q67.42 11.80 67.17 12.62L67.17 12.62L67.17 12.62Q66.91 13.44 66.65 14.01L66.65 14.01L66.65 14.01Q66.28 13.16 65.90 11.97L65.90 11.97L65.90 11.97Q65.52 10.78 65.16 9.44L65.16 9.44L65.16 9.44Q64.81 8.11 64.48 6.74L64.48 6.74L64.48 6.74Q64.16 5.38 63.90 4.17L63.90 4.17L63.90 4.17Q63.76 4.77 63.55 5.65L63.55 5.65L63.55 5.65Q63.34 6.52 63.09 7.52L63.09 7.52L63.09 7.52Q62.85 8.51 62.59 9.53L62.59 9.53L62.59 9.53Q62.33 10.56 62.09 11.45L62.09 11.45L62.09 11.45Q61.85 12.33 61.64 13.01L61.64 13.01L61.64 13.01Q61.42 13.68 61.28 13.97L61.28 13.97L61.28 13.97Q61.14 13.75 60.94 13.11L60.94 13.11L60.94 13.11Q60.73 12.47 60.48 11.56L60.48 11.56L60.48 11.56Q60.23 10.65 59.94 9.54L59.94 9.54L59.94 9.54Q59.65 8.43 59.35 7.27L59.35 7.27L59.35 7.27Q59.05 6.12 58.75 4.99L58.75 4.99L58.75 4.99Q58.45 3.86 58.17 2.91L58.17 2.91L58.17 2.91Q57.89 1.96 57.65 1.25L57.65 1.25L57.65 1.25Q57.40 0.55 57.22 0.24L57.22 0.24L56.55 0.15L56.55 0.01L56.55 0.01Q56.74 0.06 56.99 0.08L56.99 0.08L56.99 0.08Q57.22 0.11 57.53 0.13L57.53 0.13L57.53 0.13Q57.85 0.15 58.25 0.15L58.25 0.15L58.25 0.15Q58.72 0.15 59.09 0.13L59.09 0.13L59.09 0.13Q59.47 0.11 59.75 0.08L59.75 0.08L59.75 0.08Q60.07 0.06 60.34 0.01L60.34 0.01L60.34 0.15L59.44 0.29L59.44 0.29Q59.44 0.49 59.51 0.96L59.51 0.96L59.51 0.96Q59.58 1.43 59.71 2.08L59.71 2.08L59.71 2.08Q59.84 2.73 60.00 3.52L60.00 3.52L60.00 3.52Q60.17 4.31 60.36 5.14L60.36 5.14L60.36 5.14Q60.55 5.98 60.75 6.82L60.75 6.82L60.75 6.82Q60.96 7.66 61.15 8.40L61.15 8.40L61.15 8.40Q61.33 9.14 61.51 9.74L61.51 9.74L61.51 9.74Q61.68 10.35 61.82 10.72L61.82 10.72L61.82 10.72Q61.94 10.57 62.10 10.07L62.10 10.07L62.10 10.07Q62.26 9.56 62.44 8.86L62.44 8.86L62.44 8.86Q62.62 8.16 62.80 7.34L62.80 7.34L62.80 7.34Q62.99 6.52 63.15 5.73L63.15 5.73L63.15 5.73Q63.32 4.94 63.46 4.27L63.46 4.27L63.46 4.27Q63.59 3.60 63.67 3.18L63.67 3.18L63.67 3.18Q63.41 2.02 63.20 1.24L63.20 1.24L63.20 1.24Q62.99 0.46 62.82 0.29L62.82 0.29L62.29 0.15L62.29 0.01L62.29 0.01Q62.44 0.06 62.66 0.08L62.66 0.08L62.66 0.08Q62.86 0.11 63.14 0.13L63.14 0.13L63.14 0.13Q63.42 0.15 63.81 0.15L63.81 0.15L63.81 0.15Q64.22 0.15 64.53 0.13L64.53 0.13L64.53 0.13Q64.85 0.11 65.07 0.08L65.07 0.08L65.07 0.08Q65.32 0.06 65.53 0.01L65.53 0.01L65.53 0.15L64.89 0.29L64.89 0.29Q64.88 0.71 64.95 1.37L64.95 1.37L64.95 1.37Q65.03 2.02 65.16 2.79L65.16 2.79L65.16 2.79Q65.28 3.57 65.46 4.45L65.46 4.45L65.46 4.45Q65.63 5.32 65.83 6.19L65.83 6.19L65.83 6.19Q66.02 7.06 66.23 7.88L66.23 7.88L66.23 7.88Q66.43 8.69 66.62 9.37L66.62 9.37L66.62 9.37Q66.81 10.05 66.97 10.54L66.97 10.54L66.97 10.54Q67.13 11.03 67.24 11.26L67.24 11.26L67.24 11.26Q67.37 10.72 67.53 9.79L67.53 9.79L67.53 9.79Q67.69 8.86 67.86 7.76L67.86 7.76L67.86 7.76Q68.03 6.66 68.17 5.49L68.17 5.49L68.17 5.49Q68.32 4.31 68.42 3.28L68.42 3.28L68.42 3.28Q68.52 2.24 68.53 1.44L68.53 1.44L68.53 1.44Q68.54 0.64 68.46 0.29L68.46 0.29L67.56 0.15L67.56 0.01L67.56 0.01Q67.82 0.06 68.08 0.08L68.08 0.08L68.08 0.08Q68.32 0.11 68.59 0.13L68.59 0.13L68.59 0.13Q68.87 0.15 69.15 0.15ZM73.21 5.24L73.21 5.24L73.21 5.24Q73.02 5.38 72.84 5.53L72.84 5.53L72.84 5.53Q72.69 5.67 72.50 5.85L72.50 5.85L72.50 5.85Q72.31 6.03 72.16 6.23L72.16 6.23L72.16 6.23Q72.00 5.98 71.83 5.80L71.83 5.80L71.83 5.80Q71.67 5.61 71.51 5.49L71.51 5.49L71.51 5.49Q71.34 5.33 71.18 5.24L71.18 5.24L71.18 5.24Q71.36 5.10 71.53 4.94L71.53 4.94L71.53 4.94Q71.68 4.80 71.85 4.62L71.85 4.62L71.85 4.62Q72.02 4.44 72.16 4.23L72.16 4.23L72.16 4.23Q72.31 4.47 72.49 4.65L72.49 4.65L72.49 4.65Q72.67 4.84 72.83 4.97L72.83 4.97L72.83 4.97Q73.01 5.12 73.21 5.24ZM70.95 8.12L70.95 8.12L70.95 8.12Q71.29 7.98 71.59 7.88L71.59 7.88L71.59 7.88Q71.89 7.77 72.16 7.65L72.16 7.65L72.16 7.65Q72.44 7.53 72.70 7.38L72.70 7.38L72.70 7.38Q72.95 7.24 73.21 7.01L73.21 7.01L73.21 7.01Q73.32 7.39 73.30 7.93L73.30 7.93L73.30 7.93Q73.29 8.47 73.24 9.06L73.24 9.06L73.24 9.06Q73.19 9.66 73.18 10.26L73.18 10.26L73.18 10.26Q73.16 10.86 73.28 11.35L73.28 11.35L73.28 11.35Q73.40 11.84 73.70 12.17L73.70 12.17L73.70 12.17Q74.00 12.50 74.61 12.56L74.61 12.56L74.61 12.56Q74.00 12.95 73.58 13.30L73.58 13.30L73.58 13.30Q73.15 13.65 72.73 14.01L72.73 14.01L72.73 14.01Q72.60 13.96 72.45 13.89L72.45 13.89L72.45 13.89Q72.30 13.82 72.16 13.69L72.16 13.69L72.16 13.69Q72.02 13.55 71.91 13.35L71.91 13.35L71.91 13.35Q71.81 13.15 71.79 12.82L71.79 12.82L71.79 12.82Q71.81 11.87 71.83 11.01L71.83 11.01L71.83 11.01Q71.86 10.15 71.81 9.50L71.81 9.50L71.81 9.50Q71.75 8.85 71.56 8.48L71.56 8.48L71.56 8.48Q71.37 8.11 70.95 8.12ZM76.24 6.99L76.24 6.99L76.24 6.99Q76.24 5.42 76.24 4.28L76.24 4.28L76.24 4.28Q76.24 3.14 76.23 2.32L76.23 2.32L76.23 2.32Q76.22 1.50 76.16 0.95L76.16 0.95L76.16 0.95Q76.10 0.41 76.01 0.01L76.01 0.01L76.01 0.01Q76.97 0.01 77.64-0.34L77.64-0.34L77.64-0.34Q78.30-0.70 78.86-1.18L78.86-1.18L78.86-1.18Q78.58-0.77 78.39-0.45L78.39-0.45L78.39-0.45Q78.19-0.13 78.12 0.10L78.12 0.10L78.12 0.10Q77.97 0.59 77.88 1.33L77.88 1.33L77.88 1.33Q77.80 2.07 77.76 2.98L77.76 2.98L77.76 2.98Q77.71 3.89 77.71 4.91L77.71 4.91L77.71 4.91Q77.70 5.94 77.70 6.99L77.70 6.99L77.70 6.99Q77.70 8.05 77.66 8.79L77.66 8.79L77.66 8.79Q77.62 9.52 77.60 10.04L77.60 10.04L77.60 10.04Q77.57 10.57 77.60 10.93L77.60 10.93L77.60 10.93Q77.62 11.28 77.74 11.59L77.74 11.59L77.74 11.59Q77.84 11.79 77.95 11.97L77.95 11.97L77.95 11.97Q78.06 12.15 78.22 12.31L78.22 12.31L78.22 12.31Q78.37 12.47 78.57 12.58L78.57 12.58L78.57 12.58Q78.76 12.68 79.03 12.70L79.03 12.70L79.03 12.70Q78.50 13.08 78.09 13.40L78.09 13.40L78.09 13.40Q77.67 13.72 77.34 14.04L77.34 14.04L77.34 14.04Q77.07 13.90 76.86 13.69L76.86 13.69L76.86 13.69Q76.65 13.47 76.50 13.23L76.50 13.23L76.50 13.23Q76.36 12.99 76.27 12.75L76.27 12.75L76.27 12.75Q76.17 12.52 76.15 12.33L76.15 12.33L76.15 12.33Q76.12 11.80 76.13 11.30L76.13 11.30L76.13 11.30Q76.15 10.79 76.17 10.19L76.17 10.19L76.17 10.19Q76.20 9.59 76.22 8.82L76.22 8.82L76.22 8.82Q76.24 8.05 76.24 6.99ZM79.63 3.33L79.63 3.33L79.63 3.33Q79.63 2.83 80.03 2.33L80.03 2.33L80.03 2.33Q80.43 1.83 81.05 1.39L81.05 1.39L81.05 1.39Q81.68 0.95 82.43 0.60L82.43 0.60L82.43 0.60Q83.19 0.25 83.89 0.04L83.89 0.04L83.89 0.04Q83.36 0.21 82.87 0.48L82.87 0.48L82.87 0.48Q82.38 0.74 82.00 1.06L82.00 1.06L82.00 1.06Q81.62 1.37 81.39 1.71L81.39 1.71L81.39 1.71Q81.16 2.06 81.16 2.38L81.16 2.38L81.16 2.38Q81.16 2.76 81.40 3.18L81.40 3.18L81.40 3.18Q81.65 3.60 82.03 4.03L82.03 4.03L82.03 4.03Q82.42 4.45 82.90 4.86L82.90 4.86L82.90 4.86Q83.38 5.26 83.87 5.61L83.87 5.61L83.87 5.61Q84.35 5.95 84.78 6.22L84.78 6.22L84.78 6.22Q85.20 6.50 85.50 6.64L85.50 6.64L85.50 6.64Q85.78 6.78 86.14 6.92L86.14 6.92L86.14 6.92Q86.51 7.07 86.89 7.26L86.89 7.26L86.89 7.26Q87.28 7.45 87.65 7.69L87.65 7.69L87.65 7.69Q88.03 7.94 88.33 8.27L88.33 8.27L88.33 8.27Q88.62 8.61 88.80 9.04L88.80 9.04L88.80 9.04Q88.98 9.48 88.98 10.05L88.98 10.05L88.98 10.05Q88.98 10.51 88.84 10.91L88.84 10.91L88.84 10.91Q88.70 11.30 88.47 11.63L88.47 11.63L88.47 11.63Q88.23 11.97 87.93 12.26L87.93 12.26L87.93 12.26Q87.63 12.54 87.29 12.81L87.29 12.81L87.29 12.81Q86.62 13.34 86.00 13.68L86.00 13.68L86.00 13.68Q85.39 14.01 84.73 14.01L84.73 14.01L84.73 14.01Q84.18 14.01 83.72 13.79L83.72 13.79L83.72 13.79Q83.26 13.57 82.94 13.21L82.94 13.21L82.94 13.21Q82.61 12.85 82.43 12.41L82.43 12.41L82.43 12.41Q82.25 11.97 82.25 11.54L82.25 11.54L82.25 11.54Q82.25 10.92 82.39 10.51L82.39 10.51L82.39 10.51Q82.53 10.09 82.76 9.81L82.76 9.81L82.76 9.81Q82.99 9.53 83.29 9.34L83.29 9.34L83.29 9.34Q83.58 9.14 83.89 8.96L83.89 8.96L83.89 8.96Q84.17 8.74 84.46 8.57L84.46 8.57L84.46 8.57Q84.74 8.40 85.08 8.29L85.08 8.29L85.08 8.29Q84.57 8.04 84.10 7.78L84.10 7.78L84.10 7.78Q83.62 7.52 83.26 7.24L83.26 7.24L83.26 7.24Q82.99 7.06 82.62 6.80L82.62 6.80L82.62 6.80Q82.25 6.55 81.85 6.25L81.85 6.25L81.85 6.25Q81.45 5.95 81.05 5.60L81.05 5.60L81.05 5.60Q80.65 5.25 80.34 4.88L80.34 4.88L80.34 4.88Q80.02 4.51 79.83 4.12L79.83 4.12L79.83 4.12Q79.63 3.72 79.63 3.33ZM87.42 10.91L87.42 10.91L87.42 10.91Q87.42 10.47 87.24 10.12L87.24 10.12L87.24 10.12Q87.07 9.76 86.77 9.46L86.77 9.46L86.77 9.46Q86.48 9.16 86.09 8.90L86.09 8.90L86.09 8.90Q85.69 8.65 85.26 8.43L85.26 8.43L85.26 8.43Q85.01 8.47 84.74 8.62L84.74 8.62L84.74 8.62Q84.46 8.76 84.25 9.00L84.25 9.00L84.25 9.00Q84.03 9.24 83.88 9.55L83.88 9.55L83.88 9.55Q83.73 9.87 83.73 10.25L83.73 10.25L83.73 10.25Q83.73 10.70 83.90 11.12L83.90 11.12L83.90 11.12Q84.07 11.55 84.39 11.89L84.39 11.89L84.39 11.89Q84.71 12.22 85.18 12.43L85.18 12.43L85.18 12.43Q85.65 12.63 86.27 12.63L86.27 12.63L86.27 12.63Q86.74 12.63 86.99 12.51L86.99 12.51L86.99 12.51Q87.23 12.39 87.33 12.17L87.33 12.17L87.33 12.17Q87.42 11.94 87.42 11.62L87.42 11.62L87.42 11.62Q87.42 11.30 87.42 10.91ZM94.19 7L94.19 7L94.19 7Q94.36 7.20 94.65 7.39L94.65 7.39L94.65 7.39Q94.95 7.59 95.27 7.75L95.27 7.75L95.27 7.75Q95.59 7.91 95.91 8.02L95.91 8.02L95.91 8.02Q96.22 8.12 96.46 8.12L96.46 8.12L96.46 8.12Q96.25 8.26 95.99 8.41L95.99 8.41L95.99 8.41Q95.73 8.55 95.50 8.69L95.50 8.69L95.50 8.69Q95.27 8.82 95.10 8.92L95.10 8.92L95.10 8.92Q94.92 9.02 94.85 9.07L94.85 9.07L94.85 9.07Q94.65 9.10 94.35 9.03L94.35 9.03L94.35 9.03Q94.04 8.96 93.71 8.83L93.71 8.83L93.71 8.83Q93.38 8.71 93.09 8.57L93.09 8.57L93.09 8.57Q92.79 8.43 92.64 8.32L92.64 8.32L92.64 8.32Q92.51 8.40 92.38 8.55L92.38 8.55L92.38 8.55Q92.25 8.71 92.13 8.92L92.13 8.92L92.13 8.92Q92.02 9.13 91.95 9.38L91.95 9.38L91.95 9.38Q91.88 9.63 91.88 9.91L91.88 9.91L91.88 9.91Q91.88 10.54 92.20 11.02L92.20 11.02L92.20 11.02Q92.51 11.49 92.97 11.81L92.97 11.81L92.97 11.81Q93.42 12.12 93.93 12.29L93.93 12.29L93.93 12.29Q94.44 12.45 94.85 12.45L94.85 12.45L94.85 12.45Q95.40 12.45 95.83 12.34L95.83 12.34L95.83 12.34Q96.26 12.24 96.57 12.10L96.57 12.10L96.57 12.10Q96.94 11.94 97.20 11.75L97.20 11.75L97.20 11.75Q96.91 12.01 96.52 12.40L96.52 12.40L96.52 12.40Q96.14 12.78 95.68 13.14L95.68 13.14L95.68 13.14Q95.23 13.50 94.69 13.75L94.69 13.75L94.69 13.75Q94.15 14 93.53 14L93.53 14L93.53 14Q92.83 14 92.25 13.74L92.25 13.74L92.25 13.74Q91.67 13.48 91.26 13.05L91.26 13.05L91.26 13.05Q90.85 12.63 90.62 12.08L90.62 12.08L90.62 12.08Q90.38 11.54 90.38 10.95L90.38 10.95L90.38 10.95Q90.38 10.42 90.62 9.97L90.62 9.97L90.62 9.97Q90.85 9.52 91.20 9.14L91.20 9.14L91.20 9.14Q91.56 8.76 92.00 8.45L92.00 8.45L92.00 8.45Q92.44 8.13 92.87 7.87L92.87 7.87L92.87 7.87Q93.30 7.60 93.65 7.39L93.65 7.39L93.65 7.39Q94.00 7.18 94.19 7ZM104.78 9.52L104.78 9.52L104.78 9.52Q104.89 9.79 105.10 10.30L105.10 10.30L105.10 10.30Q105.31 10.82 105.54 11.35L105.54 11.35L105.54 11.35Q105.77 11.89 105.99 12.29L105.99 12.29L105.99 12.29Q106.22 12.70 106.37 12.73L106.37 12.73L106.37 12.73Q105.95 12.96 105.50 13.30L105.50 13.30L105.50 13.30Q105.04 13.64 104.71 14L104.71 14L104.71 14Q104.64 13.69 104.45 13.14L104.45 13.14L104.45 13.14Q104.27 12.59 103.96 11.93L103.96 11.93L103.96 11.93Q103.70 12.19 103.29 12.55L103.29 12.55L103.29 12.55Q102.89 12.91 102.42 13.23L102.42 13.23L102.42 13.23Q101.96 13.55 101.47 13.78L101.47 13.78L101.47 13.78Q100.97 14 100.52 14L100.52 14L100.52 14Q100.20 14 99.86 13.91L99.86 13.91L99.86 13.91Q99.51 13.82 99.23 13.64L99.23 13.64L99.23 13.64Q98.95 13.47 98.78 13.22L98.78 13.22L98.78 13.22Q98.60 12.96 98.60 12.64L98.60 12.64L98.60 12.64Q98.60 12.25 99.01 11.80L99.01 11.80L99.01 11.80Q99.41 11.35 100.02 10.91L100.02 10.91L100.02 10.91Q100.62 10.47 101.32 10.05L101.32 10.05L101.32 10.05Q102.02 9.63 102.61 9.27L102.61 9.27L102.61 9.27Q102.17 8.72 101.79 8.48L101.79 8.48L101.79 8.48Q101.40 8.23 100.94 8.23L100.94 8.23L100.94 8.23Q100.74 8.23 100.43 8.34L100.43 8.34L100.43 8.34Q100.11 8.46 99.82 8.60L99.82 8.60L99.82 8.60Q99.46 8.75 99.09 8.95L99.09 8.95L99.09 8.95Q99.88 8.41 100.60 7.98L100.60 7.98L100.60 7.98Q100.91 7.80 101.23 7.63L101.23 7.63L101.23 7.63Q101.56 7.46 101.86 7.32L101.86 7.32L101.86 7.32Q102.16 7.18 102.42 7.10L102.42 7.10L102.42 7.10Q102.68 7.01 102.86 7.01L102.86 7.01L102.86 7.01Q103.21 7.01 103.51 7.31L103.51 7.31L103.51 7.31Q103.81 7.62 104.06 8.03L104.06 8.03L104.06 8.03Q104.30 8.44 104.48 8.86L104.48 8.86L104.48 8.86Q104.65 9.28 104.78 9.52ZM102.03 12.64L102.03 12.64L102.03 12.64Q102.37 12.64 102.68 12.54L102.68 12.54L102.68 12.54Q102.98 12.45 103.22 12.26L103.22 12.26L103.22 12.26Q103.45 12.08 103.59 11.83L103.59 11.83L103.59 11.83Q103.73 11.58 103.73 11.28L103.73 11.28L103.73 11.28Q103.61 11.10 103.49 10.88L103.49 10.88L103.49 10.88Q103.36 10.67 103.25 10.47L103.25 10.47L103.25 10.47Q103.14 10.22 103.02 9.99L103.02 9.99L103.02 9.99Q102.90 9.76 102.77 9.60L102.77 9.60L102.77 9.60Q102.47 9.72 102.03 9.92L102.03 9.92L102.03 9.92Q101.58 10.12 101.18 10.39L101.18 10.39L101.18 10.39Q100.77 10.67 100.49 10.99L100.49 10.99L100.49 10.99Q100.20 11.31 100.20 11.66L100.20 11.66L100.20 11.66Q100.20 11.86 100.35 12.03L100.35 12.03L100.35 12.03Q100.49 12.21 100.74 12.34L100.74 12.34L100.74 12.34Q100.98 12.47 101.32 12.56L101.32 12.56L101.32 12.56Q101.65 12.64 102.03 12.64ZM108.28 5.73L108.28 5.73L108.28 5.73Q108.72 5.54 109.17 5.26L109.17 5.26L109.17 5.26Q109.62 4.98 110.12 4.66L110.12 4.66L110.12 4.66Q110.05 4.91 110.00 5.28L110.00 5.28L110.00 5.28Q109.94 5.64 109.90 6.01L109.90 6.01L109.90 6.01Q109.86 6.38 109.83 6.69L109.83 6.69L109.83 6.69Q109.80 7 109.80 7.14L109.80 7.14L109.80 7.14Q110.36 7.29 110.94 7.27L110.94 7.27L110.94 7.27Q111.52 7.24 111.89 7.24L111.89 7.24L111.89 7.24Q111.71 7.41 111.43 7.52L111.43 7.52L111.43 7.52Q111.16 7.64 110.87 7.74L110.87 7.74L110.87 7.74Q110.57 7.84 110.29 7.91L110.29 7.91L110.29 7.91Q110.00 7.98 109.79 8.04L109.79 8.04L109.79 8.04Q109.82 8.55 109.78 9.09L109.78 9.09L109.78 9.09Q109.75 9.62 109.75 10.12L109.75 10.12L109.75 10.12Q109.75 10.61 109.83 11.05L109.83 11.05L109.83 11.05Q109.91 11.49 110.17 11.83L110.17 11.83L110.17 11.83Q110.43 12.17 110.92 12.38L110.92 12.38L110.92 12.38Q111.40 12.60 112.21 12.64L112.21 12.64L112.21 12.64Q111.97 12.84 111.73 13.08L111.73 13.08L111.73 13.08Q111.50 13.31 111.24 13.52L111.24 13.52L111.24 13.52Q110.99 13.72 110.73 13.85L110.73 13.85L110.73 13.85Q110.46 13.99 110.18 13.99L110.18 13.99L110.18 13.99Q109.90 13.99 109.61 13.88L109.61 13.88L109.61 13.88Q109.33 13.78 109.10 13.56L109.10 13.56L109.10 13.56Q108.86 13.34 108.70 13.01L108.70 13.01L108.70 13.01Q108.54 12.68 108.53 12.24L108.53 12.24L108.53 12.24Q108.47 11.12 108.44 10.01L108.44 10.01L108.44 10.01Q108.42 8.90 108.42 8.01L108.42 8.01L108.42 8.01Q108.05 7.98 107.81 7.95L107.81 7.95L107.81 7.95Q107.56 7.91 107.39 7.88L107.39 7.88L107.39 7.88Q107.20 7.85 107.07 7.83L107.07 7.83L107.07 7.83Q107.27 7.74 107.49 7.64L107.49 7.64L107.49 7.64Q107.67 7.56 107.90 7.45L107.90 7.45L107.90 7.45Q108.12 7.34 108.33 7.18L108.33 7.18L108.33 7.18Q108.37 6.75 108.37 6.40L108.37 6.40L108.37 6.40Q108.36 6.05 108.28 5.73Z"></path></g><!----><g data-v-423bf9ae="" id="33b4db3d-93e4-4bdd-96d6-353161a321c9" transform="matrix(1.447876096011783,0,0,1.447876096011783,49.29306824146896,-26.47515609815656)" stroke="none" fill="white"><path d="M97.113 76.28c-.11-.193-.196-.347-.078-.567.338-.636.139-1.085-.162-1.769-.104-.235-.223-.503-.335-.816l-.046-.13c-.284-.796-.284-.796-.738-1.511a82.814 82.814 0 0 1-.593-.942c-.548-.885-.945-1.925-1.331-2.93-.393-1.025-.763-1.994-1.245-2.651-.58-.789-.88-1.648-1.1-2.275-.14-.399-.241-.687-.362-.817-.286-.306-.606-.346-.855-.346-.055 0-.107.002-.157.004-.043.002-.084.004-.123.004-.138 0-.201-.022-.231-.082-.169-.332-.583-1.417-1.154-2.919-1.908-5.019-5.463-14.358-7.611-15.891-1.046-.744-3.085-2.907-3.259-4.387-.164-1.402 5.645-10.324 7.4-11.363.834-.495 1.493-.886 3.763-.886.804 0 1.774.049 2.965.15.181.016.357.023.526.023 1.095 0 1.733-.313 1.88-.622.076-.162.079-.303.007-.417-.239-.38-1.276-.385-2.19-.389-.48-.002-.935-.004-1.196-.061-1.263-.275-2.433-.415-3.476-.415-1.15 0-2.142.172-2.944.511-3.574 1.508-8.273 7.819-10.28 10.516-.51.685-.879 1.181-.97 1.246-.053.037-.15.058-.286.058-.229 0-.538-.05-.896-.108-.445-.071-.948-.152-1.408-.152-.343 0-.618.045-.84.137-.007.004-.02.006-.043.006-.199 0-.751-.234-1.584-.591-2.32-.989-7.149-3.048-14.135-4.162-3.213-.513-6.051-2.479-7.929-3.78-1.011-.699-1.741-1.205-2.197-1.283-1.151-.196-2.502-1.083-3.587-1.795-.604-.396-1.125-.738-1.469-.863-.244-.089-.572-.264-.989-.484-1.214-.646-3.049-1.619-5.573-2.019-2.221-.351-3.509-.48-4.752-.48-.484 0-.97.02-1.576.063-.365.026-.792.045-1.243.064-1.484.063-3.167.135-3.905.527a.455.455 0 0 1-.209.043c-.848 0-3.042-1.338-3.532-2.039-.335-.48-.816-.767-1.287-.767-.339 0-.643.155-.857.438-.465.614-.493 1.766-.08 3.242-.209.209-.385.407-.541.582-.34.381-.587.657-.885.743-.246.07-.488.106-.719.106-.885 0-1.51-.521-1.966-.902-.099-.082-.193-.161-.281-.227a.176.176 0 0 0-.106-.041c-.029 0-.071.011-.106.06-.12.167-.087.67.074 1.146.126.375.328.764.506 1.106.188.361.35.672.383.88.071.443-.444 1.028-.942 1.594-.408.46-.828.938-.958 1.363-.121.397-.032.854.055 1.296.069.352.134.685.081.945-.088.432-.387 1.157-.703 1.926-.541 1.313-1.152 2.801-.925 3.334.365.857.87.966 1.141 1.024.084.019.156.033.173.062.007.011.007.03 0 .056-.073.268.098.766.397 1.157.229.301.737.805 1.552.805.163 0 .297.185.467.417.323.443.768 1.053 1.824 1.025 1.065-.026 1.716-.754 2.24-1.337.333-.372.622-.693.914-.693.258 0 .521.03.775.061.248.027.503.058.747.058a1.9 1.9 0 0 0 .724-.122c.317-.124.422-.402.523-.672.075-.2.147-.391.301-.505.269.612.329 1.553-.014 1.969-.255.309-1.78.524-2.895.682-.236.033-.458.064-.651.094-.922.143-3.857 1.202-4.419 1.444-.163.068-.466.159-.819.263-.977.288-2.316.685-2.636 1.196-.111.177-.343.263-.708.263-.329 0-.716-.067-1.092-.133-.347-.06-.674-.117-.931-.117-.101 0-.184.009-.254.026-.388.098-.493.281-.569.417-.063.111-.105.186-.277.186-.485 0-.793.262-.92.507-.169.325-.153.587-.136.866.012.204.025.416-.038.669a5.417 5.417 0 0 1-.185.542c-.256.68-.606 1.611-.086 1.91.355.205.623.48.859.724.377.389.7.722 1.239.668.089-.009.177-.014.261-.014.524 0 .847.169 1.133.318.203.104.378.196.58.196a.694.694 0 0 0 .222-.037c.355-.118.616-.254.825-.362.252-.131.435-.226.642-.226.131 0 .267.037.427.119.209.107.396.308.594.521.323.344.689.735 1.276.896.141.037.285.057.44.057.348 0 .693-.097 1.026-.189.322-.089.655-.183.98-.183.111 0 .214.011.316.033.129.026.244.039.349.039.279 0 .448-.094.626-.192.217-.12.441-.246.907-.246.102 0 .211.006.328.019.224.026.755-.457 1.317-.971.511-.466 1.039-.949 1.279-.988a.287.287 0 0 1 .048-.004c.351 0 1.762.257 3.397.553 2.288.414 4.895.886 5.579.837.703-.049 1.628-1.134 2.444-2.09.594-.696 1.156-1.355 1.493-1.442.344-.088 2.073-.229 3.473-.229.823 0 1.395.05 1.651.143.36.13 1.877.794 3.797 1.635 3.872 1.696 9.174 4.018 10.281 4.288.975.238 2.191.353 3.718.353 1.402 0 2.877-.095 4.302-.187 1.323-.085 2.572-.165 3.677-.165 1.113 0 1.947.086 2.548.263 3.928 1.157 7.049 5.891 9.329 9.346a58.694 58.694 0 0 0 1.479 2.179c.515.705 1.166 1.311 1.795 1.898.809.753 1.646 1.533 2.221 2.54 1.208 2.113 2.574 4.759 2.411 6.462-.024.264-.052.522-.077.773-.156 1.509-.28 2.699.141 3.046a.767.767 0 0 0 .339.151c.175.044.341.084.506.404.058.109.105.229.15.344.121.303.234.588.502.655l.173.04c.263.059.511.114 1.002.396a.576.576 0 0 0 .287.078c.451 0 .882-.546 1.228-.983.065-.082.128-.161.186-.231.238-.286.225-.602.212-.857-.011-.224-.019-.401.125-.508.167-.127.228-.4.25-.608.042-.408-.033-.868-.171-1.025-.396-.452-.619-1.014-.783-1.423a3.628 3.628 0 0 0-.214-.48c-.579-.951-.75-2.475-.877-3.586-.088-.777-.139-1.185-.267-1.271-.375-.255-.969-2.403-1.359-3.825-.283-1.023-.435-1.56-.517-1.633-.116-.102-.263-.2-.43-.315-.33-.226-.727-.498-1.078-.92a.086.086 0 0 0-.021-.028c-.005-.007-.012-.011-.017-.016a3.672 3.672 0 0 1-.682-1.392l-.111-.432c-.367-1.399-.822-3.137-.948-4.342.969.553 6.314 7.104 6.904 7.983.19.284.446.475.77.715.761.566 1.909 1.421 3.262 4.479.487 1.099.797 2.607 1.07 3.938.308 1.492.573 2.78 1.009 3.215.394.393.681.438.91.475.146.024.26.043.365.145.583.56.875.828 1.157.828a.51.51 0 0 0 .328-.137 3 3 0 0 1 .531-.33c.423-.227.901-.483 1.144-1.15.197-.545.026-.847-.111-1.089zm-1.69 2.058a.438.438 0 0 1-.175.036c-.362 0-.771-.401-1.012-.746-.144-.205-.361-.296-.591-.394-.228-.097-.462-.197-.636-.415-.146-.182-.398-1.332-.718-2.786-.28-1.276-.604-2.749-.921-3.86.1-.068.2-.19.288-.351.202-.367.29-.494.778-1.196l.023-.033c.375-.541.388-.543.597-.576.07-.011.165-.024.297-.062.017-.003.032-.009.047-.014l.141.322c.558 1.289 1.189 2.749 2.119 4.065.272.386 1.331 2.49.73 3.353-.099.143.039.47.171.786.162.384.328.781.157 1.001-.291.378-.729.621-1.295.87zM83.294 56.181c.319-.327.594-.611.744-1.162a8.102 8.102 0 0 0 .143-3.759c-.201-1.052-1.51-3.348-1.676-3.348l-.027.002-.014.018c-.017.025-.014.059.014.136.601 1.744.69 4.012.198 5.056-.266.564-.442 1.528-.584 2.302-.114.614-.21 1.145-.317 1.313-.091.145-.324.257-.551.362-.174.084-.343.165-.446.261-.198-.205-.393-.401-.576-.586.435-.102.895-.482 1.091-1.313.229-.976.362-1.847.362-3.413 0-.224.002-.429.004-.619.013-1.111.019-1.723-.425-3.037-.21-.62-.32-1.135-.415-1.589-.141-.654-.251-1.172-.594-1.632a7.672 7.672 0 0 1-.318-.475c-.225-.354-.457-.721-.753-.939-.1-.073-.16-.074-.188-.027-.05.081.053.31.3.791.051.099.095.185.12.24.454.997.939 2.518.939 3.796 0 .447.014.88.027 1.298.025.792.049 1.54-.027 2.233-.054.48-.159.834-.252 1.144-.113.379-.212.707-.192 1.161.01.258.061.516.11.766.109.55.195.983-.196 1.125l-.063.026c-.438-.4-1.71-1.277-3.218-2.24.025-.196.032-.431.023-.698-.026-.778.073-1.335.172-1.874.114-.627.223-1.218.092-2.055-.099-.633-.167-.856-.223-1.037-.076-.249-.126-.413-.195-1.547-.091-1.505-1.232-3.544-2.148-5.182-.28-.501-.545-.975-.748-1.375-.823-1.635-.909-1.635-.961-1.635a.06.06 0 0 0-.047.025c-.093.138.458 1.638 1.653 4.742.208.54.404 1.049.549 1.433.572 1.521.628 3.059.678 4.415.009.283.02.553.033.812.049.873.185 1.695.295 2.355.078.472.146.884.164 1.201a83.016 83.016 0 0 0-2.464-1.493 2.08 2.08 0 0 0 .129-.498c.181-1.233.052-3.872-.237-4.868a16.643 16.643 0 0 0-.518-1.472 20.848 20.848 0 0 1-.484-1.333c-.081-.255-.141-.46-.193-.642-.17-.6-.255-.9-.808-1.664a12.424 12.424 0 0 0-.885-1.073c-.325-.362-.606-.676-.868-1.12-.244-.412-.597-.862-.936-1.298-.335-.429-.681-.871-.91-1.263-.203-.347-.39-.653-.581-.911l.024.01c1.298.484 2.154.805 2.542.805a.368.368 0 0 0 .13-.019c.112-.039.254-.058.433-.058.333 0 .743.066 1.179.137.347.056.702.114 1.033.14.095.113.289.269.591.504.428.337 1.015.796 1.415 1.29 1.4 1.73 1.932 3.219 2.249 4.108.12.336.207.581.302.729.432.674.692 1.153.817 1.383.102.188.102.188.134.188h.023l.012-.018c.019-.023.019-.023-.05-.243a25.057 25.057 0 0 1-.358-1.242c-.336-1.273-.677-1.829-1.036-2.418a8.401 8.401 0 0 1-.665-1.258c-.479-1.145-1.808-2.557-2.596-3.064a.842.842 0 0 0 .439-.242c.036-.039.113-.147.228-.31.206.048.621.066 1.333.089.881.028 1.977.063 2.231.25.015.011.031.02.046.028-.321.73-.492 1.336-.434 1.716.132.86 1.027 1.86 2.16 3.126.665.741 1.417 1.58 2.121 2.519 1.724 2.294 3.309 5.543 5.681 11.839a.089.089 0 0 0-.056.029.054.054 0 0 0-.009.025 3.198 3.198 0 0 1-.38.147c-.433.152-1.086.384-1.463.686-.32.256-.709.871-1.12 1.522-.316.501-.643 1.016-.96 1.409-.368-.4-.761-.823-1.154-1.244.405-1.423.93-1.962 1.356-2.399zm.307 11.723c-.006-.002-.011-.004-.017-.004-.029 0-.104 0-.484.461a7.252 7.252 0 0 1-.305.347c-.215.233-.344.375-.493.772-.032.087-.114.129-.251.129-.233 0-.573-.126-.846-.227-.205-.077-.369-.138-.46-.138a.1.1 0 0 0-.019.002c-.584-1.03-1.132-1.82-1.369-2.055a45.843 45.843 0 0 1-.538-.549c.373.22.79.356 1.088.356.28 0 .442-.123.442-.338 0-.901.175-1.258.698-1.872.171-.2.28-.313.351-.39a.277.277 0 0 0 .034-.035c.412.69.866 1.288 1.351 1.538.118.065.355.693.818 2.003zm3.23 9.906a.57.57 0 0 1-.18.431c-.26.225-.223.463-.186.713.037.241.075.491-.13.745a5.47 5.47 0 0 0-.3.409c-.201.292-.334.487-.714.616a.463.463 0 0 1-.149.026c-.211 0-.369-.161-.521-.314-.147-.149-.288-.292-.469-.292a.346.346 0 0 0-.089.012.292.292 0 0 1-.07.009c-.211 0-.303-.248-.409-.534-.141-.386-.317-.864-.835-.937-.382-.056-.321-.556-.222-1.385.09-.736.211-1.745.103-2.963-.114-1.264-.754-2.842-1.451-4.202h.024c.149 0 .34-.012.542-.024.162-.011.33-.021.483-.025.319-.011.37-.158.428-.332.049-.143.109-.322.344-.505.289-.228.3-.265.293-.373-.005-.07-.011-.176.146-.476.112-.214.157-.327.172-.394l.029.081c.344.979.701 1.99.88 2.278.05.078.095.393.185 1.037.211 1.517.604 4.341 1.496 5.208.393.382.612.816.6 1.191zm-6.407-14.069c-.251.46-.381.625-.665.987l-.176.224c-.219.281-.863.372-1.335.439a3.139 3.139 0 0 0-.493.091c-1.017-1.169-1.815-2.267-2.618-3.427.189-.096.45-.19.804-.206a6.48 6.48 0 0 1 .31-.008c.546 0 .996.067 1.358.123.258.037.482.071.674.071.407 0 1.081-.437 1.413-.856.066.098.133.195.198.297.199.308.421.752.678 1.266.097.191.195.39.299.592a.952.952 0 0 0-.447.407zM67.24 49.801c.004-.01.006-.019.012-.028.146-.295.524-.461.926-.635.609-.267 1.298-.566 1.343-1.403.047-.908-.149-1.14-.421-1.46a3.003 3.003 0 0 1-.457-.668c-.249-.498-.2-.64-.132-.838.061-.175.136-.394.053-.896-.174-1.067-.479-1.885-.944-2.935-.306-.687-1.609-2.732-2.193-3.198-.217-.174-.261-.188-.291-.188a.056.056 0 0 0-.047.026c-.024.048.015.114.253.46.11.161.247.362.387.582.469.744.511.864.844 1.807l.024.07c.224.634.233.791.257 1.171.012.214.03.509.096 1.001.034.272.062.466.081.614.063.474.063.474.11 1.075l.043.548c.113 1.412.113 1.412-.622 3.093l-.081.187c-.301.689-.434 1.153-.465 1.49a11.27 11.27 0 0 0-1.088-.008c-.096.004-.19.01-.285.016-.005-.255-.006-.496.268-.754.596-.562.946-1.954.887-2.852-.035-.521-.28-.536-.459-.546-.069-.004-.13-.007-.155-.04-.025-.031-.03-.097-.015-.191.105-.644-.356-3.866-1.442-5.373-.548-.761-1.112-1.394-1.71-2.063-.558-.624-1.135-1.271-1.733-2.064-.066-.088-.116-.127-.162-.127a.08.08 0 0 0-.063.031c-.033.042-.121.151.188 1.512.151.664.409 1.117.656 1.557.154.275.315.56.45.894.369.913.901 2.291 1.296 3.418.376 1.075.329 1.91.288 2.648-.03.527-.058 1.026.07 1.54.412 1.645.147 2.241-.135 2.607-.501.076-1.008.163-1.527.253-.554.095-1.131.194-1.742.286l.143-.2c.504-.716.565-.949.701-1.462l.104-.384c.188-.656.222-1.607.246-2.303.007-.18.013-.339.021-.466.002-.046-.007-.08-.026-.102a.078.078 0 0 0-.06-.024c-.229 0-.973 1.01-1.215 1.527-.334.71-1.178 2.419-1.806 2.961-.333.285-.564.536-.703.755-.563.045-1.16.076-1.793.09a3.21 3.21 0 0 0 .675-.791c.389-.631.985-1.358 1.509-2.002.416-.508.775-.947.908-1.194.125-.231.272-.351.416-.467.189-.153.369-.299.472-.678.179-.654.534-2.54.354-3.321-.099-.428-.291-.609-.476-.783-.157-.149-.306-.29-.41-.576-.092-.252-.092-.357-.092-.459 0-.163 0-.304-.323-.909-.202-.38-.418-.808-.626-1.224-.343-.681-.696-1.384-1.024-1.939a6.463 6.463 0 0 1-.475-.998 8.157 8.157 0 0 0-.765-1.513c-.319-.506-.492-.953-.631-1.312-.044-.111-.084-.214-.124-.308.195.04.39.081.58.122a.09.09 0 0 0-.002.018c-.001.089.107.147.302.252.189.103.45.244.73.479.7.586.848.824 1.208 1.487.305.564 1.377 2.214 2.117 2.526a.25.25 0 0 0 .106.027c.052 0 .072-.028.081-.045.078-.159-.403-.803-1.203-1.844-.356-.464-.693-.901-.849-1.15-.097-.157-.183-.301-.262-.433-.225-.371-.402-.666-.642-.963a77.205 77.205 0 0 1 8.867 2.662c.349.372.556.732.771 1.107.225.389.455.79.862 1.253.868.99 1.603 2.33 1.825 3.337.156.696.593 1.277 1.016 1.84.23.303.447.591.61.887.224.4.352.816.476 1.219.129.423.251.823.471 1.105.263.337.329.548.441.9.061.189.135.425.261.74.07.177.14.336.208.491.266.611.458 1.055.32 1.632-.072.298-.05.586-.029.864.024.311.049.628-.052.978a41.62 41.62 0 0 0-1.384-.755c-.99-.512-2.537-1.03-4.192-1.273zm-15.481.501c.386-.157.784-.319 1.18-.419 1.146-.288 1.072-1.061 1.013-1.683-.022-.231-.043-.416-.06-.566-.079-.68-.079-.68.282-1.322l.124-.225c.337-.604.13-1.782-.109-2.189-.055-.093-.107-.138-.164-.138-.114 0-.147.19-.158.252-.142.819-.826 1.748-1.402 2.266-.362.326-.633.914-.871 1.434-.157.344-.307.668-.462.88-.272.366-.592.437-1.087.437-.08 0-.162-.002-.249-.004-.094-.001-.191-.003-.293-.003a5.1 5.1 0 0 0-.9.072 3.16 3.16 0 0 0-.701.192c-1.615-.838-3.067-2.032-4.047-3.612a12.004 12.004 0 0 1-.894-1.816c.242 0 .538-.185.96-.598.433-.424.856-.733 1.231-1.006.605-.44 1.083-.789 1.269-1.383.237-.762.869-2.782.642-3.885-.129-.624.032-1.783.174-2.805.092-.667.18-1.295.18-1.713 0-.766.026-1.641.047-2.343l.019-.649c.661.418 1.374.841 2.108 1.225a.297.297 0 0 0 .08.133c1.226 1.38 1.426 1.82 1.426 3.147v.386c-.003 1.305-.006 2.928.212 3.525.177.487.229 1.277.031 1.565-.045.064-.099.098-.162.098-.461.009-.932.133-.932.993 0 .157.003.305.007.444.014.636.025 1.094-.291 1.712-.377.736-.587 1.792-.656 2.14l-.009.044c-.009.046-.035.144-.068.27-.173.65-.53 2.005-.288 2.359a.208.208 0 0 0 .15.094h.021c.603 0 2.538-2.875 2.832-3.574.155-.369.087-.767.027-1.116-.078-.449-.144-.837.229-1.086.919-.612.624-2.861.512-3.536-.093-.56-.232-1.172-.366-1.764-.205-.904-.398-1.759-.398-2.292 0-.116.002-.224.004-.326.013-.67.021-1.112-.614-2.023a3.688 3.688 0 0 0-.536-.608c.795.348 1.595.623 2.363.771a.17.17 0 0 0-.018.028l-.009.018.007.018c.133.331.493 1.021.95 1.895 1.03 1.969 2.44 4.665 2.48 5.642.057 1.354.169 2.389.354 3.254.044.207.1.373.148.521.149.449.247.746-.145 1.574a29.142 29.142 0 0 0-1.181 2.832c-.148.399-.213.694-.267.931-.1.445-.16.712-.609 1.204-.242.267-.638.57-1.01.844l-.054-.001a13.18 13.18 0 0 1-2.552-.314l.5-.201zM40.076 33.85l.041.16c.346 1.339 1.251 10.456.25 11.294-.46.386-2.097.572-5.003.572-1.386 0-2.906-.042-4.384-.102-.019-.12-.075-.202-.133-.287-.136-.199-.291-.424.017-1.276.103-.284-.033-1.873-.221-2.141-.024-.033-.052-.052-.081-.052-.068 0-.141.07-.209.581-.233 1.748-.509 2.116-.7 2.116-.131 0-.357-.175-.688-1.006-.334-.843-.288-1.612-.249-2.232.031-.51.055-.912-.136-1.187-.232-.33-.322-.398-.388-.398a.085.085 0 0 0-.061.028c-.066.078-.034.311.044.829.103.674.242 1.596.116 2.379-.181 1.117.324 1.523.693 1.819.27.217.448.359.261.688-.011.021-.021.04-.03.062-.856-.041-1.67-.083-2.402-.121-1.641-.085-2.859-.146-3.09-.114-.301.041-.359.187-.44.388-.153.381-.363.903-2.414.935-.552.009-2.043 1.045-2.68 1.487a26.92 26.92 0 0 1-.217.149c-.139.094-.365.318-.625.58-.545.544-1.166 1.163-1.505 1.127a1.018 1.018 0 0 0-.111-.006c-.277 0-.552.104-.844.212-.343.127-.697.259-1.117.259-.236 0-.466-.042-.702-.128a.682.682 0 0 0-.242-.046c-.175 0-.33.075-.494.153-.198.096-.423.204-.726.204-.049 0-.1-.002-.15-.008-.709-.08-.993-.414-1.422-.923-.043-.051-.087-.104-.134-.157-.279-.326-.486-.336-.685-.348-.157-.008-.317-.017-.493-.173-.304-.271-.458-.542-.47-.823-.015-.327.158-.671.544-1.081.322-.343.349-.6.374-.849.028-.271.054-.529.435-.852.308-.26.688-.346 1.128-.443.424-.096.903-.202 1.423-.494.884-.494 1.756-1.332 2.393-1.945l.355-.338c.329-.309 1.542-.803 2.828-1.325 1.407-.572 2.863-1.164 3.279-1.558.506-.48 3.108-1.437 5.405-2.28.947-.348 1.857-.683 2.515-.946a.06.06 0 0 0 .041.013c.026 0 .099-.002.515-.247l.143-.066a.805.805 0 0 0 .251-.173c1.034-.612 1.683-.753 2.311-.889.499-.106.97-.208 1.586-.544 1.294-.706 2.802-2.014 3.053-3.219.043-.207.075-.307.079-.317l.008-.023-.025-.036-.054.003-.01.028c-.038.109-.943 2.55-5.18 3.718-.508.14-1.214.533-1.783.911-.136-.185-.419-.399-.752-.651a18.91 18.91 0 0 1-.302-.23c.29-.434.605-1.036.775-1.373.708-1.407 1.957-2.695 2.868-3.636.485-.501.868-.896 1.051-1.182.089-.14.097-.188.079-.22-.01-.02-.029-.03-.052-.03-.198 0-1.545 1.333-2.629 2.53-.686.758-2.258 2.556-2.597 3.495a5.147 5.147 0 0 1-.716-.763c.223-.92.636-1.921 1.759-2.987.293-.278.479-.674.735-1.221.231-.495.52-1.111.999-1.876.745-1.19.729-1.22.704-1.265l-.02-.025h-.025c-.038 0-.081.036-.232.18-.136.127-.362.342-.456.342-.011 0-.015-.004-.017-.008-.012-.016-.035-.077.024-.307.322-1.249.732-1.872 1.063-2.374.12-.183.234-.355.325-.534.072-.142.066-.188.049-.216a.064.064 0 0 0-.057-.03c-.208 0-1.227 1.179-1.463 2.318l-.004.021c-.293 1.41-.382 1.836-.732 2.698-.3.737-.858 1.591-1.659 2.538-.048.058-.099.116-.152.178-.402.471-.935 1.09-1.26 1.822a2.68 2.68 0 0 1-.157-.601 41.222 41.222 0 0 1-.139-1.151c.083-.209.182-.399.283-.594.245-.472.498-.957.593-1.786.136-1.18-.004-1.845-.152-2.55-.046-.219-.094-.445-.136-.694-.187-1.128-.739-1.401-1.242-1.569-.45-.149-2.404-.446-2.563-.446-.046 0-.052.031-.053.041-.005.045.021.049.186.083.524.104 2.111.521 2.587.938.451.395.641 1.565.406 2.505-.04.156-.072.31-.105.47-.052.245-.107.504-.193.81-.091-.297-.205-.474-.358-.474a.314.314 0 0 0-.148.044c-1.285.701-1.433 1.556-1.986 4.736l-.139.798c-.589 3.35-3.168 3.933-4.554 4.246-.226.05-.421.096-.574.143-.179.057-.369.114-.563.172-.874.265-1.866.563-2.25.887-.161.136-.332.349-.513.574-.487.608-1.093 1.365-2.061 1.405-.843.034-1.283-.576-1.6-1.02-.151-.212-.283-.395-.394-.395-.833 0-1.447-.373-1.686-1.024-.023-.063-.022-.112.003-.149.025-.036.071-.054.138-.054.061 0 .131.014.199.026a.85.85 0 0 0 .142.02h.011a.206.206 0 0 0-.024-.041c-.223-.312-.329-1.3.019-2.082.16-.361.124-.464.108-.488-.006-.01-.018-.021-.047-.021-.051 0-.258.042-.783.582-.436.449-.766.678-.98.678-.107 0-.185-.056-.224-.162-.155-.425.376-1.56.939-2.762.44-.94.895-1.912.913-2.376a3.605 3.605 0 0 0-.143-1.17c-.07-.274-.13-.51-.089-.824.054-.418.436-.902.84-1.414.5-.634 1.016-1.289.991-1.895-.008-.198-.289-.624-.537-1.001-.303-.461-.458-.707-.403-.811.009-.017.032-.044.084-.044.027 0 .06.006.101.021l.01.004.008.008c.336.377 1.261.908 2.263.908.091 0 .183-.005.272-.014.356-.034.894-.086.922-.208.03-.126-.448-.425-.604-.523l-.041-.025.029-.037c.132-.172.357-.396.596-.635.412-.412.924-.925.881-1.124a38.974 38.974 0 0 0-.069-.312c-.265-1.174-.563-2.506.57-2.775a.359.359 0 0 1 .093-.011c.945 0 2.921 3.179 3.408 4.873.103.358.769.572 1.352.572.417 0 .755-.103.927-.282a.466.466 0 0 0 .131-.357c-.054-1.185-.926-1.783-1.298-2.039-.142-.098-.19-.131-.174-.181.015-.045.069-.045.099-.045.082 0 .244.021.546.061 2.395-.349 4.479-.52 6.37-.52 4.446 0 7.916.91 11.974 3.138l.079.044c.014.037.029.074.047.115.833 1.883.789 2.713.477 4.29-.317 1.602-.739 2.384-1.316 3.127-.441.569-.436.912-.429 1.276.007.392.015.837-.546 1.683-1.699 2.563-2.575 2.614-3.502 2.669-.113.006-1.107.07-1.105.255.001.055.003.155 1.107.185.06.002.119.002.177.002 2.146 0 2.898-1.044 3.625-2.054l.063-.088c.196-.271.379-.496.557-.714.501-.616.897-1.102 1.036-2.032.067-.453.05-.748.036-1.006-.025-.445-.044-.767.401-1.603.701-1.319.869-1.934.748-2.735-.1-.66-.443-2.275-.747-3.006.143.084.292.174.442.266.792.475 1.725 1.033 2.598 1.443a.688.688 0 0 0 .048.109c.789 1.366.744 2.646.579 3.825-.056.399-.093.783-.13 1.155-.081.831-.151 1.549-.391 1.853-.093.117-.127.202-.104.251a.068.068 0 0 0 .061.037c.152 0 .54-.467.77-1.395.378-1.528.495-2.999.347-4.372a2.446 2.446 0 0 0-.406-1.137c.069.025.137.049.204.07.235.076.77.44 1.509.946.348.236.74.505 1.165.785a.406.406 0 0 0 .014.099c.461 1.815.48 2.927.085 4.951-.206 1.056-.264 1.813-.316 2.481-.051.657-.095 1.225-.272 1.871-.351 1.285-1.023 2.731-1.407 3.226-.515.662-1.041.983-1.609.983a2.19 2.19 0 0 1-.487-.064 2.069 2.069 0 0 0-.146-.027c-.815-2.513-1.373-5.447-1.757-7.472-.249-1.309-.445-2.343-.571-2.49-.205-.236-.289-.272-.32-.272-.008 0-.012.002-.017.009-.104.128.099.91.295 1.668zm31.151 22.449c.085-.178.344-.272.746-.272 1.067 0 3.461.742 5.717 2.825l-.014.001a9.895 9.895 0 0 1-.574.041h-.032c-.591 0-1.862-.352-2.387-.661-.508-.299-2.078-.831-2.976-.975l-.334-.426c-.207-.262-.194-.434-.146-.533zm7.93 4.507c-.122.087-.857.353-1.521.353-.083 0-.161-.005-.237-.012a3.325 3.325 0 0 0-.391-.018c-.222 0-.478.01-.749.02-.291.011-.592.021-.867.021-.188 0-.743 0-.945-.115-.426-.623-.86-1.254-1.337-1.92a.777.777 0 0 1 .252-.216.321.321 0 0 1 .142-.026c.308 0 .888.225 1.504.46.729.281 1.557.599 2.086.599.084 0 .158-.008.224-.022.58-.137.855-.208 1.107-.341.315.34.625.708.923 1.108-.089.043-.161.09-.191.109zm13.592-35.42l.034.083c.06.144.1.238.054.307-.032.049-.099.07-.223.07-.098 0-.239-.013-.459-.042a24.017 24.017 0 0 0-1.198-.121c.004-.011.009-.02.014-.03.091-.235.095-.423.01-.572a.497.497 0 0 0-.107-.129c.109.015.2.024.269.029.178.012.335.02.477.025.704.035.997.049 1.129.38zm-3.842-.023c.072-.212.065-.501-.152-.71.359.039.704.086 1.017.131a.719.719 0 0 0 .077.118c.109.151.275.381.217.676a.274.274 0 0 0-.004.05 22.157 22.157 0 0 0-1.06-.024l-.229.002a.77.77 0 0 0 .134-.243zm-1.467-.746c.098.454.353.815.619 1.009-.399.02-.767.052-1.103.098a.598.598 0 0 0 .053-.354c-.048-.422-.317-.683-.766-.751a8.024 8.024 0 0 1 1.195-.055c0 .018 0 .035.002.053zm-2.494.363c.01.02.03.038.074.051.703.197.791.581.844.811.008.035.017.068.026.099a4.9 4.9 0 0 0-.266.086c-.186.066-.458.268-.794.577a.05.05 0 0 1 .004-.013c.063-.244.047-.442-.052-.606-.167-.274-.54-.392-.848-.464-.006-.002-.013-.002-.019-.003a9.416 9.416 0 0 1 1.031-.538zm-4.564 3.432a.196.196 0 0 0 .058.03.79.79 0 0 0 .251.04c.314 0 .598-.165.666-.207.43.078 1.099.489 1.265.7a.175.175 0 0 0 .039.033 49.41 49.41 0 0 0-1.147 1.474c-.206-1.019-.66-1.126-1.659-1.126h-.119c-.108.001-.21.02-.303.048.321-.348.637-.68.949-.992zm-1.704 1.834l.193-.22.011-.001c.697 0 1.904.653 2.045.783.037.033.123.108.221.168-.165.224-.329.451-.495.684-.029.043-.061.086-.091.129.014-.198-.089-.377-.529-.586-.345-.163-.808-.258-1.27-.258-.303 0-.57.041-.779.113.226-.269.456-.54.694-.812zm-1.705 2.06c.047-.005.113-.037.238-.098.276-.135.74-.361 1.277-.361.313 0 .61.078.886.231.226.127.394.257.528.363l.137.103c-.342.505-.68 1.02-.995 1.527a2.036 2.036 0 0 0-.482-.378c-.155-.088-.442-.137-.79-.137-.816 0-1.968.272-2.529 1.043l-.002.002a68.784 68.784 0 0 1 1.732-2.295zm-2.33 3.132a.685.685 0 0 0 .255.045c.33 0 .785-.148 1.09-.295.287-.138.729-.22 1.179-.22.308 0 .759.038 1.165.221l.038.017a21.67 21.67 0 0 0-.38.694c-.022-.005-.047-.008-.074-.005a3.796 3.796 0 0 1-.339.011c-.153 0-.335-.004-.538-.007-.248-.004-.528-.01-.817-.01-.639 0-1.479.023-2.028.189l.449-.64zm8.239-9.224c.849.048 1.392.851 1.397.859l.014.013a.19.19 0 0 0 .032.014c-.38.395-.813.881-1.276 1.436l-.006-.023c-.264-.805-.743-1.337-1.17-1.296-.085.008-.223.06-.38.139.478-.429.941-.81 1.389-1.142zm3.86 30.445zm-2.529 3.788c.094-.118.199-.253.323-.401l.057-.067c.537-.641.537-.641.771-1.275l.041-.113c.237-.638.288-.695.682-1.15l.265-.31.155-.184c.157-.188.205-.244.228-.244h.008c.058 0 .148-.02.395-.172.042-.025.078-.051.111-.076.315.843.645 1.737.988 2.69-.022.045-.034.096-.04.121a1.906 1.906 0 0 0-.05.437c-.006.256-.008.409-.582 1.111-.903 1.108-1.672 1.274-2.049 1.274-.109 0-.214-.014-.313-.04a.404.404 0 0 0-.113-.015 7.905 7.905 0 0 0-.234-.272l-.066-.073-.837-.922c.071-.079.155-.185.26-.319zm1.641 2.59l.117-.016c.434-.06 1.09-.149 1.649-.47.632-.36 1.122-1.099 1.19-1.795l.001-.011.375 1.054c.061.173.125.264.188.31-.104.159-.175.472-.029.844.312.803.266 1.305-.199 2.151-.116.214-.483.208-.821.203l-.158-.002c-.099 0-.227 0-.338.025a16.61 16.61 0 0 0-.421-.369c-.481-.409-.93-1.041-1.404-1.709l-.153-.216.003.001zm2.748 2.854c.202-.033.412-.067.585-.067.601 0 .807-.563.945-1.473a3.954 3.954 0 0 0-.246-2.119.672.672 0 0 0-.076-.143c.125-.039.267-.084.423-.084.079 0 .152.011.228.033.371.109.498.534.689 1.179.211.711.501 1.684 1.28 2.8.236.341.466.793.704 1.321a.077.077 0 0 0-.072-.046c-.13 0-.438.268-.896.678a7.835 7.835 0 0 1-.45.384c-.181.126-.478.489-.641.897a3.757 3.757 0 0 0-.247-.546c-.541-.906-1.533-1.975-2.377-2.79.05-.009.101-.017.151-.024z"></path><path d="M18.693 31.698c-.095-.188-.353-.318-.579-.432-.159-.079-.323-.162-.348-.234-.117-.342-.149-.734-.18-1.113-.048-.577-.092-1.122-.417-1.483-.211-.235-.454-.42-.688-.598-.348-.264-.648-.492-.716-.799-.064-.289-.02-.37.031-.465a.645.645 0 0 0 .087-.351c0-.263-.333-.566-.476-.684-.22-.182-.516-.365-.66-.365a.102.102 0 0 0-.04.007c-.112.036-.084.16-.053.304.042.189.099.447-.032.741-.07.158-.085.275-.096.36-.025.193-.032.246-.758.419-.15.037-.305.055-.46.055-.503 0-.941-.198-.994-.451-.04-.181.131-.367.479-.523.181-.082.18-.188.171-.231-.019-.087-.113-.149-.229-.149-.075 0-.265.029-.41.296a1.027 1.027 0 0 0-.101.349c-.029.184-.043.286-.277.303-.265.019-.475.131-.478.256-.002.066.049.151.299.183.048.006.099.009.148.009.124 0 .228-.019.311-.032a.809.809 0 0 1 .139-.02c.044 0 .086 0 .086.145 0 .108-.068.331-.134.545-.129.421-.201.684-.125.786.051.069.149.057.306-.061.622-.464.923-.531 1.143-.581a.804.804 0 0 0 .358-.147c.073-.057.127-.051.162.026.053.12.035.398-.132.604-.257-.148-.629-.123-1.065.068-.253.11-.648.41-.466 1.177.049.206-.206.497-.476.805-.292.333-.594.677-.586.995.005.189.116.216.181.217.409-.001 1.454-1.078 1.781-1.488l.122-.149c.079-.095.091-.109.076-.141l-.016-.026h-.027a.148.148 0 0 0-.046.011.548.548 0 0 1-.167.029.414.414 0 0 1-.245-.08c-.177-.123-.173-.159-.173-.161.006-.02.104-.045.161-.059.152-.04.36-.093.437-.268.035-.079.058-.153.08-.218.068-.214.107-.334.459-.377.107.385-.172.78-.43 1.048l-.07.072h.101c.404 0 .703.317.81.613.059.16.053.299-.013.354-.127.105-.229.266-.336.434-.159.249-.323.506-.576.589a1.817 1.817 0 0 1-.209.028c-.059 0-.094.001-.094.045l.005.043h.043a.741.741 0 0 0 .049-.003h.026c.07 0 .137-.01.201-.029.333-.063.943-.248 1.3-.792.292-.444.357-1.039.19-1.764-.117-.513-.097-.677-.058-.725.008-.01.017-.014.031-.014.092 0 .283.174.452.328.245.223.501.449.665.401a.32.32 0 0 1 .092-.014c.315 0 .631.424.805.843.167.402.191.76.063.89-.126.126-.503.237-.902.355-.688.203-1.467.434-1.428.869.044.48.177.725.394.725.092 0 .197-.048.311-.142.069-.059.164-.15.274-.257.369-.358.926-.898 1.283-.898.083 0 .147.03.199.09.748.879.605 1.112.441 1.383-.076.124-.162.265-.172.474-.016.345.016.555.098.641a.139.139 0 0 0 .101.045c.247 0 .597-.695.711-1.265.075-.374.168-.608.238-.779.092-.233.147-.372.038-.592z"></path><path d="M19.457 28.142a11.901 11.901 0 0 0-.098-.455c-.128-.545-.576-.849-.971-1.118-.35-.238-.652-.444-.678-.761-.017-.206-.058-.443-.232-.443-.086 0-.178.061-.276.125-.122.08-.251.16-.337.108-.254-.154-.466-.347-.688-.551-.343-.313-.698-.635-1.217-.809a.85.85 0 0 0-.218-.056c-.044 0-.059.023-.064.038-.021.057.041.11.368.382.949.788 3.47 2.883 4.207 6.241.258 1.177.179 1.387.047 1.734-.116.306-.275.727-.261 2.013.004.365.136.443.245.443.31 0 .855-.659 1.426-1.719.826-1.533.628-1.927-.342-3.344-.768-1.119-.798-1.269-.911-1.828zM23.026 29.066c-.347-.214-.599-.219-.842-.223-.304-.006-.567-.011-.98-.423-.239-.239-.554-.646-.887-1.077-.48-.621-.976-1.263-1.328-1.509-.107-.076-.147-.086-.172-.086s-.045.013-.055.033c-.047.099.233.473 1.225 1.706.453.564.922 1.147 1.209 1.554.136.19.378.214.658.24.473.044 1.062.1 1.493.968.035.071.076.107.122.107.029 0 .082-.017.111-.122.068-.245-.023-.841-.554-1.168z"></path></g><!----></svg>