<svg data-v-fde0c5aa="" xmlns="http://www.w3.org/2000/svg" viewBox="0 0 300 300" class="font"><!----><defs data-v-fde0c5aa=""><linearGradient data-v-fde0c5aa="" gradientTransform="rotate(25)" id="187e1abb-04f5-4c2f-905a-e4380fc74c29" x1="0%" y1="0%" x2="100%" y2="0%"><stop data-v-fde0c5aa="" offset="0%" stop-color="#b46000" stop-opacity="1"></stop><stop data-v-fde0c5aa="" offset="100%" stop-color="#090301" stop-opacity="1"></stop></linearGradient></defs><rect data-v-fde0c5aa="" fill="url(#187e1abb-04f5-4c2f-905a-e4380fc74c29)" x="0" y="0" width="300px" height="300px" class="logo-background-square"></rect><defs data-v-fde0c5aa=""><!----></defs><g data-v-fde0c5aa="" id="57f2ed33-1c41-4093-a9bf-295790ec4838" fill="#FFFFFF" transform="matrix(1.9606095873361704,0,0,1.9606095873361704,40,125.0806516027202)"><path d="M0.32 3.82L0.32 3.82L0.32 3.82Q0.32 2.72 0.76 1.98L0.76 1.98L0.76 1.98Q1.20 1.25 1.85 0.81L1.85 0.81L1.85 0.81Q2.49 0.38 3.23 0.20L3.23 0.20L3.23 0.20Q3.98 0.01 4.56 0.01L4.56 0.01L4.56 0.01Q5.04 0.01 5.34 0.08L5.34 0.08L5.34 0.08Q5.64 0.14 6.02 0.14L6.02 0.14L6.02 0.14Q6.23 0.14 6.39 0.13L6.39 0.13L6.39 0.13Q6.55 0.11 6.66 0.08L6.66 0.08L6.66 0.08Q6.79 0.06 6.87 0.01L6.87 0.01L6.87 0.01Q6.43 0.80 6.25 1.67L6.25 1.67L6.25 1.67Q6.08 2.53 6.15 3.22L6.15 3.22L6.02 3.22L6.02 3.22Q6.02 2.67 5.78 2.24L5.78 2.24L5.78 2.24Q5.53 1.81 5.12 1.50L5.12 1.50L5.12 1.50Q4.70 1.20 4.17 1.04L4.17 1.04L4.17 1.04Q3.63 0.87 3.02 0.87L3.02 0.87L3.02 0.87Q2.83 0.87 2.55 0.95L2.55 0.95L2.55 0.95Q2.27 1.04 2.02 1.23L2.02 1.23L2.02 1.23Q1.76 1.43 1.58 1.75L1.58 1.75L1.58 1.75Q1.40 2.07 1.40 2.55L1.40 2.55L1.40 2.55Q1.40 3.18 1.65 3.69L1.65 3.69L1.65 3.69Q1.90 4.20 2.31 4.64L2.31 4.64L2.31 4.64Q2.72 5.08 3.24 5.46L3.24 5.46L3.24 5.46Q3.77 5.84 4.32 6.22L4.32 6.22L4.32 6.22Q4.87 6.59 5.40 6.99L5.40 6.99L5.40 6.99Q5.92 7.39 6.33 7.85L6.33 7.85L6.33 7.85Q6.73 8.32 6.99 8.86L6.99 8.86L6.99 8.86Q7.24 9.41 7.24 10.09L7.24 10.09L7.24 10.09Q7.24 10.89 7.01 11.49L7.01 11.49L7.01 11.49Q6.79 12.10 6.43 12.53L6.43 12.53L6.43 12.53Q6.08 12.96 5.62 13.24L5.62 13.24L5.62 13.24Q5.17 13.52 4.69 13.69L4.69 13.69L4.69 13.69Q4.21 13.86 3.77 13.92L3.77 13.92L3.77 13.92Q3.32 13.99 2.98 13.99L2.98 13.99L2.98 13.99Q2.56 13.99 2.23 13.96L2.23 13.96L2.23 13.96Q1.90 13.94 1.64 13.92L1.64 13.92L1.64 13.92Q1.37 13.89 1.16 13.87L1.16 13.87L1.16 13.87Q0.94 13.85 0.73 13.85L0.73 13.85L0.73 13.85Q0.62 13.85 0.49 13.88L0.49 13.88L0.49 13.88Q0.36 13.92 0.25 13.94L0.25 13.94L0.25 13.94Q0.11 13.99 0 14.03L0 14.03L0 14.03Q0.29 13.73 0.45 13.23L0.45 13.23L0.45 13.23Q0.59 12.80 0.61 12.09L0.61 12.09L0.61 12.09Q0.63 11.38 0.36 10.33L0.36 10.33L0.59 10.33L0.59 10.33Q0.59 10.84 0.91 11.35L0.91 11.35L0.91 11.35Q1.23 11.86 1.76 12.28L1.76 12.28L1.76 12.28Q2.28 12.70 2.94 12.96L2.94 12.96L2.94 12.96Q3.60 13.22 4.26 13.22L4.26 13.22L4.26 13.22Q4.59 13.22 4.94 13.15L4.94 13.15L4.94 13.15Q5.29 13.09 5.58 12.90L5.58 12.90L5.58 12.90Q5.87 12.71 6.05 12.35L6.05 12.35L6.05 12.35Q6.23 11.98 6.23 11.37L6.23 11.37L6.23 11.37Q6.23 10.75 5.98 10.25L5.98 10.25L5.98 10.25Q5.73 9.76 5.31 9.34L5.31 9.34L5.31 9.34Q4.89 8.93 4.36 8.57L4.36 8.57L4.36 8.57Q3.84 8.20 3.28 7.84L3.28 7.84L3.28 7.84Q2.72 7.48 2.19 7.08L2.19 7.08L2.19 7.08Q1.67 6.69 1.25 6.22L1.25 6.22L1.25 6.22Q0.83 5.74 0.57 5.15L0.57 5.15L0.57 5.15Q0.32 4.56 0.32 3.82ZM14.81 9.52L14.81 9.52L14.81 9.52Q14.92 9.79 15.13 10.30L15.13 10.30L15.13 10.30Q15.34 10.82 15.57 11.35L15.57 11.35L15.57 11.35Q15.81 11.89 16.03 12.29L16.03 12.29L16.03 12.29Q16.25 12.70 16.41 12.73L16.41 12.73L16.41 12.73Q15.99 12.96 15.53 13.30L15.53 13.30L15.53 13.30Q15.08 13.64 14.74 14L14.74 14L14.74 14Q14.67 13.69 14.49 13.14L14.49 13.14L14.49 13.14Q14.31 12.59 14 11.93L14 11.93L14 11.93Q13.73 12.19 13.33 12.55L13.33 12.55L13.33 12.55Q12.92 12.91 12.46 13.23L12.46 13.23L12.46 13.23Q12.00 13.55 11.50 13.78L11.50 13.78L11.50 13.78Q11.00 14 10.56 14L10.56 14L10.56 14Q10.23 14 9.89 13.91L9.89 13.91L9.89 13.91Q9.55 13.82 9.27 13.64L9.27 13.64L9.27 13.64Q8.99 13.47 8.81 13.22L8.81 13.22L8.81 13.22Q8.64 12.96 8.64 12.64L8.64 12.64L8.64 12.64Q8.64 12.25 9.04 11.80L9.04 11.80L9.04 11.80Q9.45 11.35 10.05 10.91L10.05 10.91L10.05 10.91Q10.65 10.47 11.35 10.05L11.35 10.05L11.35 10.05Q12.05 9.63 12.64 9.27L12.64 9.27L12.64 9.27Q12.21 8.72 11.82 8.48L11.82 8.48L11.82 8.48Q11.44 8.23 10.98 8.23L10.98 8.23L10.98 8.23Q10.78 8.23 10.46 8.34L10.46 8.34L10.46 8.34Q10.15 8.46 9.86 8.60L9.86 8.60L9.86 8.60Q9.49 8.75 9.13 8.95L9.13 8.95L9.13 8.95Q9.91 8.41 10.64 7.98L10.64 7.98L10.64 7.98Q10.95 7.80 11.27 7.63L11.27 7.63L11.27 7.63Q11.59 7.46 11.89 7.32L11.89 7.32L11.89 7.32Q12.19 7.18 12.45 7.10L12.45 7.10L12.45 7.10Q12.71 7.01 12.89 7.01L12.89 7.01L12.89 7.01Q13.24 7.01 13.54 7.31L13.54 7.31L13.54 7.31Q13.85 7.62 14.09 8.03L14.09 8.03L14.09 8.03Q14.34 8.44 14.51 8.86L14.51 8.86L14.51 8.86Q14.69 9.28 14.81 9.52ZM12.07 12.64L12.07 12.64L12.07 12.64Q12.40 12.64 12.71 12.54L12.71 12.54L12.71 12.54Q13.02 12.45 13.25 12.26L13.25 12.26L13.25 12.26Q13.48 12.08 13.62 11.83L13.62 11.83L13.62 11.83Q13.76 11.58 13.76 11.28L13.76 11.28L13.76 11.28Q13.65 11.10 13.52 10.88L13.52 10.88L13.52 10.88Q13.40 10.67 13.29 10.47L13.29 10.47L13.29 10.47Q13.17 10.22 13.05 9.99L13.05 9.99L13.05 9.99Q12.94 9.76 12.81 9.60L12.81 9.60L12.81 9.60Q12.50 9.72 12.06 9.92L12.06 9.92L12.06 9.92Q11.62 10.12 11.21 10.39L11.21 10.39L11.21 10.39Q10.81 10.67 10.52 10.99L10.52 10.99L10.52 10.99Q10.23 11.31 10.23 11.66L10.23 11.66L10.23 11.66Q10.23 11.86 10.38 12.03L10.38 12.03L10.38 12.03Q10.53 12.21 10.77 12.34L10.77 12.34L10.77 12.34Q11.02 12.47 11.35 12.56L11.35 12.56L11.35 12.56Q11.69 12.64 12.07 12.64ZM17.19 8.26L17.19 8.26L17.19 8.26Q17.09 8.23 17.02 8.21L17.02 8.21L17.02 8.21Q16.94 8.19 16.88 8.16L16.88 8.16L16.88 8.16Q16.83 8.15 16.77 8.13L16.77 8.13L16.77 8.13Q16.72 8.13 16.88 8.06L16.88 8.06L16.88 8.06Q17.04 7.98 17.30 7.83L17.30 7.83L17.30 7.83Q17.56 7.69 17.85 7.48L17.85 7.48L17.85 7.48Q18.14 7.27 18.35 6.99L18.35 6.99L18.35 6.99Q18.54 7.48 18.80 7.96L18.80 7.96L18.80 7.96Q19.07 8.44 19.39 8.99L19.39 8.99L19.39 8.99Q19.77 8.54 20.20 8.17L20.20 8.17L20.20 8.17Q20.64 7.80 21.04 7.54L21.04 7.54L21.04 7.54Q21.45 7.28 21.81 7.13L21.81 7.13L21.81 7.13Q22.18 6.99 22.41 6.99L22.41 6.99L22.41 6.99Q22.71 6.99 23.02 7.07L23.02 7.07L23.02 7.07Q23.32 7.15 23.59 7.28L23.59 7.28L23.59 7.28Q23.86 7.41 24.07 7.56L24.07 7.56L24.07 7.56Q24.29 7.71 24.40 7.87L24.40 7.87L24.40 7.87Q24.39 8.11 24.16 8.56L24.16 8.56L24.16 8.56Q23.93 9.02 23.58 9.59L23.58 9.59L23.58 9.59Q23.23 10.16 22.80 10.81L22.80 10.81L22.80 10.81Q22.37 11.45 21.95 12.05L21.95 12.05L21.95 12.05Q21.53 12.66 21.16 13.17L21.16 13.17L21.16 13.17Q20.79 13.68 20.55 14L20.55 14L20.55 14Q20.38 13.61 20.10 13.03L20.10 13.03L20.10 13.03Q19.81 12.46 19.46 11.83L19.46 11.83L19.46 11.83Q19.11 11.20 18.75 10.57L18.75 10.57L18.75 10.57Q18.38 9.94 18.06 9.44L18.06 9.44L18.06 9.44Q17.74 8.93 17.51 8.61L17.51 8.61L17.51 8.61Q17.28 8.29 17.19 8.26ZM21.29 7.80L21.29 7.80L21.29 7.80Q21.13 7.80 20.89 7.94L20.89 7.94L20.89 7.94Q20.65 8.08 20.40 8.29L20.40 8.29L20.40 8.29Q20.15 8.50 19.92 8.74L19.92 8.74L19.92 8.74Q19.70 8.97 19.54 9.16L19.54 9.16L19.54 9.16Q20.02 9.98 20.44 10.77L20.44 10.77L20.44 10.77Q20.86 11.55 21.46 12.33L21.46 12.33L21.46 12.33Q21.81 11.94 22.13 11.45L22.13 11.45L22.13 11.45Q22.44 10.95 22.65 10.46L22.65 10.46L22.65 10.46Q22.86 9.97 22.94 9.53L22.94 9.53L22.94 9.53Q23.02 9.09 22.89 8.81L22.89 8.81L22.89 8.81Q22.83 8.64 22.69 8.46L22.69 8.46L22.69 8.46Q22.55 8.27 22.34 8.13L22.34 8.13L22.34 8.13Q22.13 7.98 21.87 7.89L21.87 7.89L21.87 7.89Q21.60 7.80 21.29 7.80ZM28.06 5.24L28.06 5.24L28.06 5.24Q27.87 5.38 27.69 5.53L27.69 5.53L27.69 5.53Q27.54 5.67 27.35 5.85L27.35 5.85L27.35 5.85Q27.16 6.03 27.01 6.23L27.01 6.23L27.01 6.23Q26.85 5.98 26.68 5.80L26.68 5.80L26.68 5.80Q26.52 5.61 26.36 5.49L26.36 5.49L26.36 5.49Q26.19 5.33 26.03 5.24L26.03 5.24L26.03 5.24Q26.21 5.10 26.38 4.94L26.38 4.94L26.38 4.94Q26.53 4.80 26.70 4.62L26.70 4.62L26.70 4.62Q26.87 4.44 27.01 4.23L27.01 4.23L27.01 4.23Q27.16 4.47 27.34 4.65L27.34 4.65L27.34 4.65Q27.52 4.84 27.68 4.97L27.68 4.97L27.68 4.97Q27.86 5.12 28.06 5.24ZM25.80 8.12L25.80 8.12L25.80 8.12Q26.14 7.98 26.44 7.88L26.44 7.88L26.44 7.88Q26.74 7.77 27.01 7.65L27.01 7.65L27.01 7.65Q27.29 7.53 27.54 7.38L27.54 7.38L27.54 7.38Q27.80 7.24 28.06 7.01L28.06 7.01L28.06 7.01Q28.17 7.39 28.15 7.93L28.15 7.93L28.15 7.93Q28.14 8.47 28.09 9.06L28.09 9.06L28.09 9.06Q28.04 9.66 28.03 10.26L28.03 10.26L28.03 10.26Q28.01 10.86 28.13 11.35L28.13 11.35L28.13 11.35Q28.25 11.84 28.55 12.17L28.55 12.17L28.55 12.17Q28.85 12.50 29.46 12.56L29.46 12.56L29.46 12.56Q28.85 12.95 28.43 13.30L28.43 13.30L28.43 13.30Q28 13.65 27.58 14.01L27.58 14.01L27.58 14.01Q27.45 13.96 27.30 13.89L27.30 13.89L27.30 13.89Q27.15 13.82 27.01 13.69L27.01 13.69L27.01 13.69Q26.87 13.55 26.76 13.35L26.76 13.35L26.76 13.35Q26.66 13.15 26.64 12.82L26.64 12.82L26.64 12.82Q26.66 11.87 26.68 11.01L26.68 11.01L26.68 11.01Q26.71 10.15 26.66 9.50L26.66 9.50L26.66 9.50Q26.60 8.85 26.41 8.48L26.41 8.48L26.41 8.48Q26.22 8.11 25.80 8.12ZM38.26 10.01L38.26 10.01L38.26 10.01Q38.26 11.00 37.93 11.75L37.93 11.75L37.93 11.75Q37.60 12.50 37.21 13.01L37.21 13.01L37.21 13.01Q36.75 13.59 36.16 14.01L36.16 14.01L36.16 14.01Q36.39 13.66 36.57 13.24L36.57 13.24L36.57 13.24Q36.72 12.88 36.85 12.42L36.85 12.42L36.85 12.42Q36.97 11.96 36.97 11.44L36.97 11.44L36.97 11.44Q36.97 10.81 36.72 10.22L36.72 10.22L36.72 10.22Q36.47 9.63 36.05 9.18L36.05 9.18L36.05 9.18Q35.63 8.72 35.08 8.44L35.08 8.44L35.08 8.44Q34.52 8.16 33.92 8.16L33.92 8.16L33.92 8.16Q33.63 8.16 33.35 8.23L33.35 8.23L33.35 8.23Q33.07 8.30 32.89 8.48L32.89 8.48L32.89 8.48Q32.89 8.78 32.87 9.27L32.87 9.27L32.87 9.27Q32.84 9.77 32.84 10.42L32.84 10.42L32.84 10.42Q32.84 11.06 32.88 11.82L32.88 11.82L32.88 11.82Q32.91 12.57 33.04 13.38L33.04 13.38L33.04 13.38Q32.55 13.38 32.07 13.58L32.07 13.58L32.07 13.58Q31.58 13.78 31.29 14.01L31.29 14.01L31.29 14.01Q31.30 13.75 31.33 13.24L31.33 13.24L31.33 13.24Q31.36 12.73 31.37 12.10L31.37 12.10L31.37 12.10Q31.39 11.48 31.38 10.82L31.38 10.82L31.38 10.82Q31.37 10.16 31.32 9.61L31.32 9.61L31.32 9.61Q31.26 9.06 31.16 8.68L31.16 8.68L31.16 8.68Q31.05 8.30 30.87 8.25L30.87 8.25L30.87 8.25Q30.63 8.15 30.39 8.15L30.39 8.15L30.39 8.15Q30.27 8.15 30.16 8.16L30.16 8.16L30.16 8.16Q30.63 7.85 31.07 7.60L31.07 7.60L31.07 7.60Q31.43 7.39 31.81 7.22L31.81 7.22L31.81 7.22Q32.19 7.04 32.40 7.04L32.40 7.04L32.40 7.04Q32.58 7.04 32.68 7.07L32.68 7.07L32.68 7.07Q32.77 7.10 32.82 7.21L32.82 7.21L32.82 7.21Q32.87 7.32 32.88 7.55L32.88 7.55L32.88 7.55Q32.89 7.77 32.89 8.16L32.89 8.16L32.89 8.16Q33.49 7.62 34.17 7.33L34.17 7.33L34.17 7.33Q34.85 7.04 35.45 7.04L35.45 7.04L35.45 7.04Q36.08 7.04 36.60 7.29L36.60 7.29L36.60 7.29Q37.11 7.55 37.48 7.96L37.48 7.96L37.48 7.96Q37.86 8.37 38.06 8.90L38.06 8.90L38.06 8.90Q38.26 9.44 38.26 10.01ZM44.17 11.66L44.17 11.66L44.17 11.66Q44.00 11.77 43.79 11.98L43.79 11.98L43.79 11.98Q43.58 12.19 43.33 12.40L43.33 12.40L43.33 12.40Q43.08 12.60 42.77 12.75L42.77 12.75L42.77 12.75Q42.46 12.91 42.11 12.91L42.11 12.91L42.11 12.91Q41.72 12.91 41.30 12.71L41.30 12.71L41.30 12.71Q40.88 12.52 40.53 12.17L40.53 12.17L40.53 12.17Q40.18 11.83 39.96 11.35L39.96 11.35L39.96 11.35Q39.73 10.88 39.73 10.32L39.73 10.32L39.73 10.32Q39.73 9.86 39.90 9.48L39.90 9.48L39.90 9.48Q40.07 9.11 40.33 8.82L40.33 8.82L40.33 8.82Q40.60 8.53 40.94 8.27L40.94 8.27L40.94 8.27Q41.29 8.02 41.65 7.78L41.65 7.78L41.65 7.78Q42.22 7.42 42.70 7.21L42.70 7.21L42.70 7.21Q43.18 7 43.50 7L43.50 7L43.50 7Q43.89 7 44.32 7.13L44.32 7.13L44.32 7.13Q44.74 7.27 45.23 7.38L45.23 7.38L45.23 7.38Q45.71 7.49 46.24 7.50L46.24 7.50L46.24 7.50Q46.77 7.52 47.36 7.29L47.36 7.29L47.36 7.29Q47.17 7.49 46.96 7.60L46.96 7.60L46.96 7.60Q46.75 7.71 46.54 7.80L46.54 7.80L46.54 7.80Q46.33 7.88 46.12 7.97L46.12 7.97L46.12 7.97Q45.92 8.05 45.72 8.19L45.72 8.19L45.72 8.19Q45.57 9.67 45.69 10.87L45.69 10.87L45.69 10.87Q45.81 12.07 46.11 13.05L46.11 13.05L46.11 13.05Q46.41 14.03 46.84 14.83L46.84 14.83L46.84 14.83Q47.28 15.62 47.75 16.32L47.75 16.32L47.75 16.32Q48.23 17.01 48.70 17.63L48.70 17.63L48.70 17.63Q49.17 18.26 49.55 18.88L49.55 18.88L49.55 18.88Q49.92 19.50 50.16 20.15L50.16 20.15L50.16 20.15Q50.39 20.80 50.39 21.57L50.39 21.57L50.39 21.57Q50.39 22.51 49.96 23.41L49.96 23.41L49.96 23.41Q49.53 24.32 48.73 25.02L48.73 25.02L48.73 25.02Q47.92 25.73 46.77 26.17L46.77 26.17L46.77 26.17Q45.61 26.60 44.17 26.60L44.17 26.60L44.17 26.60Q42.99 26.60 42.15 26.40L42.15 26.40L42.15 26.40Q41.31 26.19 40.75 25.94L40.75 25.94L40.75 25.94Q40.10 25.65 39.66 25.27L39.66 25.27L39.66 25.27Q40.17 25.61 40.84 25.86L40.84 25.86L40.84 25.86Q41.43 26.08 42.25 26.26L42.25 26.26L42.25 26.26Q43.08 26.45 44.17 26.45L44.17 26.45L44.17 26.45Q45.09 26.45 45.98 26.24L45.98 26.24L45.98 26.24Q46.87 26.04 47.57 25.60L47.57 25.60L47.57 25.60Q48.27 25.16 48.71 24.46L48.71 24.46L48.71 24.46Q49.14 23.76 49.14 22.76L49.14 22.76L49.14 22.76Q49.14 21.97 48.81 21.27L48.81 21.27L48.81 21.27Q48.48 20.57 47.97 19.86L47.97 19.86L47.97 19.86Q47.46 19.15 46.85 18.37L46.85 18.37L46.85 18.37Q46.24 17.58 45.69 16.62L45.69 16.62L45.69 16.62Q45.14 15.65 44.72 14.44L44.72 14.44L44.72 14.44Q44.30 13.23 44.17 11.66ZM44.10 10.47L44.10 10.47L44.10 10.47Q44.10 9.81 44.14 9.36L44.14 9.36L44.14 9.36Q44.17 8.90 44.39 8.41L44.39 8.41L44.39 8.41Q44.23 8.33 43.93 8.24L43.93 8.24L43.93 8.24Q43.64 8.15 43.28 8.09L43.28 8.09L43.28 8.09Q42.92 8.02 42.53 8.00L42.53 8.00L42.53 8.00Q42.13 7.98 41.73 8.04L41.73 8.04L41.73 8.04Q41.40 8.15 41.27 8.44L41.27 8.44L41.27 8.44Q41.15 8.74 41.15 9.07L41.15 9.07L41.15 9.07Q41.15 9.81 41.46 10.34L41.46 10.34L41.46 10.34Q41.78 10.86 42.24 11.17L42.24 11.17L42.24 11.17Q42.70 11.48 43.23 11.56L43.23 11.56L43.23 11.56Q43.75 11.65 44.17 11.51L44.17 11.51L44.17 11.51Q44.17 11.28 44.14 11.02L44.14 11.02L44.14 11.02Q44.10 10.75 44.10 10.47ZM69.15 0.15L69.15 0.15L69.15 0.15Q69.62 0.15 69.96 0.13L69.96 0.13L69.96 0.13Q70.29 0.11 70.52 0.08L70.52 0.08L70.52 0.08Q70.77 0.06 70.95 0.01L70.95 0.01L70.95 0.15L70.41 0.29L70.41 0.29Q70.25 0.63 70.06 1.27L70.06 1.27L70.06 1.27Q69.87 1.92 69.66 2.77L69.66 2.77L69.66 2.77Q69.44 3.61 69.20 4.62L69.20 4.62L69.20 4.62Q68.96 5.63 68.71 6.68L68.71 6.68L68.71 6.68Q68.46 7.74 68.20 8.81L68.20 8.81L68.20 8.81Q67.94 9.87 67.68 10.84L67.68 10.84L67.68 10.84Q67.42 11.80 67.17 12.62L67.17 12.62L67.17 12.62Q66.91 13.44 66.65 14.01L66.65 14.01L66.65 14.01Q66.28 13.16 65.90 11.97L65.90 11.97L65.90 11.97Q65.52 10.78 65.16 9.44L65.16 9.44L65.16 9.44Q64.81 8.11 64.48 6.74L64.48 6.74L64.48 6.74Q64.16 5.38 63.90 4.17L63.90 4.17L63.90 4.17Q63.76 4.77 63.55 5.65L63.55 5.65L63.55 5.65Q63.34 6.52 63.09 7.52L63.09 7.52L63.09 7.52Q62.85 8.51 62.59 9.53L62.59 9.53L62.59 9.53Q62.33 10.56 62.09 11.45L62.09 11.45L62.09 11.45Q61.85 12.33 61.64 13.01L61.64 13.01L61.64 13.01Q61.42 13.68 61.28 13.97L61.28 13.97L61.28 13.97Q61.14 13.75 60.94 13.11L60.94 13.11L60.94 13.11Q60.73 12.47 60.48 11.56L60.48 11.56L60.48 11.56Q60.23 10.65 59.94 9.54L59.94 9.54L59.94 9.54Q59.65 8.43 59.35 7.27L59.35 7.27L59.35 7.27Q59.05 6.12 58.75 4.99L58.75 4.99L58.75 4.99Q58.45 3.86 58.17 2.91L58.17 2.91L58.17 2.91Q57.89 1.96 57.65 1.25L57.65 1.25L57.65 1.25Q57.40 0.55 57.22 0.24L57.22 0.24L56.55 0.15L56.55 0.01L56.55 0.01Q56.74 0.06 56.99 0.08L56.99 0.08L56.99 0.08Q57.22 0.11 57.53 0.13L57.53 0.13L57.53 0.13Q57.85 0.15 58.25 0.15L58.25 0.15L58.25 0.15Q58.72 0.15 59.09 0.13L59.09 0.13L59.09 0.13Q59.47 0.11 59.75 0.08L59.75 0.08L59.75 0.08Q60.07 0.06 60.34 0.01L60.34 0.01L60.34 0.15L59.44 0.29L59.44 0.29Q59.44 0.49 59.51 0.96L59.51 0.96L59.51 0.96Q59.58 1.43 59.71 2.08L59.71 2.08L59.71 2.08Q59.84 2.73 60.00 3.52L60.00 3.52L60.00 3.52Q60.17 4.31 60.36 5.14L60.36 5.14L60.36 5.14Q60.55 5.98 60.75 6.82L60.75 6.82L60.75 6.82Q60.96 7.66 61.15 8.40L61.15 8.40L61.15 8.40Q61.33 9.14 61.51 9.74L61.51 9.74L61.51 9.74Q61.68 10.35 61.82 10.72L61.82 10.72L61.82 10.72Q61.94 10.57 62.10 10.07L62.10 10.07L62.10 10.07Q62.26 9.56 62.44 8.86L62.44 8.86L62.44 8.86Q62.62 8.16 62.80 7.34L62.80 7.34L62.80 7.34Q62.99 6.52 63.15 5.73L63.15 5.73L63.15 5.73Q63.32 4.94 63.46 4.27L63.46 4.27L63.46 4.27Q63.59 3.60 63.67 3.18L63.67 3.18L63.67 3.18Q63.41 2.02 63.20 1.24L63.20 1.24L63.20 1.24Q62.99 0.46 62.82 0.29L62.82 0.29L62.29 0.15L62.29 0.01L62.29 0.01Q62.44 0.06 62.66 0.08L62.66 0.08L62.66 0.08Q62.86 0.11 63.14 0.13L63.14 0.13L63.14 0.13Q63.42 0.15 63.81 0.15L63.81 0.15L63.81 0.15Q64.22 0.15 64.53 0.13L64.53 0.13L64.53 0.13Q64.85 0.11 65.07 0.08L65.07 0.08L65.07 0.08Q65.32 0.06 65.53 0.01L65.53 0.01L65.53 0.15L64.89 0.29L64.89 0.29Q64.88 0.71 64.95 1.37L64.95 1.37L64.95 1.37Q65.03 2.02 65.16 2.79L65.16 2.79L65.16 2.79Q65.28 3.57 65.46 4.45L65.46 4.45L65.46 4.45Q65.63 5.32 65.83 6.19L65.83 6.19L65.83 6.19Q66.02 7.06 66.23 7.88L66.23 7.88L66.23 7.88Q66.43 8.69 66.62 9.37L66.62 9.37L66.62 9.37Q66.81 10.05 66.97 10.54L66.97 10.54L66.97 10.54Q67.13 11.03 67.24 11.26L67.24 11.26L67.24 11.26Q67.37 10.72 67.53 9.79L67.53 9.79L67.53 9.79Q67.69 8.86 67.86 7.76L67.86 7.76L67.86 7.76Q68.03 6.66 68.17 5.49L68.17 5.49L68.17 5.49Q68.32 4.31 68.42 3.28L68.42 3.28L68.42 3.28Q68.52 2.24 68.53 1.44L68.53 1.44L68.53 1.44Q68.54 0.64 68.46 0.29L68.46 0.29L67.56 0.15L67.56 0.01L67.56 0.01Q67.82 0.06 68.08 0.08L68.08 0.08L68.08 0.08Q68.32 0.11 68.59 0.13L68.59 0.13L68.59 0.13Q68.87 0.15 69.15 0.15ZM73.21 5.24L73.21 5.24L73.21 5.24Q73.02 5.38 72.84 5.53L72.84 5.53L72.84 5.53Q72.69 5.67 72.50 5.85L72.50 5.85L72.50 5.85Q72.31 6.03 72.16 6.23L72.16 6.23L72.16 6.23Q72.00 5.98 71.83 5.80L71.83 5.80L71.83 5.80Q71.67 5.61 71.51 5.49L71.51 5.49L71.51 5.49Q71.34 5.33 71.18 5.24L71.18 5.24L71.18 5.24Q71.36 5.10 71.53 4.94L71.53 4.94L71.53 4.94Q71.68 4.80 71.85 4.62L71.85 4.62L71.85 4.62Q72.02 4.44 72.16 4.23L72.16 4.23L72.16 4.23Q72.31 4.47 72.49 4.65L72.49 4.65L72.49 4.65Q72.67 4.84 72.83 4.97L72.83 4.97L72.83 4.97Q73.01 5.12 73.21 5.24ZM70.95 8.12L70.95 8.12L70.95 8.12Q71.29 7.98 71.59 7.88L71.59 7.88L71.59 7.88Q71.89 7.77 72.16 7.65L72.16 7.65L72.16 7.65Q72.44 7.53 72.70 7.38L72.70 7.38L72.70 7.38Q72.95 7.24 73.21 7.01L73.21 7.01L73.21 7.01Q73.32 7.39 73.30 7.93L73.30 7.93L73.30 7.93Q73.29 8.47 73.24 9.06L73.24 9.06L73.24 9.06Q73.19 9.66 73.18 10.26L73.18 10.26L73.18 10.26Q73.16 10.86 73.28 11.35L73.28 11.35L73.28 11.35Q73.40 11.84 73.70 12.17L73.70 12.17L73.70 12.17Q74.00 12.50 74.61 12.56L74.61 12.56L74.61 12.56Q74.00 12.95 73.58 13.30L73.58 13.30L73.58 13.30Q73.15 13.65 72.73 14.01L72.73 14.01L72.73 14.01Q72.60 13.96 72.45 13.89L72.45 13.89L72.45 13.89Q72.30 13.82 72.16 13.69L72.16 13.69L72.16 13.69Q72.02 13.55 71.91 13.35L71.91 13.35L71.91 13.35Q71.81 13.15 71.79 12.82L71.79 12.82L71.79 12.82Q71.81 11.87 71.83 11.01L71.83 11.01L71.83 11.01Q71.86 10.15 71.81 9.50L71.81 9.50L71.81 9.50Q71.75 8.85 71.56 8.48L71.56 8.48L71.56 8.48Q71.37 8.11 70.95 8.12ZM76.24 6.99L76.24 6.99L76.24 6.99Q76.24 5.42 76.24 4.28L76.24 4.28L76.24 4.28Q76.24 3.14 76.23 2.32L76.23 2.32L76.23 2.32Q76.22 1.50 76.16 0.95L76.16 0.95L76.16 0.95Q76.10 0.41 76.01 0.01L76.01 0.01L76.01 0.01Q76.97 0.01 77.64-0.34L77.64-0.34L77.64-0.34Q78.30-0.70 78.86-1.18L78.86-1.18L78.86-1.18Q78.58-0.77 78.39-0.45L78.39-0.45L78.39-0.45Q78.19-0.13 78.12 0.10L78.12 0.10L78.12 0.10Q77.97 0.59 77.88 1.33L77.88 1.33L77.88 1.33Q77.80 2.07 77.76 2.98L77.76 2.98L77.76 2.98Q77.71 3.89 77.71 4.91L77.71 4.91L77.71 4.91Q77.70 5.94 77.70 6.99L77.70 6.99L77.70 6.99Q77.70 8.05 77.66 8.79L77.66 8.79L77.66 8.79Q77.62 9.52 77.60 10.04L77.60 10.04L77.60 10.04Q77.57 10.57 77.60 10.93L77.60 10.93L77.60 10.93Q77.62 11.28 77.74 11.59L77.74 11.59L77.74 11.59Q77.84 11.79 77.95 11.97L77.95 11.97L77.95 11.97Q78.06 12.15 78.22 12.31L78.22 12.31L78.22 12.31Q78.37 12.47 78.57 12.58L78.57 12.58L78.57 12.58Q78.76 12.68 79.03 12.70L79.03 12.70L79.03 12.70Q78.50 13.08 78.09 13.40L78.09 13.40L78.09 13.40Q77.67 13.72 77.34 14.04L77.34 14.04L77.34 14.04Q77.07 13.90 76.86 13.69L76.86 13.69L76.86 13.69Q76.65 13.47 76.50 13.23L76.50 13.23L76.50 13.23Q76.36 12.99 76.27 12.75L76.27 12.75L76.27 12.75Q76.17 12.52 76.15 12.33L76.15 12.33L76.15 12.33Q76.12 11.80 76.13 11.30L76.13 11.30L76.13 11.30Q76.15 10.79 76.17 10.19L76.17 10.19L76.17 10.19Q76.20 9.59 76.22 8.82L76.22 8.82L76.22 8.82Q76.24 8.05 76.24 6.99ZM79.63 3.33L79.63 3.33L79.63 3.33Q79.63 2.83 80.03 2.33L80.03 2.33L80.03 2.33Q80.43 1.83 81.05 1.39L81.05 1.39L81.05 1.39Q81.68 0.95 82.43 0.60L82.43 0.60L82.43 0.60Q83.19 0.25 83.89 0.04L83.89 0.04L83.89 0.04Q83.36 0.21 82.87 0.48L82.87 0.48L82.87 0.48Q82.38 0.74 82.00 1.06L82.00 1.06L82.00 1.06Q81.62 1.37 81.39 1.71L81.39 1.71L81.39 1.71Q81.16 2.06 81.16 2.38L81.16 2.38L81.16 2.38Q81.16 2.76 81.40 3.18L81.40 3.18L81.40 3.18Q81.65 3.60 82.03 4.03L82.03 4.03L82.03 4.03Q82.42 4.45 82.90 4.86L82.90 4.86L82.90 4.86Q83.38 5.26 83.87 5.61L83.87 5.61L83.87 5.61Q84.35 5.95 84.78 6.22L84.78 6.22L84.78 6.22Q85.20 6.50 85.50 6.64L85.50 6.64L85.50 6.64Q85.78 6.78 86.14 6.92L86.14 6.92L86.14 6.92Q86.51 7.07 86.89 7.26L86.89 7.26L86.89 7.26Q87.28 7.45 87.65 7.69L87.65 7.69L87.65 7.69Q88.03 7.94 88.33 8.27L88.33 8.27L88.33 8.27Q88.62 8.61 88.80 9.04L88.80 9.04L88.80 9.04Q88.98 9.48 88.98 10.05L88.98 10.05L88.98 10.05Q88.98 10.51 88.84 10.91L88.84 10.91L88.84 10.91Q88.70 11.30 88.47 11.63L88.47 11.63L88.47 11.63Q88.23 11.97 87.93 12.26L87.93 12.26L87.93 12.26Q87.63 12.54 87.29 12.81L87.29 12.81L87.29 12.81Q86.62 13.34 86.00 13.68L86.00 13.68L86.00 13.68Q85.39 14.01 84.73 14.01L84.73 14.01L84.73 14.01Q84.18 14.01 83.72 13.79L83.72 13.79L83.72 13.79Q83.26 13.57 82.94 13.21L82.94 13.21L82.94 13.21Q82.61 12.85 82.43 12.41L82.43 12.41L82.43 12.41Q82.25 11.97 82.25 11.54L82.25 11.54L82.25 11.54Q82.25 10.92 82.39 10.51L82.39 10.51L82.39 10.51Q82.53 10.09 82.76 9.81L82.76 9.81L82.76 9.81Q82.99 9.53 83.29 9.34L83.29 9.34L83.29 9.34Q83.58 9.14 83.89 8.96L83.89 8.96L83.89 8.96Q84.17 8.74 84.46 8.57L84.46 8.57L84.46 8.57Q84.74 8.40 85.08 8.29L85.08 8.29L85.08 8.29Q84.57 8.04 84.10 7.78L84.10 7.78L84.10 7.78Q83.62 7.52 83.26 7.24L83.26 7.24L83.26 7.24Q82.99 7.06 82.62 6.80L82.62 6.80L82.62 6.80Q82.25 6.55 81.85 6.25L81.85 6.25L81.85 6.25Q81.45 5.95 81.05 5.60L81.05 5.60L81.05 5.60Q80.65 5.25 80.34 4.88L80.34 4.88L80.34 4.88Q80.02 4.51 79.83 4.12L79.83 4.12L79.83 4.12Q79.63 3.72 79.63 3.33ZM87.42 10.91L87.42 10.91L87.42 10.91Q87.42 10.47 87.24 10.12L87.24 10.12L87.24 10.12Q87.07 9.76 86.77 9.46L86.77 9.46L86.77 9.46Q86.48 9.16 86.09 8.90L86.09 8.90L86.09 8.90Q85.69 8.65 85.26 8.43L85.26 8.43L85.26 8.43Q85.01 8.47 84.74 8.62L84.74 8.62L84.74 8.62Q84.46 8.76 84.25 9.00L84.25 9.00L84.25 9.00Q84.03 9.24 83.88 9.55L83.88 9.55L83.88 9.55Q83.73 9.87 83.73 10.25L83.73 10.25L83.73 10.25Q83.73 10.70 83.90 11.12L83.90 11.12L83.90 11.12Q84.07 11.55 84.39 11.89L84.39 11.89L84.39 11.89Q84.71 12.22 85.18 12.43L85.18 12.43L85.18 12.43Q85.65 12.63 86.27 12.63L86.27 12.63L86.27 12.63Q86.74 12.63 86.99 12.51L86.99 12.51L86.99 12.51Q87.23 12.39 87.33 12.17L87.33 12.17L87.33 12.17Q87.42 11.94 87.42 11.62L87.42 11.62L87.42 11.62Q87.42 11.30 87.42 10.91ZM94.19 7L94.19 7L94.19 7Q94.36 7.20 94.65 7.39L94.65 7.39L94.65 7.39Q94.95 7.59 95.27 7.75L95.27 7.75L95.27 7.75Q95.59 7.91 95.91 8.02L95.91 8.02L95.91 8.02Q96.22 8.12 96.46 8.12L96.46 8.12L96.46 8.12Q96.25 8.26 95.99 8.41L95.99 8.41L95.99 8.41Q95.73 8.55 95.50 8.69L95.50 8.69L95.50 8.69Q95.27 8.82 95.10 8.92L95.10 8.92L95.10 8.92Q94.92 9.02 94.85 9.07L94.85 9.07L94.85 9.07Q94.65 9.10 94.35 9.03L94.35 9.03L94.35 9.03Q94.04 8.96 93.71 8.83L93.71 8.83L93.71 8.83Q93.38 8.71 93.09 8.57L93.09 8.57L93.09 8.57Q92.79 8.43 92.64 8.32L92.64 8.32L92.64 8.32Q92.51 8.40 92.38 8.55L92.38 8.55L92.38 8.55Q92.25 8.71 92.13 8.92L92.13 8.92L92.13 8.92Q92.02 9.13 91.95 9.38L91.95 9.38L91.95 9.38Q91.88 9.63 91.88 9.91L91.88 9.91L91.88 9.91Q91.88 10.54 92.20 11.02L92.20 11.02L92.20 11.02Q92.51 11.49 92.97 11.81L92.97 11.81L92.97 11.81Q93.42 12.12 93.93 12.29L93.93 12.29L93.93 12.29Q94.44 12.45 94.85 12.45L94.85 12.45L94.85 12.45Q95.40 12.45 95.83 12.34L95.83 12.34L95.83 12.34Q96.26 12.24 96.57 12.10L96.57 12.10L96.57 12.10Q96.94 11.94 97.20 11.75L97.20 11.75L97.20 11.75Q96.91 12.01 96.52 12.40L96.52 12.40L96.52 12.40Q96.14 12.78 95.68 13.14L95.68 13.14L95.68 13.14Q95.23 13.50 94.69 13.75L94.69 13.75L94.69 13.75Q94.15 14 93.53 14L93.53 14L93.53 14Q92.83 14 92.25 13.74L92.25 13.74L92.25 13.74Q91.67 13.48 91.26 13.05L91.26 13.05L91.26 13.05Q90.85 12.63 90.62 12.08L90.62 12.08L90.62 12.08Q90.38 11.54 90.38 10.95L90.38 10.95L90.38 10.95Q90.38 10.42 90.62 9.97L90.62 9.97L90.62 9.97Q90.85 9.52 91.20 9.14L91.20 9.14L91.20 9.14Q91.56 8.76 92.00 8.45L92.00 8.45L92.00 8.45Q92.44 8.13 92.87 7.87L92.87 7.87L92.87 7.87Q93.30 7.60 93.65 7.39L93.65 7.39L93.65 7.39Q94.00 7.18 94.19 7ZM104.78 9.52L104.78 9.52L104.78 9.52Q104.89 9.79 105.10 10.30L105.10 10.30L105.10 10.30Q105.31 10.82 105.54 11.35L105.54 11.35L105.54 11.35Q105.77 11.89 105.99 12.29L105.99 12.29L105.99 12.29Q106.22 12.70 106.37 12.73L106.37 12.73L106.37 12.73Q105.95 12.96 105.50 13.30L105.50 13.30L105.50 13.30Q105.04 13.64 104.71 14L104.71 14L104.71 14Q104.64 13.69 104.45 13.14L104.45 13.14L104.45 13.14Q104.27 12.59 103.96 11.93L103.96 11.93L103.96 11.93Q103.70 12.19 103.29 12.55L103.29 12.55L103.29 12.55Q102.89 12.91 102.42 13.23L102.42 13.23L102.42 13.23Q101.96 13.55 101.47 13.78L101.47 13.78L101.47 13.78Q100.97 14 100.52 14L100.52 14L100.52 14Q100.20 14 99.86 13.91L99.86 13.91L99.86 13.91Q99.51 13.82 99.23 13.64L99.23 13.64L99.23 13.64Q98.95 13.47 98.78 13.22L98.78 13.22L98.78 13.22Q98.60 12.96 98.60 12.64L98.60 12.64L98.60 12.64Q98.60 12.25 99.01 11.80L99.01 11.80L99.01 11.80Q99.41 11.35 100.02 10.91L100.02 10.91L100.02 10.91Q100.62 10.47 101.32 10.05L101.32 10.05L101.32 10.05Q102.02 9.63 102.61 9.27L102.61 9.27L102.61 9.27Q102.17 8.72 101.79 8.48L101.79 8.48L101.79 8.48Q101.40 8.23 100.94 8.23L100.94 8.23L100.94 8.23Q100.74 8.23 100.43 8.34L100.43 8.34L100.43 8.34Q100.11 8.46 99.82 8.60L99.82 8.60L99.82 8.60Q99.46 8.75 99.09 8.95L99.09 8.95L99.09 8.95Q99.88 8.41 100.60 7.98L100.60 7.98L100.60 7.98Q100.91 7.80 101.23 7.63L101.23 7.63L101.23 7.63Q101.56 7.46 101.86 7.32L101.86 7.32L101.86 7.32Q102.16 7.18 102.42 7.10L102.42 7.10L102.42 7.10Q102.68 7.01 102.86 7.01L102.86 7.01L102.86 7.01Q103.21 7.01 103.51 7.31L103.51 7.31L103.51 7.31Q103.81 7.62 104.06 8.03L104.06 8.03L104.06 8.03Q104.30 8.44 104.48 8.86L104.48 8.86L104.48 8.86Q104.65 9.28 104.78 9.52ZM102.03 12.64L102.03 12.64L102.03 12.64Q102.37 12.64 102.68 12.54L102.68 12.54L102.68 12.54Q102.98 12.45 103.22 12.26L103.22 12.26L103.22 12.26Q103.45 12.08 103.59 11.83L103.59 11.83L103.59 11.83Q103.73 11.58 103.73 11.28L103.73 11.28L103.73 11.28Q103.61 11.10 103.49 10.88L103.49 10.88L103.49 10.88Q103.36 10.67 103.25 10.47L103.25 10.47L103.25 10.47Q103.14 10.22 103.02 9.99L103.02 9.99L103.02 9.99Q102.90 9.76 102.77 9.60L102.77 9.60L102.77 9.60Q102.47 9.72 102.03 9.92L102.03 9.92L102.03 9.92Q101.58 10.12 101.18 10.39L101.18 10.39L101.18 10.39Q100.77 10.67 100.49 10.99L100.49 10.99L100.49 10.99Q100.20 11.31 100.20 11.66L100.20 11.66L100.20 11.66Q100.20 11.86 100.35 12.03L100.35 12.03L100.35 12.03Q100.49 12.21 100.74 12.34L100.74 12.34L100.74 12.34Q100.98 12.47 101.32 12.56L101.32 12.56L101.32 12.56Q101.65 12.64 102.03 12.64ZM108.28 5.73L108.28 5.73L108.28 5.73Q108.72 5.54 109.17 5.26L109.17 5.26L109.17 5.26Q109.62 4.98 110.12 4.66L110.12 4.66L110.12 4.66Q110.05 4.91 110.00 5.28L110.00 5.28L110.00 5.28Q109.94 5.64 109.90 6.01L109.90 6.01L109.90 6.01Q109.86 6.38 109.83 6.69L109.83 6.69L109.83 6.69Q109.80 7 109.80 7.14L109.80 7.14L109.80 7.14Q110.36 7.29 110.94 7.27L110.94 7.27L110.94 7.27Q111.52 7.24 111.89 7.24L111.89 7.24L111.89 7.24Q111.71 7.41 111.43 7.52L111.43 7.52L111.43 7.52Q111.16 7.64 110.87 7.74L110.87 7.74L110.87 7.74Q110.57 7.84 110.29 7.91L110.29 7.91L110.29 7.91Q110.00 7.98 109.79 8.04L109.79 8.04L109.79 8.04Q109.82 8.55 109.78 9.09L109.78 9.09L109.78 9.09Q109.75 9.62 109.75 10.12L109.75 10.12L109.75 10.12Q109.75 10.61 109.83 11.05L109.83 11.05L109.83 11.05Q109.91 11.49 110.17 11.83L110.17 11.83L110.17 11.83Q110.43 12.17 110.92 12.38L110.92 12.38L110.92 12.38Q111.40 12.60 112.21 12.64L112.21 12.64L112.21 12.64Q111.97 12.84 111.73 13.08L111.73 13.08L111.73 13.08Q111.50 13.31 111.24 13.52L111.24 13.52L111.24 13.52Q110.99 13.72 110.73 13.85L110.73 13.85L110.73 13.85Q110.46 13.99 110.18 13.99L110.18 13.99L110.18 13.99Q109.90 13.99 109.61 13.88L109.61 13.88L109.61 13.88Q109.33 13.78 109.10 13.56L109.10 13.56L109.10 13.56Q108.86 13.34 108.70 13.01L108.70 13.01L108.70 13.01Q108.54 12.68 108.53 12.24L108.53 12.24L108.53 12.24Q108.47 11.12 108.44 10.01L108.44 10.01L108.44 10.01Q108.42 8.90 108.42 8.01L108.42 8.01L108.42 8.01Q108.05 7.98 107.81 7.95L107.81 7.95L107.81 7.95Q107.56 7.91 107.39 7.88L107.39 7.88L107.39 7.88Q107.20 7.85 107.07 7.83L107.07 7.83L107.07 7.83Q107.27 7.74 107.49 7.64L107.49 7.64L107.49 7.64Q107.67 7.56 107.90 7.45L107.90 7.45L107.90 7.45Q108.12 7.34 108.33 7.18L108.33 7.18L108.33 7.18Q108.37 6.75 108.37 6.40L108.37 6.40L108.37 6.40Q108.36 6.05 108.28 5.73Z"></path></g><!----><!----></svg>