<svg width="138" height="90" viewBox="0 0 138 90" fill="none" xmlns="http://www.w3.org/2000/svg">
<path d="M136.717 83.0458C136.558 82.7664 136.433 82.5434 136.604 82.2249C137.093 81.304 136.805 80.6539 136.369 79.6636C136.219 79.3233 136.047 78.9353 135.884 78.4821L135.818 78.2939C135.407 77.1414 135.407 77.1414 134.749 76.1062C134.46 75.6535 134.174 75.1988 133.891 74.7423C133.097 73.4609 132.522 71.9551 131.964 70.5C131.395 69.0159 130.859 67.6129 130.161 66.6617C129.321 65.5193 128.887 64.2756 128.568 63.3677C128.366 62.79 128.219 62.3731 128.044 62.1848C127.63 61.7418 127.167 61.6839 126.806 61.6839C126.727 61.6839 126.651 61.6868 126.579 61.6897C126.517 61.6926 126.457 61.6954 126.401 61.6954C126.201 61.6954 126.11 61.6636 126.066 61.5767C125.822 61.096 125.222 59.5251 124.395 57.3504C121.633 50.0835 116.486 36.5618 113.376 34.3422C111.861 33.2649 108.909 30.1332 108.657 27.9903C108.42 25.9604 116.83 13.0425 119.371 11.5381C120.579 10.8214 121.533 10.2553 124.82 10.2553C125.984 10.2553 127.388 10.3263 129.113 10.4725C129.375 10.4957 129.63 10.5058 129.874 10.5058C131.46 10.5058 132.383 10.0526 132.596 9.60521C132.706 9.37065 132.711 9.1665 132.606 9.00144C132.26 8.45125 130.759 8.44401 129.436 8.43822C128.741 8.43532 128.082 8.43243 127.704 8.3499C125.875 7.95174 124.181 7.74903 122.671 7.74903C121.006 7.74903 119.57 7.99807 118.409 8.4889C113.234 10.6723 106.43 19.8098 103.524 23.7148C102.786 24.7066 102.252 25.4247 102.12 25.5188C102.043 25.5724 101.903 25.6028 101.706 25.6028C101.374 25.6028 100.927 25.5304 100.409 25.4464C99.7642 25.3436 99.0359 25.2263 98.3699 25.2263C97.8733 25.2263 97.4751 25.2915 97.1537 25.4247C97.1435 25.4305 97.1247 25.4334 97.0914 25.4334C96.8033 25.4334 96.0041 25.0946 94.798 24.5777C91.4389 23.1457 84.4471 20.1646 74.3323 18.5516C69.6802 17.8089 65.5712 14.9623 62.852 13.0787C61.3882 12.0666 60.3313 11.334 59.6711 11.221C58.0046 10.9373 56.0485 9.65299 54.4775 8.6221C53.603 8.04874 52.8487 7.55357 52.3506 7.37258C51.9973 7.24372 51.5224 6.99035 50.9186 6.67181C49.1609 5.73648 46.5041 4.3277 42.8496 3.74855C39.6339 3.24035 37.769 3.05357 35.9693 3.05357C35.2686 3.05357 34.5649 3.08253 33.6875 3.14479C33.159 3.18243 32.5408 3.20994 31.8878 3.23745C29.7391 3.32867 27.3023 3.43291 26.2338 4.00048C26.1393 4.04493 26.0356 4.06627 25.9312 4.06274C24.7034 4.06274 21.5268 2.12548 20.8173 1.11052C20.3323 0.415541 19.6358 0 18.9539 0C18.4631 0 18.0229 0.22442 17.7131 0.634169C17.0398 1.52317 16.9993 3.19112 17.5972 5.32818C17.2946 5.63079 17.0398 5.91747 16.8139 6.17085C16.3216 6.72249 15.964 7.1221 15.5326 7.24662C15.1764 7.34797 14.826 7.40009 14.4915 7.40009C13.2102 7.40009 12.3052 6.64575 11.645 6.09411C11.5017 5.97538 11.3656 5.861 11.2382 5.76544C11.195 5.72923 11.141 5.70835 11.0847 5.70608C11.0427 5.70608 10.9819 5.72201 10.9312 5.79295C10.7575 6.03475 10.8052 6.76303 11.0383 7.45222C11.2208 7.99517 11.5132 8.5584 11.771 9.05357C12.0432 9.57625 12.2777 10.0265 12.3255 10.3277C12.4283 10.9691 11.6827 11.8161 10.9616 12.6356C10.3709 13.3016 9.76277 13.9937 9.57454 14.6091C9.39935 15.1839 9.52821 15.8456 9.65417 16.4855C9.75408 16.9952 9.84819 17.4773 9.77145 17.8538C9.64404 18.4792 9.21113 19.529 8.7536 20.6424C7.9703 22.5434 7.08564 24.6979 7.41431 25.4696C7.94279 26.7104 8.67396 26.8682 9.06634 26.9522C9.18796 26.9797 9.29221 27 9.31682 27.042C9.32696 27.0579 9.32696 27.0854 9.31682 27.1231C9.21113 27.5111 9.45871 28.2321 9.89163 28.7983C10.2232 29.2341 10.9587 29.9638 12.1387 29.9638C12.3747 29.9638 12.5688 30.2317 12.8149 30.5676C13.2826 31.209 13.9269 32.0922 15.4558 32.0516C16.9978 32.014 17.9404 30.9599 18.6991 30.1158C19.1812 29.5772 19.5996 29.1124 20.0224 29.1124C20.396 29.1124 20.7768 29.1559 21.1445 29.2008C21.5036 29.2399 21.8728 29.2847 22.2261 29.2847C22.5837 29.2946 22.9397 29.2346 23.2743 29.1081C23.7333 28.9286 23.8854 28.5261 24.0316 28.1351C24.1402 27.8456 24.2444 27.569 24.4674 27.4039C24.8569 28.29 24.9437 29.6525 24.4471 30.2548C24.0779 30.7022 21.8699 31.0135 20.2555 31.2423C19.9138 31.29 19.5924 31.3349 19.313 31.3784C17.978 31.5854 13.7285 33.1187 12.9148 33.4691C12.6788 33.5676 12.2401 33.6993 11.729 33.8499C10.3144 34.2669 8.3757 34.8417 7.91238 35.5816C7.75167 35.8378 7.41576 35.9623 6.88728 35.9623C6.41093 35.9623 5.85061 35.8653 5.3062 35.7698C4.80379 35.6829 4.33034 35.6004 3.95823 35.6004C3.812 35.6004 3.69182 35.6134 3.59047 35.638C3.02869 35.7799 2.87667 36.0449 2.76663 36.2418C2.67541 36.4025 2.6146 36.5111 2.36557 36.5111C1.66335 36.5111 1.2174 36.8904 1.03352 37.2452C0.78883 37.7157 0.811996 38.0951 0.83661 38.499C0.853984 38.7944 0.872807 39.1013 0.78159 39.4677C0.706204 39.7338 0.616794 39.9957 0.513733 40.2524C0.143077 41.237 -0.36368 42.5849 0.389216 43.0178C0.903212 43.3147 1.29124 43.7128 1.63294 44.0661C2.17879 44.6293 2.64645 45.1115 3.42686 45.0333C3.55572 45.0203 3.68313 45.013 3.80476 45.013C4.56344 45.013 5.03111 45.2577 5.4452 45.4734C5.73912 45.624 5.9925 45.7572 6.28497 45.7572C6.39431 45.757 6.50288 45.7389 6.6064 45.7037C7.12039 45.5328 7.49829 45.3359 7.80089 45.1795C8.16576 44.9899 8.43072 44.8523 8.73043 44.8523C8.9201 44.8523 9.11701 44.9059 9.34867 45.0246C9.65128 45.1795 9.92203 45.4706 10.2087 45.7789C10.6764 46.277 11.2063 46.8431 12.0562 47.0762C12.2604 47.1298 12.4688 47.1588 12.6933 47.1588C13.1971 47.1588 13.6966 47.0183 14.1788 46.8851C14.645 46.7563 15.1271 46.6202 15.5977 46.6202C15.7584 46.6202 15.9076 46.6361 16.0552 46.6679C16.242 46.7056 16.4085 46.7244 16.5605 46.7244C16.9645 46.7244 17.2092 46.5883 17.4669 46.4464C17.7811 46.2727 18.1054 46.0902 18.7801 46.0902C18.9278 46.0902 19.0856 46.0989 19.255 46.1178C19.5794 46.1554 20.3482 45.4561 21.1619 44.7119C21.9018 44.0372 22.6662 43.3378 23.0137 43.2814C23.0367 43.2775 23.0599 43.2755 23.0832 43.2756C23.5914 43.2756 25.6344 43.6477 28.0017 44.0762C31.3144 44.6757 35.089 45.3591 36.0794 45.2881C37.0972 45.2172 38.4365 43.6462 39.618 42.2621C40.478 41.2543 41.2917 40.3002 41.7797 40.1742C42.2777 40.0468 44.7811 39.8427 46.8081 39.8427C47.9997 39.8427 48.8279 39.915 49.1986 40.0497C49.7198 40.2379 51.9162 41.1993 54.6962 42.417C60.3023 44.8726 67.979 48.2345 69.5818 48.6255C70.9934 48.9701 72.7541 49.1366 74.965 49.1366C76.9949 49.1366 79.1305 48.999 81.1937 48.8658C83.1093 48.7427 84.9177 48.6269 86.5176 48.6269C88.1291 48.6269 89.3366 48.7514 90.2068 49.0077C95.894 50.6829 100.413 57.5371 103.714 62.5396C104.404 63.6071 105.118 64.659 105.855 65.6945C106.601 66.7152 107.544 67.5926 108.454 68.4426C109.626 69.5328 110.838 70.6621 111.67 72.1202C113.419 75.1795 115.397 79.0106 115.161 81.4763C115.126 81.8586 115.086 82.2321 115.049 82.5955C114.824 84.7804 114.644 86.5034 115.254 87.0058C115.397 87.1177 115.565 87.1928 115.744 87.2244C115.998 87.2881 116.238 87.346 116.477 87.8093C116.561 87.9672 116.629 88.1409 116.694 88.3074C116.869 88.7461 117.033 89.1588 117.421 89.2558L117.672 89.3137C118.052 89.3991 118.411 89.4787 119.122 89.887C119.249 89.9604 119.392 89.9994 119.538 90C120.191 90 120.815 89.2094 121.316 88.5767C121.41 88.458 121.501 88.3436 121.585 88.2423C121.93 87.8282 121.911 87.3706 121.892 87.0014C121.876 86.6771 121.865 86.4208 122.073 86.2659C122.315 86.082 122.403 85.6868 122.435 85.3856C122.496 84.7949 122.387 84.1288 122.187 83.9015C121.614 83.2471 121.291 82.4334 121.054 81.8412C120.967 81.6023 120.864 81.3701 120.744 81.1462C119.906 79.7693 119.658 77.5627 119.474 75.9541C119.347 74.8291 119.273 74.2384 119.088 74.1139C118.545 73.7447 117.685 70.6346 117.12 68.5758C116.71 67.0946 116.49 66.3171 116.371 66.2114C116.203 66.0637 115.991 65.9218 115.749 65.7553C115.271 65.4281 114.696 65.0342 114.188 64.4232C114.181 64.4078 114.17 64.394 114.158 64.3827C114.15 64.3726 114.14 64.3668 114.133 64.3595C113.664 63.7656 113.327 63.0785 113.145 62.3441L112.985 61.7186C112.453 59.693 111.795 57.1766 111.612 55.4319C113.015 56.2326 120.754 65.7177 121.608 66.9903C121.883 67.4015 122.254 67.6781 122.723 68.0256C123.825 68.8451 125.487 70.083 127.446 74.5106C128.151 76.1018 128.6 78.2852 128.995 80.2123C129.441 82.3726 129.825 84.2374 130.456 84.8673C131.027 85.4363 131.442 85.5014 131.774 85.555C131.985 85.5897 132.15 85.6173 132.302 85.7649C133.146 86.5757 133.569 86.9638 133.978 86.9638C134.154 86.9568 134.323 86.8864 134.452 86.7654C134.691 86.5798 134.949 86.4197 135.221 86.2876C135.834 85.959 136.526 85.5883 136.878 84.6226C137.163 83.8335 136.915 83.3962 136.717 83.0458ZM134.27 86.0256C134.19 86.0602 134.104 86.0779 134.017 86.0777C133.492 86.0777 132.9 85.4971 132.551 84.9976C132.343 84.7008 132.029 84.569 131.696 84.4271C131.366 84.2867 131.027 84.1419 130.775 83.8262C130.563 83.5627 130.199 81.8977 129.735 79.7924C129.33 77.945 128.861 75.8122 128.402 74.2036C128.547 74.1052 128.691 73.9286 128.819 73.6954C129.111 73.1641 129.239 72.9802 129.945 71.9638L129.978 71.916C130.521 71.1327 130.54 71.1298 130.843 71.082C130.944 71.0661 131.082 71.0473 131.273 70.9923C131.298 70.9879 131.319 70.9792 131.341 70.972L131.545 71.4382C132.353 73.3045 133.267 75.4184 134.613 77.3238C135.007 77.8827 136.54 80.929 135.67 82.1786C135.527 82.3856 135.727 82.8591 135.918 83.3166C136.152 83.8726 136.393 84.4474 136.145 84.7659C135.724 85.3132 135.089 85.665 134.27 86.0256ZM116.709 53.945C117.171 53.4715 117.569 53.0603 117.786 52.2625C118.281 50.4897 118.352 48.6253 117.993 46.82C117.702 45.2968 115.807 41.9725 115.566 41.9725L115.527 41.9754L115.507 42.0014C115.482 42.0376 115.487 42.0869 115.527 42.1983C116.397 44.7234 116.526 48.0072 115.814 49.5188C115.429 50.3354 115.174 51.7312 114.968 52.8518C114.803 53.7408 114.664 54.5096 114.509 54.7529C114.378 54.9628 114.04 55.125 113.712 55.277C113.46 55.3986 113.215 55.5159 113.066 55.6549C112.779 55.3581 112.497 55.0743 112.232 54.8065C112.862 54.6588 113.528 54.1086 113.811 52.9054C114.143 51.4923 114.336 50.2312 114.336 47.9638C114.336 47.6395 114.339 47.3427 114.341 47.0676C114.36 45.459 114.369 44.5729 113.726 42.6704C113.422 41.7727 113.263 41.027 113.125 40.3697C112.921 39.4228 112.762 38.6728 112.265 38.0067C112.103 37.7833 111.95 37.5539 111.805 37.319C111.479 36.8065 111.143 36.2751 110.714 35.9594C110.57 35.8538 110.483 35.8523 110.442 35.9204C110.37 36.0376 110.519 36.3692 110.877 37.0656C110.95 37.209 111.014 37.3335 111.05 37.4131C111.708 38.8567 112.41 41.0589 112.41 42.9093C112.41 43.5565 112.43 44.1834 112.449 44.7886C112.485 45.9353 112.52 47.0183 112.41 48.0217C112.332 48.7167 112.18 49.2292 112.045 49.6781C111.881 50.2268 111.738 50.7017 111.767 51.3591C111.782 51.7326 111.855 52.1062 111.926 52.4681C112.084 53.2645 112.209 53.8914 111.643 54.097L111.551 54.1346C110.917 53.5555 109.075 52.2857 106.892 50.8914C106.928 50.6076 106.938 50.2674 106.925 49.8808C106.888 48.7543 107.031 47.9479 107.174 47.1675C107.339 46.2596 107.497 45.4039 107.308 44.1921C107.164 43.2756 107.066 42.9527 106.985 42.6906C106.875 42.3301 106.802 42.0927 106.702 40.4508C106.571 38.2717 104.919 35.3195 103.592 32.9479C103.187 32.2225 102.803 31.5362 102.509 30.957C101.318 28.5898 101.193 28.5898 101.118 28.5898C101.105 28.5901 101.092 28.5936 101.08 28.5999C101.068 28.6062 101.058 28.6151 101.05 28.626C100.915 28.8258 101.713 30.9976 103.443 35.4918C103.744 36.2736 104.028 37.0106 104.238 37.5666C105.066 39.7688 105.147 41.9956 105.22 43.959C105.233 44.3687 105.249 44.7596 105.268 45.1346C105.339 46.3986 105.535 47.5888 105.695 48.5444C105.808 49.2278 105.906 49.8243 105.932 50.2833C104.756 49.5421 103.566 48.8215 102.365 48.1216C102.456 47.8899 102.519 47.6477 102.551 47.4006C102.813 45.6153 102.627 41.7944 102.208 40.3523C101.992 39.6305 101.741 38.9193 101.458 38.221C101.203 37.5858 100.969 36.9421 100.757 36.291C100.64 35.9218 100.553 35.625 100.478 35.3615C100.232 34.4928 100.109 34.0584 99.3081 32.9522C98.9103 32.4108 98.4826 31.8922 98.0267 31.3986C97.5562 30.8745 97.1493 30.4199 96.77 29.777C96.4167 29.1805 95.9056 28.529 95.4148 27.8977C94.9297 27.2765 94.4288 26.6366 94.0972 26.069C93.8033 25.5666 93.5325 25.1235 93.256 24.75L93.2907 24.7645C95.1701 25.4652 96.4095 25.93 96.9713 25.93C97.0351 25.9322 97.0989 25.9229 97.1595 25.9025C97.3216 25.846 97.5272 25.8185 97.7864 25.8185C98.2685 25.8185 98.8622 25.9141 99.4934 26.0169C99.9959 26.098 100.51 26.1819 100.989 26.2196C101.127 26.3832 101.408 26.6091 101.845 26.9493C102.464 27.4373 103.314 28.1018 103.894 28.8171C105.921 31.3219 106.691 33.4778 107.15 34.7649C107.324 35.2514 107.45 35.6062 107.587 35.8204C108.213 36.7963 108.589 37.4899 108.77 37.8229C108.918 38.0951 108.918 38.0951 108.964 38.0951H108.997L109.015 38.069C109.042 38.0357 109.042 38.0357 108.942 37.7172C108.754 37.1223 108.581 36.5227 108.424 35.9189C107.937 34.0758 107.444 33.2707 106.924 32.4179C106.552 31.8391 106.23 31.2298 105.961 30.5965C105.268 28.9387 103.343 26.8943 102.202 26.1602C102.445 26.1107 102.667 25.9885 102.838 25.8098C102.89 25.7534 103.002 25.597 103.168 25.361C103.466 25.4305 104.067 25.4566 105.098 25.4899C106.374 25.5304 107.961 25.5811 108.328 25.8518C108.35 25.8678 108.373 25.8808 108.395 25.8924C107.93 26.9493 107.683 27.8267 107.767 28.3769C107.958 29.6221 109.254 31.07 110.894 32.903C111.857 33.9759 112.946 35.1906 113.965 36.5502C116.461 39.8716 118.756 44.5758 122.19 53.6916C122.159 53.6952 122.13 53.7102 122.109 53.7336C122.102 53.7444 122.098 53.7568 122.096 53.7698C121.918 53.8523 121.734 53.9234 121.546 53.9826C120.919 54.2027 119.974 54.5386 119.428 54.9759C118.964 55.3465 118.401 56.237 117.806 57.1795C117.349 57.9049 116.875 58.6506 116.416 59.2196C115.883 58.6404 115.314 58.028 114.745 57.4184C115.332 55.3581 116.092 54.5777 116.709 53.945ZM117.153 70.9184C117.145 70.9155 117.137 70.9126 117.129 70.9126C117.087 70.9126 116.978 70.9126 116.428 71.5801C116.286 71.7522 116.139 71.9198 115.986 72.0825C115.675 72.4199 115.488 72.6255 115.272 73.2003C115.226 73.3262 115.107 73.387 114.909 73.387C114.572 73.387 114.079 73.2046 113.684 73.0584C113.387 72.9469 113.15 72.8586 113.018 72.8586C113.009 72.8587 113 72.8596 112.991 72.8615C112.145 71.3702 111.352 70.2263 111.008 69.8861C110.747 69.6233 110.487 69.3583 110.229 69.0912C110.77 69.4097 111.373 69.6066 111.805 69.6066C112.21 69.6066 112.445 69.4286 112.445 69.1173C112.445 67.8127 112.698 67.2958 113.455 66.4068C113.703 66.1173 113.861 65.9537 113.964 65.8422C113.981 65.8268 113.998 65.8098 114.013 65.7915C114.609 66.7905 115.267 67.6564 115.969 68.0183C116.14 68.1124 116.483 69.0217 117.153 70.9184ZM121.83 85.2611C121.833 85.3776 121.811 85.4935 121.766 85.601C121.721 85.7086 121.654 85.8054 121.569 85.8851C121.193 86.2109 121.246 86.5555 121.3 86.9174C121.353 87.2664 121.409 87.6283 121.112 87.9961C120.958 88.1867 120.813 88.3843 120.677 88.5883C120.386 89.0111 120.194 89.2934 119.644 89.4802C119.574 89.5045 119.501 89.5172 119.428 89.5178C119.122 89.5178 118.894 89.2847 118.673 89.0632C118.461 88.8475 118.256 88.6404 117.994 88.6404C117.951 88.6406 117.908 88.6464 117.866 88.6578C117.832 88.6662 117.798 88.6706 117.764 88.6708C117.459 88.6708 117.325 88.3118 117.172 87.8977C116.968 87.3388 116.713 86.6467 115.963 86.541C115.41 86.4599 115.498 85.736 115.642 84.5357C115.772 83.4701 115.947 82.0091 115.791 80.2456C115.626 78.4155 114.699 76.1308 113.69 74.1617H113.725C113.94 74.1617 114.217 74.1443 114.509 74.1269C114.744 74.111 114.987 74.0965 115.209 74.0907C115.671 74.0748 115.744 73.862 115.828 73.61C115.899 73.403 115.986 73.1438 116.326 72.8788C116.745 72.5487 116.761 72.4952 116.751 72.3388C116.743 72.2374 116.735 72.084 116.962 71.6496C117.124 71.3397 117.189 71.1761 117.211 71.0791L117.253 71.1964C117.751 72.6139 118.268 74.0777 118.527 74.4947C118.6 74.6076 118.665 75.0637 118.795 75.9961C119.101 78.1926 119.67 82.2814 120.961 83.5367C121.53 84.0898 121.847 84.7181 121.83 85.2611ZM112.553 64.8909C112.19 65.5569 112.002 65.7958 111.59 66.32L111.336 66.6443C111.019 67.0511 110.086 67.1829 109.403 67.2799C109.162 67.3047 108.923 67.3488 108.689 67.4117C107.216 65.7191 106.061 64.1293 104.898 62.4498C105.172 62.3108 105.55 62.1747 106.062 62.1515C106.212 62.1441 106.362 62.1402 106.511 62.1399C107.302 62.1399 107.953 62.237 108.478 62.318C108.851 62.3716 109.175 62.4208 109.453 62.4208C110.043 62.4208 111.019 61.7881 111.499 61.1815C111.595 61.3233 111.692 61.4638 111.786 61.6115C112.074 62.0574 112.395 62.7003 112.768 63.4445C112.908 63.721 113.05 64.0092 113.201 64.3016C112.926 64.4225 112.699 64.6294 112.553 64.8909ZM93.4645 44.7075C93.4703 44.693 93.4732 44.68 93.4819 44.667C93.6933 44.2399 94.2406 43.9995 94.8226 43.7476C95.7044 43.361 96.702 42.9281 96.7671 41.7162C96.8352 40.4015 96.5514 40.0656 96.1575 39.6023C95.8943 39.3113 95.6718 38.9859 95.4959 38.6351C95.1353 37.9141 95.2063 37.7085 95.3047 37.4218C95.3931 37.1684 95.5017 36.8513 95.3815 36.1245C95.1296 34.5796 94.688 33.3953 94.0147 31.875C93.5716 30.8803 91.6851 27.9194 90.8395 27.2447C90.5253 26.9928 90.4616 26.9725 90.4182 26.9725C90.4046 26.9725 90.3912 26.976 90.3793 26.9826C90.3674 26.9892 90.3574 26.9987 90.3501 27.0101C90.3154 27.0796 90.3718 27.1752 90.7164 27.6761C90.8757 27.9093 91.074 28.2003 91.2767 28.5188C91.9558 29.596 92.0166 29.7698 92.4987 31.1351L92.5335 31.2365C92.8578 32.1544 92.8709 32.3817 92.9056 32.9319C92.923 33.2418 92.949 33.6689 93.0446 34.3813C93.0938 34.7751 93.1344 35.056 93.1619 35.2703C93.2531 35.9566 93.2531 35.9566 93.3212 36.8267L93.3834 37.6202C93.547 39.6646 93.547 39.6646 92.4828 42.0984L92.3656 42.3692C91.9297 43.3668 91.7372 44.0386 91.6923 44.5265C91.1677 44.4973 90.642 44.4934 90.117 44.5149C89.978 44.5207 89.8419 44.5294 89.7044 44.5381C89.6971 44.1689 89.6957 43.82 90.0924 43.4464C90.9553 42.6327 91.4621 40.6173 91.3766 39.3171C91.326 38.5627 90.9712 38.541 90.7121 38.5265C90.6122 38.5207 90.5238 38.5164 90.4876 38.4686C90.4515 38.4237 90.4442 38.3282 90.4659 38.1921C90.618 37.2596 89.9505 32.5946 88.3781 30.4126C87.5847 29.3108 86.7681 28.3943 85.9022 27.4257C85.0943 26.5222 84.2589 25.5854 83.3931 24.4373C83.2975 24.3098 83.2251 24.2534 83.1585 24.2534C83.1409 24.2534 83.1235 24.2575 83.1077 24.2653C83.0919 24.2731 83.0781 24.2843 83.0673 24.2983C83.0195 24.3591 82.8921 24.5169 83.3395 26.4874C83.5581 27.4488 83.9317 28.1047 84.2893 28.7418C84.5123 29.14 84.7454 29.5526 84.9408 30.0362C85.4751 31.3581 86.2454 33.3533 86.8173 34.985C87.3617 36.5415 87.2936 37.7505 87.2343 38.819C87.1908 39.582 87.1503 40.3045 87.3356 41.0487C87.9322 43.4305 87.5485 44.2934 87.1402 44.8233C86.4148 44.9334 85.6807 45.0593 84.9293 45.1897C84.1271 45.3272 83.2917 45.4705 82.4071 45.6038L82.6141 45.3142C83.3438 44.2775 83.4322 43.9401 83.6291 43.1974L83.7796 42.6414C84.0518 41.6916 84.1011 40.3147 84.1358 39.3069C84.146 39.0463 84.1546 38.8161 84.1662 38.6322C84.1691 38.5656 84.1561 38.5164 84.1286 38.4845C84.1174 38.4729 84.1039 38.4637 84.0889 38.4578C84.0739 38.4518 84.0578 38.449 84.0417 38.4498C83.7101 38.4498 82.6329 39.9122 82.2825 40.6607C81.799 41.6887 80.5769 44.1631 79.6677 44.9479C79.1855 45.3605 78.8511 45.7239 78.6498 46.041C77.8347 46.1062 76.9703 46.1511 76.0538 46.1713C76.4396 45.8452 76.7697 45.4584 77.0311 45.0261C77.5943 44.1124 78.4572 43.0598 79.2159 42.1274C79.8183 41.3919 80.338 40.7563 80.5306 40.3986C80.7116 40.0642 80.9244 39.8904 81.1329 39.7225C81.4066 39.501 81.6672 39.2896 81.8163 38.7408C82.0755 37.7939 82.5895 35.0632 82.3289 33.9324C82.1855 33.3127 81.9075 33.0507 81.6397 32.7987C81.4124 32.583 81.1966 32.3789 81.0461 31.9648C80.9128 31.5999 80.9128 31.4479 80.9128 31.3002C80.9128 31.0642 80.9128 30.86 80.4452 29.9841C80.1527 29.4339 79.84 28.8142 79.5388 28.2119C79.0422 27.2259 78.5311 26.208 78.0562 25.4044C77.7861 24.9433 77.556 24.4599 77.3684 23.9595C77.0763 23.1928 76.7051 22.4586 76.2608 21.7688C75.799 21.0362 75.5485 20.389 75.3472 19.8692C75.2835 19.7085 75.2256 19.5594 75.1677 19.4233C75.45 19.4812 75.7323 19.5405 76.0074 19.5999C76.0056 19.6085 76.0046 19.6172 76.0045 19.626C76.0031 19.7548 76.1595 19.8388 76.4418 19.9908C76.7155 20.14 77.0934 20.3441 77.4988 20.6844C78.5123 21.5328 78.7266 21.8774 79.2478 22.8373C79.6894 23.6539 81.2415 26.0429 82.3129 26.4947C82.3606 26.5189 82.413 26.5322 82.4664 26.5338C82.5417 26.5338 82.5707 26.4932 82.5837 26.4686C82.6966 26.2384 82.0002 25.306 80.8419 23.7987C80.3265 23.1269 79.8385 22.4942 79.6127 22.1337C79.4722 21.9064 79.3477 21.6979 79.2333 21.5068C78.9075 20.9696 78.6513 20.5425 78.3038 20.1124C82.6565 21.1392 86.9436 22.4263 91.1421 23.9667C91.6474 24.5053 91.9471 25.0265 92.2584 25.5695C92.5842 26.1327 92.9172 26.7133 93.5065 27.3837C94.7632 28.8171 95.8274 30.7572 96.1489 32.2152C96.3747 33.223 97.0074 34.0642 97.6199 34.8793C97.9529 35.318 98.2671 35.735 98.5031 36.1636C98.8274 36.7428 99.0128 37.3451 99.1923 37.9286C99.3791 38.541 99.5557 39.1202 99.8742 39.5285C100.255 40.0164 100.351 40.3219 100.513 40.8316C100.601 41.1052 100.708 41.4469 100.891 41.903C100.992 42.1593 101.093 42.3895 101.192 42.6139C101.577 43.4985 101.855 44.1414 101.655 44.9768C101.551 45.4083 101.583 45.8253 101.613 46.2278C101.648 46.6781 101.684 47.1371 101.538 47.6438C100.877 47.2668 100.209 46.9024 99.534 46.5507C98.1006 45.8094 95.8607 45.0593 93.4645 44.7075ZM71.0499 45.4329C71.6088 45.2056 72.1851 44.971 72.7584 44.8262C74.4177 44.4093 74.3105 43.29 74.2251 42.3895C74.1933 42.055 74.1628 41.7872 74.1382 41.57C74.0238 40.5854 74.0239 40.5854 74.5465 39.6559L74.7261 39.3301C75.214 38.4556 74.9143 36.75 74.5683 36.1607C74.4886 36.0261 74.4133 35.9609 74.3308 35.9609C74.1657 35.9609 74.118 36.236 74.102 36.3258C73.8964 37.5116 72.9061 38.8567 72.0721 39.6067C71.548 40.0787 71.1556 40.93 70.811 41.6829C70.5837 42.181 70.3665 42.6501 70.1421 42.957C69.7483 43.487 69.285 43.5898 68.5683 43.5898C68.4524 43.5898 68.3337 43.5869 68.2077 43.584C68.0716 43.5825 67.9312 43.5796 67.7835 43.5796C67.3469 43.5758 66.9108 43.6107 66.4804 43.6839C66.1325 43.7372 65.792 43.8305 65.4655 43.9619C63.1271 42.7485 61.0248 41.0198 59.6059 38.7321C59.1012 37.8937 58.6682 37.0141 58.3115 36.1028C58.6619 36.1028 59.0905 35.8349 59.7015 35.237C60.3284 34.6231 60.9408 34.1757 61.4838 33.7804C62.3598 33.1433 63.0518 32.638 63.3212 31.778C63.6643 30.6747 64.5794 27.75 64.2507 26.153C64.0639 25.2495 64.297 23.5714 64.5026 22.0917C64.6358 21.126 64.7632 20.2167 64.7632 19.6115C64.7632 18.5024 64.8009 17.2355 64.8313 16.2191L64.8588 15.2794C65.8158 15.8846 66.8482 16.4971 67.9109 17.0531C67.9318 17.1264 67.9718 17.1929 68.0268 17.2457C69.8018 19.2437 70.0914 19.8808 70.0914 21.8021V22.361C70.0871 24.2505 70.0827 26.6004 70.3984 27.4648C70.6546 28.1699 70.7299 29.3137 70.4433 29.7307C70.3781 29.8234 70.2999 29.8726 70.2087 29.8726C69.5412 29.8856 68.8593 30.0651 68.8593 31.3103C68.8593 31.5376 68.8636 31.7519 68.8694 31.9532C68.8897 32.874 68.9056 33.5372 68.4481 34.4319C67.9022 35.4976 67.5982 37.0265 67.4983 37.5304L67.4852 37.5941C67.4722 37.6607 67.4346 37.8026 67.3868 37.985C67.1363 38.9262 66.6194 40.888 66.9698 41.4006C66.9938 41.4378 67.0257 41.4693 67.0632 41.4929C67.1007 41.5164 67.143 41.5314 67.187 41.5367H67.2174C68.0905 41.5367 70.8921 37.374 71.3178 36.362C71.5422 35.8277 71.4437 35.2514 71.3569 34.7461C71.2439 34.096 71.1484 33.5343 71.6884 33.1737C73.019 32.2876 72.5919 29.0314 72.4297 28.054C72.2951 27.2432 72.0938 26.3571 71.8998 25.5C71.603 24.1911 71.3236 22.9532 71.3236 22.1815C71.3236 22.0135 71.3265 21.8571 71.3294 21.7095C71.3482 20.7394 71.3598 20.0994 70.4404 18.7804C70.2148 18.4593 69.9545 18.1641 69.6643 17.9001C70.8154 18.404 71.9737 18.8021 73.0856 19.0164C73.0756 19.029 73.0669 19.0426 73.0596 19.0569L73.0465 19.083L73.0567 19.1091C73.2492 19.5883 73.7705 20.5873 74.4322 21.8528C75.9235 24.7037 77.965 28.6071 78.0229 30.0217C78.1054 31.9821 78.2676 33.4807 78.5354 34.7331C78.5991 35.0328 78.6802 35.2732 78.7497 35.4874C78.9655 36.1375 79.1073 36.5676 78.5398 37.7664C77.8982 39.1022 77.3274 40.4709 76.8298 41.8668C76.6156 42.4445 76.5214 42.8716 76.4433 43.2148C76.2985 43.8591 76.2116 44.2456 75.5615 44.958C75.2111 45.3446 74.6378 45.7833 74.0991 46.18L74.021 46.1786C72.7774 46.1478 71.5399 45.9955 70.326 45.7239L71.0499 45.4329ZM54.1344 21.6124L54.1937 21.8441C54.6947 23.7828 56.005 36.9831 54.5557 38.1964C53.8897 38.7553 51.5195 39.0246 47.312 39.0246C45.3052 39.0246 43.1045 38.9638 40.9645 38.8769C40.937 38.7032 40.8559 38.5844 40.7719 38.4614C40.575 38.1733 40.3506 37.8475 40.7965 36.6139C40.9457 36.2027 40.7488 33.902 40.4766 33.514C40.4418 33.4662 40.4013 33.4387 40.3593 33.4387C40.2608 33.4387 40.1551 33.54 40.0567 34.2799C39.7193 36.8108 39.3197 37.3436 39.0432 37.3436C38.8535 37.3436 38.5263 37.0902 38.047 35.8871C37.5634 34.6665 37.63 33.5531 37.6865 32.6554C37.7314 31.917 37.7661 31.3349 37.4896 30.9368C37.1537 30.459 37.0234 30.3605 36.9278 30.3605C36.9111 30.3609 36.8947 30.3647 36.8795 30.3717C36.8643 30.3787 36.8507 30.3887 36.8395 30.4011C36.7439 30.514 36.7903 30.8513 36.9032 31.6013C37.0523 32.5772 37.2536 33.9122 37.0712 35.0458C36.8091 36.6631 37.5403 37.251 38.0745 37.6795C38.4655 37.9937 38.7232 38.1993 38.4524 38.6757C38.4365 38.7061 38.422 38.7336 38.409 38.7654C37.1696 38.7061 35.991 38.6453 34.9312 38.5902C32.5552 38.4672 30.7917 38.3789 30.4573 38.4252C30.0215 38.4846 29.9375 38.6959 29.8202 38.987C29.5987 39.5386 29.2946 40.2944 26.325 40.3407C25.5258 40.3538 23.367 41.8538 22.4447 42.4937C22.3403 42.5661 22.2356 42.6381 22.1305 42.7094C21.9293 42.8456 21.6021 43.1699 21.2256 43.5492C20.4365 44.3369 19.5374 45.2331 19.0465 45.181C18.9932 45.1752 18.9395 45.1723 18.8858 45.1723C18.4848 45.1723 18.0866 45.3229 17.6638 45.4792C17.1672 45.6631 16.6547 45.8542 16.0466 45.8542C15.7049 45.8542 15.3718 45.7934 15.0301 45.6689C14.9184 45.6256 14.7996 45.6031 14.6798 45.6023C14.4264 45.6023 14.202 45.7109 13.9645 45.8238C13.6778 45.9628 13.3521 46.1192 12.9133 46.1192C12.8424 46.1192 12.7686 46.1163 12.6962 46.1076C11.6696 45.9918 11.2584 45.5082 10.6373 44.7712C10.575 44.6974 10.5113 44.6206 10.4433 44.5439C10.0393 44.0719 9.7396 44.0574 9.45147 44.04C9.22416 44.0285 8.9925 44.0154 8.73767 43.7896C8.29752 43.3972 8.07454 43.0048 8.05717 42.598C8.03545 42.1245 8.28593 41.6264 8.84481 41.0328C9.31103 40.5362 9.35012 40.1641 9.38632 39.8036C9.42686 39.4112 9.4645 39.0376 10.0161 38.57C10.4621 38.1935 11.0123 38.069 11.6493 37.9286C12.2632 37.7896 12.9568 37.6361 13.7097 37.2133C14.9896 36.4981 16.2521 35.2847 17.1744 34.3972L17.6884 33.9078C18.1648 33.4604 19.9211 32.7452 21.783 31.9894C23.8202 31.1612 25.9283 30.304 26.5306 29.7336C27.2632 29.0386 31.0306 27.653 34.3564 26.4324C35.7275 25.9286 37.0451 25.4435 37.9978 25.0627C38.0146 25.0761 38.0357 25.0828 38.0572 25.0816C38.0948 25.0816 38.2005 25.0787 38.8028 24.7239L39.0099 24.6284C39.1459 24.5688 39.2692 24.4838 39.3733 24.3779C40.8704 23.4918 41.8101 23.2876 42.7193 23.0907C43.4418 22.9373 44.1238 22.7896 45.0157 22.3031C46.8892 21.2809 49.0726 19.3871 49.436 17.6424C49.4983 17.3427 49.5446 17.1979 49.5504 17.1834L49.562 17.1501L49.5258 17.098L49.4476 17.1023L49.4331 17.1429C49.3781 17.3007 48.0678 20.8349 41.9331 22.5261C41.1976 22.7288 40.1754 23.2978 39.3516 23.8451C39.1547 23.5772 38.7449 23.2674 38.2628 22.9025C38.1159 22.793 37.9701 22.682 37.8255 22.5695C38.2454 21.9411 38.7015 21.0695 38.9476 20.5816C39.9727 18.5444 41.7811 16.6795 43.1001 15.3171C43.8023 14.5917 44.3569 14.0198 44.6218 13.6057C44.7507 13.403 44.7623 13.3335 44.7362 13.2872C44.7217 13.2582 44.6942 13.2437 44.6609 13.2437C44.3742 13.2437 42.424 15.1737 40.8545 16.9068C39.8612 18.0043 37.5852 20.6076 37.0943 21.9672C36.7121 21.6351 36.3648 21.2649 36.0576 20.8624C36.3805 19.5304 36.9785 18.0811 38.6045 16.5376C39.0287 16.1351 39.298 15.5618 39.6686 14.7698C40.0031 14.0531 40.4215 13.1612 41.1151 12.0536C42.1937 10.3306 42.1706 10.2872 42.1344 10.222L42.1054 10.1858H42.0692C42.0142 10.1858 41.952 10.2379 41.7333 10.4464C41.5364 10.6303 41.2092 10.9416 41.0731 10.9416C41.0572 10.9416 41.0514 10.9358 41.0485 10.93C41.0311 10.9068 40.9978 10.8185 41.0832 10.4855C41.5494 8.67712 42.1431 7.77509 42.6223 7.04826C42.7961 6.7833 42.9611 6.53426 43.0929 6.27509C43.1971 6.0695 43.1884 6.00289 43.1638 5.96235C43.1551 5.94846 43.1429 5.93713 43.1284 5.9295C43.1139 5.92187 43.0977 5.91821 43.0813 5.91892C42.7801 5.91892 41.3047 7.62596 40.9631 9.27509L40.9573 9.3055C40.533 11.347 40.4042 11.9638 39.8974 13.2119C39.4631 14.279 38.6551 15.5154 37.4954 16.8866C37.4259 16.9706 37.352 17.0545 37.2753 17.1443C36.6933 17.8263 35.9215 18.7225 35.451 19.7823C35.3417 19.5021 35.2655 19.21 35.2237 18.9122C35.1488 18.3576 35.0817 17.8021 35.0224 17.2457C35.1426 16.943 35.2859 16.6679 35.4322 16.3856C35.7869 15.7022 36.1532 15 36.2908 13.7997C36.4877 12.0912 36.285 11.1284 36.0707 10.1076C36.0041 9.79054 35.9346 9.46332 35.8738 9.1028C35.603 7.46959 34.8038 7.07432 34.0755 6.83108C33.424 6.61535 30.5948 6.18533 30.3646 6.18533C30.298 6.18533 30.2893 6.23021 30.2879 6.24469C30.2806 6.30984 30.3183 6.31564 30.5572 6.36486C31.3159 6.51544 33.6136 7.11921 34.3028 7.72297C34.9558 8.29488 35.2309 9.9889 34.8907 11.3499C34.8327 11.5758 34.7864 11.7987 34.7386 12.0304C34.6633 12.3851 34.5837 12.7601 34.4592 13.2032C34.3274 12.7732 34.1624 12.5169 33.9408 12.5169C33.8652 12.52 33.7916 12.5419 33.7266 12.5806C31.866 13.5956 31.6518 14.8335 30.8511 19.4377L30.6498 20.5931C29.797 25.4435 26.063 26.2876 24.0562 26.7408C23.729 26.8132 23.4466 26.8798 23.2251 26.9479C22.966 27.0304 22.6909 27.1129 22.41 27.1969C21.1445 27.5806 19.7082 28.0121 19.1522 28.4812C18.9191 28.6781 18.6715 28.9865 18.4095 29.3123C17.7044 30.1926 16.827 31.2886 15.4254 31.3465C14.2049 31.3957 13.5678 30.5125 13.1088 29.8697C12.8902 29.5627 12.6991 29.2978 12.5383 29.2978C11.3323 29.2978 10.4433 28.7577 10.0972 27.8151C10.0639 27.7239 10.0654 27.653 10.1016 27.5994C10.1378 27.5473 10.2044 27.5212 10.3014 27.5212C10.3897 27.5212 10.491 27.5415 10.5895 27.5589C10.6571 27.5743 10.7259 27.584 10.7951 27.5878H10.811C10.8018 27.5668 10.7901 27.5469 10.7763 27.5285C10.4534 27.0767 10.2999 25.6462 10.8038 24.514C11.0354 23.9913 10.9833 23.8422 10.9602 23.8074C10.9515 23.7929 10.9341 23.777 10.8921 23.777C10.8183 23.777 10.5186 23.8378 9.75842 24.6197C9.12715 25.2698 8.64935 25.6013 8.3395 25.6013C8.18458 25.6013 8.07165 25.5203 8.01518 25.3668C7.79076 24.7514 8.55958 23.1081 9.37473 21.3678C10.0118 20.0068 10.6706 18.5994 10.6966 17.9276C10.721 17.3554 10.6511 16.7831 10.4896 16.2336C10.3882 15.8369 10.3014 15.4952 10.3607 15.0405C10.4389 14.4353 10.992 13.7346 11.577 12.9932C12.3009 12.0753 13.048 11.1269 13.0118 10.2495C13.0002 9.96284 12.5934 9.34604 12.2343 8.80019C11.7956 8.13272 11.5712 7.77654 11.6508 7.62596C11.6638 7.60135 11.6971 7.56226 11.7724 7.56226C11.8115 7.56226 11.8593 7.57094 11.9187 7.59266L11.9331 7.59845L11.9447 7.61004C12.4312 8.15589 13.7705 8.92471 15.2213 8.92471C15.353 8.92471 15.4862 8.91747 15.6151 8.90444C16.1305 8.85521 16.9095 8.77992 16.95 8.60328C16.9935 8.42085 16.3014 7.98793 16.0755 7.84604L16.0161 7.80984L16.0581 7.75627C16.2493 7.50724 16.575 7.18291 16.9211 6.83687C17.5176 6.24035 18.2589 5.49758 18.1966 5.20946C18.164 5.05874 18.1307 4.90816 18.0967 4.75772C17.7131 3.05791 17.2816 1.12934 18.922 0.739864C18.966 0.728699 19.0113 0.723345 19.0567 0.723938C20.4249 0.723938 23.2859 5.32674 23.991 7.77944C24.1402 8.29778 25.1045 8.60762 25.9486 8.60762C26.5523 8.60762 27.0417 8.45849 27.2908 8.19932C27.3569 8.13134 27.408 8.05017 27.4407 7.9611C27.4734 7.87204 27.4869 7.77708 27.4804 7.68243C27.4022 5.9667 26.1397 5.10087 25.6011 4.73021C25.3955 4.58832 25.326 4.54054 25.3492 4.46815C25.3709 4.40299 25.4491 4.40299 25.4925 4.40299C25.6112 4.40299 25.8458 4.4334 26.283 4.49131C29.7507 3.986 32.7681 3.73841 35.506 3.73841C41.9433 3.73841 46.9674 5.05598 52.8429 8.28185L52.9573 8.34556C52.9775 8.39913 52.9992 8.4527 53.0253 8.51206C54.2314 11.2384 54.1677 12.4401 53.7159 14.7234C53.257 17.0429 52.646 18.1752 51.8105 19.251C51.172 20.0748 51.1793 20.5714 51.1894 21.0984C51.1995 21.666 51.2111 22.3103 50.3989 23.5352C47.9389 27.2461 46.6706 27.32 45.3284 27.3996C45.1648 27.4083 43.7256 27.501 43.7285 27.7688C43.7299 27.8484 43.7328 27.9932 45.3313 28.0367C45.4182 28.0396 45.5036 28.0396 45.5876 28.0396C48.6947 28.0396 49.7835 26.528 50.8361 25.0656L50.9273 24.9382C51.2111 24.5458 51.4761 24.2201 51.7338 23.9044C52.4592 23.0125 53.0325 22.3089 53.2338 20.9624C53.3308 20.3065 53.3062 19.8793 53.2859 19.5058C53.2497 18.8615 53.2222 18.3953 53.8665 17.1848C54.8815 15.2751 55.1247 14.3846 54.9495 13.2249C54.8047 12.2693 54.3081 9.93098 53.868 8.87259C54.075 8.99421 54.2907 9.12451 54.5079 9.25772C55.6546 9.94546 57.0055 10.7534 58.2695 11.347C58.2881 11.4015 58.3113 11.4543 58.339 11.5048C59.4814 13.4826 59.4162 15.3359 59.1773 17.0429C59.0962 17.6207 59.0427 18.1766 58.9891 18.7152C58.8718 19.9184 58.7705 20.958 58.423 21.3982C58.2883 21.5676 58.2391 21.6906 58.2724 21.7616C58.2807 21.7778 58.2934 21.7914 58.309 21.8009C58.3246 21.8103 58.3425 21.8153 58.3607 21.8152C58.5808 21.8152 59.1426 21.139 59.4756 19.7954C60.0229 17.583 60.1923 15.4532 59.978 13.4652C59.9227 12.876 59.7206 12.31 59.3902 11.819C59.4901 11.8552 59.5885 11.89 59.6855 11.9204C60.0258 12.0304 60.8004 12.5574 61.8704 13.2901C62.3742 13.6318 62.9418 14.0212 63.5572 14.4266C63.558 14.4751 63.5648 14.5232 63.5774 14.57C64.2449 17.1979 64.2724 18.8079 63.7005 21.7384C63.4022 23.2674 63.3183 24.3634 63.243 25.3306C63.1691 26.2818 63.1054 27.1042 62.8491 28.0396C62.3409 29.9001 61.368 31.9937 60.812 32.7104C60.0663 33.6689 59.3047 34.1337 58.4823 34.1337C58.2446 34.1293 58.0081 34.0982 57.7772 34.041C57.7073 34.0255 57.6368 34.0124 57.5658 34.0019C56.3858 30.3634 55.5779 26.1153 55.0219 23.1834C54.6614 21.2881 54.3776 19.791 54.1952 19.5782C53.8984 19.2365 53.7768 19.1844 53.7319 19.1844C53.7203 19.1844 53.7145 19.1873 53.7073 19.1974C53.5567 19.3827 53.8506 20.515 54.1344 21.6124ZM99.2372 54.1158C99.3602 53.8581 99.7352 53.722 100.317 53.722C101.862 53.722 105.328 54.7963 108.595 57.8122L108.575 57.8137C108.298 57.8415 108.021 57.8613 107.743 57.8731H107.697C106.841 57.8731 105.001 57.3634 104.241 56.916C103.506 56.4831 101.232 55.7128 99.9322 55.5043L99.4486 54.8875C99.1489 54.5082 99.1677 54.2592 99.2372 54.1158ZM110.719 60.6414C110.542 60.7674 109.478 61.1525 108.517 61.1525C108.396 61.1525 108.284 61.1453 108.173 61.1351C107.985 61.1153 107.796 61.1066 107.607 61.1091C107.286 61.1091 106.915 61.1235 106.523 61.138C106.102 61.1539 105.666 61.1684 105.268 61.1684C104.995 61.1684 104.192 61.1684 103.899 61.0019C103.283 60.0999 102.654 59.1863 101.964 58.222C102.061 58.0927 102.186 57.986 102.328 57.9092C102.393 57.8813 102.463 57.8684 102.534 57.8716C102.98 57.8716 103.82 58.1974 104.712 58.5376C105.767 58.9445 106.966 59.4049 107.732 59.4049C107.853 59.4049 107.961 59.3933 108.056 59.3731C108.896 59.1747 109.294 59.0719 109.659 58.8793C110.115 59.3716 110.564 59.9044 110.995 60.4836C110.867 60.5458 110.762 60.6139 110.719 60.6414ZM130.398 9.35762L130.448 9.4778C130.534 9.68629 130.592 9.82239 130.526 9.92229C130.479 9.99324 130.382 10.0236 130.203 10.0236C130.061 10.0236 129.857 10.0048 129.538 9.96284C128.962 9.88995 128.383 9.83154 127.804 9.78764C127.81 9.77172 127.817 9.75868 127.824 9.74421C127.956 9.40395 127.962 9.13175 127.839 8.91602C127.798 8.84544 127.745 8.78228 127.684 8.72924C127.841 8.75096 127.973 8.764 128.073 8.77123C128.331 8.78861 128.558 8.80019 128.764 8.80743C129.783 8.85811 130.207 8.87838 130.398 9.35762ZM124.836 9.32432C124.94 9.01737 124.93 8.59894 124.616 8.29633C125.135 8.3528 125.635 8.42085 126.088 8.486C126.12 8.54646 126.157 8.60369 126.2 8.65685C126.357 8.87548 126.598 9.20849 126.514 9.63561C126.51 9.65952 126.508 9.68375 126.508 9.70801C125.997 9.68419 125.485 9.6726 124.973 9.67326L124.642 9.67616C124.727 9.5716 124.793 9.45238 124.836 9.32432ZM122.712 8.24421C122.853 8.90154 123.223 9.42422 123.608 9.70511C123.03 9.73407 122.497 9.7804 122.011 9.84701C122.088 9.688 122.115 9.50914 122.088 9.33446C122.018 8.72345 121.629 8.34556 120.978 8.2471C121.552 8.17754 122.131 8.15092 122.709 8.16747C122.709 8.19353 122.709 8.21815 122.712 8.24421ZM119.101 8.76978C119.115 8.79874 119.144 8.8248 119.208 8.84363C120.226 9.12886 120.353 9.68484 120.43 10.0179C120.441 10.0685 120.454 10.1163 120.467 10.1612C120.338 10.199 120.209 10.2406 120.082 10.2857C119.813 10.3813 119.419 10.6737 118.933 11.1211C118.934 11.1146 118.936 11.1083 118.938 11.1023C119.03 10.749 119.006 10.4624 118.863 10.2249C118.621 9.82818 118.081 9.65733 117.635 9.55309C117.627 9.55019 117.617 9.55019 117.608 9.54874C118.089 9.25858 118.587 8.99843 119.101 8.76978ZM112.492 13.7389C112.518 13.758 112.546 13.7726 112.576 13.7823C112.694 13.8211 112.816 13.8407 112.94 13.8402C113.395 13.8402 113.806 13.6013 113.904 13.5405C114.527 13.6535 115.495 14.2485 115.736 14.5541C115.752 14.5727 115.771 14.5888 115.792 14.6018C115.225 15.3027 114.672 16.0142 114.131 16.736C113.833 15.2606 113.176 15.1057 111.729 15.1057H111.557C111.401 15.1071 111.253 15.1346 111.118 15.1752C111.583 14.6713 112.041 14.1906 112.492 13.7389ZM110.025 16.3943L110.305 16.0758L110.321 16.0743C111.33 16.0743 113.077 17.0198 113.282 17.208C113.335 17.2558 113.46 17.3644 113.602 17.4513C113.363 17.7756 113.125 18.1042 112.885 18.4416C112.843 18.5039 112.797 18.5661 112.753 18.6284C112.773 18.3417 112.624 18.0825 111.987 17.7799C111.488 17.5439 110.817 17.4064 110.148 17.4064C109.71 17.4064 109.323 17.4657 109.02 17.57C109.348 17.1805 109.681 16.7881 110.025 16.3943ZM107.557 19.3769C107.625 19.3697 107.72 19.3234 107.901 19.235C108.301 19.0396 108.973 18.7124 109.75 18.7124C110.203 18.7124 110.633 18.8253 111.033 19.0468C111.36 19.2307 111.603 19.4189 111.798 19.5724L111.996 19.7215C111.501 20.4527 111.011 21.1984 110.555 21.9324C110.352 21.7158 110.116 21.5313 109.857 21.3851C109.633 21.2577 109.217 21.1868 108.714 21.1868C107.532 21.1868 105.864 21.5806 105.052 22.6969L105.049 22.6998C105.862 21.5748 106.698 20.467 107.557 19.3769ZM104.183 23.9117C104.301 23.9567 104.426 23.9788 104.552 23.9768C105.03 23.9768 105.689 23.7625 106.131 23.5497C106.546 23.3499 107.186 23.2312 107.838 23.2312C108.284 23.2312 108.937 23.2862 109.524 23.5512L109.579 23.5758C109.39 23.9073 109.206 24.2423 109.029 24.5806C108.997 24.5734 108.961 24.569 108.922 24.5734C108.759 24.586 108.595 24.5913 108.431 24.5893C108.21 24.5893 107.946 24.5835 107.652 24.5791C107.293 24.5734 106.888 24.5647 106.469 24.5647C105.544 24.5647 104.328 24.598 103.533 24.8383L104.183 23.9117ZM116.112 10.5565C117.341 10.626 118.128 11.7886 118.135 11.8002L118.155 11.819C118.17 11.8272 118.185 11.834 118.201 11.8393C117.651 12.4112 117.024 13.1149 116.354 13.9184L116.345 13.8851C115.963 12.7196 115.27 11.9493 114.651 12.0087C114.528 12.0203 114.328 12.0956 114.101 12.2099C114.793 11.5888 115.464 11.0372 116.112 10.5565ZM118.039 60.1216C118.175 59.9508 118.327 59.7553 118.507 59.541L118.589 59.444C119.367 58.5159 119.367 58.5159 119.706 57.598L119.765 57.4343C120.108 56.5106 120.182 56.4281 120.753 55.7693L121.136 55.3204L121.361 55.054C121.588 54.7818 121.658 54.7008 121.691 54.7008H121.702C121.786 54.7008 121.917 54.6718 122.274 54.4517C122.335 54.4155 122.387 54.3779 122.435 54.3417C122.891 55.5622 123.369 56.8566 123.866 58.2365C123.834 58.3016 123.816 58.3755 123.808 58.4117C123.759 58.6191 123.735 58.8314 123.735 59.0444C123.727 59.415 123.724 59.6366 122.893 60.653C121.585 62.2572 120.472 62.4976 119.926 62.4976C119.768 62.4976 119.616 62.4773 119.473 62.4397C119.419 62.4247 119.364 62.4174 119.309 62.4179C119.199 62.2841 119.086 62.1528 118.97 62.0241L118.875 61.9184L117.663 60.5835C117.766 60.4691 117.887 60.3156 118.039 60.1216ZM120.415 63.8716L120.585 63.8484C121.213 63.7616 122.163 63.6327 122.972 63.1679C123.887 62.6467 124.597 61.5767 124.695 60.569L124.697 60.5531L125.24 62.0791C125.328 62.3296 125.421 62.4614 125.512 62.528C125.361 62.7582 125.258 63.2114 125.47 63.75C125.922 64.9126 125.855 65.6395 125.182 66.8644C125.014 67.1742 124.482 67.1655 123.993 67.1583L123.764 67.1554C123.621 67.1554 123.436 67.1554 123.275 67.1916C123.075 67.0101 122.871 66.832 122.665 66.6573C121.969 66.0651 121.319 65.1501 120.632 64.1829L120.411 63.8702L120.415 63.8716ZM124.394 68.0038C124.686 67.9561 124.991 67.9068 125.241 67.9068C126.111 67.9068 126.409 67.0917 126.609 65.7741C126.774 64.7381 126.651 63.6768 126.253 62.7061C126.225 62.6329 126.188 62.5633 126.143 62.499C126.324 62.4426 126.53 62.3774 126.756 62.3774C126.87 62.3774 126.976 62.3933 127.086 62.4252C127.623 62.583 127.807 63.1983 128.083 64.1322C128.389 65.1617 128.809 66.5704 129.936 68.1863C130.278 68.68 130.611 69.3344 130.956 70.0989C130.947 70.0788 130.932 70.0617 130.914 70.0498C130.895 70.038 130.874 70.0319 130.852 70.0323C130.663 70.0323 130.217 70.4203 129.554 71.014C129.344 71.2074 129.127 71.3929 128.903 71.57C128.641 71.7524 128.211 72.278 127.975 72.8687C127.877 72.5961 127.757 72.3317 127.617 72.0782C126.834 70.7664 125.397 69.2186 124.175 68.0386C124.248 68.0256 124.322 68.014 124.394 68.0038Z" fill="white"/>
<path d="M23.1745 18.4966C23.0369 18.2244 22.6634 18.0362 22.3362 17.8711C22.1059 17.7567 21.8685 17.6366 21.8323 17.5323C21.6629 17.0371 21.6166 16.4696 21.5717 15.9208C21.5022 15.0854 21.4385 14.2963 20.9679 13.7736C20.6624 13.4334 20.3106 13.1655 19.9718 12.9078C19.4679 12.5256 19.0335 12.1954 18.9351 11.7509C18.8424 11.3325 18.9061 11.2152 18.98 11.0777C19.0696 10.9238 19.1133 10.7474 19.1059 10.5695C19.1059 10.1887 18.6238 9.74998 18.4167 9.57913C18.0982 9.31561 17.6696 9.05065 17.4612 9.05065C17.4414 9.05012 17.4217 9.05356 17.4032 9.06079C17.2411 9.11291 17.2816 9.29245 17.3265 9.50094C17.3873 9.77459 17.4698 10.1481 17.2802 10.5738C17.1788 10.8026 17.1571 10.972 17.1412 11.0951C17.105 11.3745 17.0948 11.4512 16.0437 11.7017C15.8265 11.7553 15.6021 11.7813 15.3777 11.7813C14.6494 11.7813 14.0152 11.4947 13.9385 11.1284C13.8806 10.8663 14.1281 10.597 14.632 10.3711C14.8941 10.2524 14.8926 10.0989 14.8796 10.0367C14.8521 9.91069 14.716 9.82092 14.548 9.82092C14.4394 9.82092 14.1643 9.86291 13.9544 10.2495C13.876 10.4079 13.8265 10.579 13.8082 10.7548C13.7662 11.0212 13.7459 11.1689 13.4071 11.1935C13.0234 11.221 12.7194 11.3832 12.715 11.5642C12.7121 11.6597 12.786 11.7828 13.1479 11.8291C13.2174 11.8378 13.2913 11.8422 13.3622 11.8422C13.5418 11.8422 13.6923 11.8146 13.8125 11.7958C13.8786 11.7804 13.946 11.7707 14.0138 11.7669C14.0775 11.7669 14.1383 11.7669 14.1383 11.9768C14.1383 12.1332 14.0398 12.4561 13.9443 12.7659C13.7575 13.3755 13.6532 13.7562 13.7633 13.9039C13.8371 14.0038 13.979 13.9865 14.2063 13.8156C15.1069 13.1438 15.5427 13.0468 15.8612 12.9744C16.0488 12.9467 16.2267 12.8737 16.3796 12.7616C16.4853 12.679 16.5635 12.6877 16.6141 12.7992C16.6909 12.9729 16.6648 13.3755 16.423 13.6737C16.0509 13.4594 15.5123 13.4956 14.881 13.7722C14.5147 13.9314 13.9428 14.3658 14.2063 15.4763C14.2773 15.7746 13.9081 16.1959 13.5171 16.6419C13.0944 17.124 12.6571 17.6221 12.6687 18.0825C12.6759 18.3562 12.8366 18.3952 12.9307 18.3967C13.5229 18.3952 15.036 16.8359 15.5094 16.2423L15.6861 16.0265C15.8004 15.889 15.8178 15.8687 15.7961 15.8224L15.7729 15.7847H15.7338C15.7109 15.7864 15.6884 15.7918 15.6672 15.8007C15.5893 15.8271 15.5077 15.8413 15.4254 15.8426C15.2979 15.8428 15.1736 15.8022 15.0707 15.7268C14.8144 15.5487 14.8202 15.4966 14.8202 15.4937C14.8289 15.4647 14.9708 15.4285 15.0533 15.4083C15.2734 15.3504 15.5746 15.2736 15.6861 15.0202C15.7367 14.9059 15.77 14.7987 15.8019 14.7046C15.9003 14.3948 15.9568 14.221 16.4665 14.1588C16.6214 14.7162 16.2174 15.2881 15.8439 15.6761L15.7425 15.7804H15.8888C16.4737 15.7804 16.9066 16.2394 17.0615 16.6679C17.147 16.8996 17.1383 17.1008 17.0427 17.1805C16.8588 17.3325 16.7112 17.5656 16.5562 17.8089C16.326 18.1694 16.0886 18.5415 15.7223 18.6617C15.6223 18.681 15.5212 18.6946 15.4196 18.7022C15.3342 18.7022 15.2835 18.7036 15.2835 18.7674L15.2908 18.8296H15.353C15.3767 18.8289 15.4004 18.8275 15.424 18.8253H15.4616C15.563 18.8253 15.66 18.8108 15.7527 18.7833C16.2348 18.6921 17.118 18.4242 17.6349 17.6366C18.0577 16.9937 18.1518 16.1322 17.91 15.0825C17.7406 14.3397 17.7695 14.1023 17.826 14.0328C17.8376 14.0183 17.8506 14.0125 17.8709 14.0125C18.0041 14.0125 18.2807 14.2645 18.5253 14.4874C18.8801 14.8103 19.2507 15.1375 19.4882 15.068C19.5314 15.0548 19.5762 15.048 19.6214 15.0478C20.0775 15.0478 20.535 15.6617 20.7869 16.2683C21.0287 16.8504 21.0635 17.3687 20.8781 17.5569C20.6957 17.7394 20.1499 17.9001 19.5722 18.0709C18.576 18.3648 17.4481 18.6993 17.5046 19.3291C17.5683 20.0241 17.7609 20.3788 18.0751 20.3788C18.2083 20.3788 18.3603 20.3093 18.5253 20.1732C18.6252 20.0878 18.7628 19.9561 18.9221 19.8011C19.4563 19.2828 20.2628 18.5009 20.7797 18.5009C20.8999 18.5009 20.9925 18.5444 21.0678 18.6312C22.1508 19.9039 21.9438 20.2413 21.7063 20.6337C21.5963 20.8132 21.4718 21.0173 21.4573 21.32C21.4341 21.8195 21.4805 22.1235 21.5992 22.248C21.6178 22.2683 21.6404 22.2846 21.6655 22.2958C21.6907 22.307 21.7179 22.3129 21.7454 22.3132C22.103 22.3132 22.6098 21.3069 22.7749 20.4816C22.8834 19.9401 23.0181 19.6013 23.1195 19.3537C23.2527 19.0164 23.3323 18.8151 23.1745 18.4966Z" fill="white"/>
<path d="M24.2807 13.348C24.2377 13.1275 24.1904 12.9078 24.1388 12.6892C23.9535 11.9001 23.3048 11.4599 22.7329 11.0705C22.2261 10.7259 21.7889 10.4276 21.7512 9.96863C21.7266 9.67037 21.6673 9.32722 21.4153 9.32722C21.2908 9.32722 21.1576 9.41554 21.0157 9.5082C20.8391 9.62403 20.6523 9.73986 20.5278 9.66457C20.16 9.4416 19.8531 9.16216 19.5316 8.8668C19.035 8.41361 18.521 7.94739 17.7696 7.69546C17.6684 7.65456 17.5623 7.6273 17.4539 7.61438C17.3902 7.61438 17.3685 7.64768 17.3613 7.6694C17.3309 7.75193 17.4206 7.82867 17.8941 8.22249C19.2681 9.36341 22.9182 12.3967 23.9853 17.2587C24.3589 18.9628 24.2445 19.2669 24.0534 19.7693C23.8854 20.2124 23.6552 20.8219 23.6755 22.6839C23.6813 23.2124 23.8724 23.3253 24.0302 23.3253C24.479 23.3253 25.2681 22.3711 26.0949 20.8364C27.2908 18.6168 27.0041 18.0463 25.5997 15.9947C24.4877 14.3745 24.4443 14.1573 24.2807 13.348ZM29.4481 14.6858C28.9457 14.376 28.5809 14.3687 28.229 14.3629C27.7889 14.3542 27.4081 14.347 26.8101 13.7505C26.4641 13.4044 26.008 12.8152 25.5259 12.1911C24.8309 11.292 24.1127 10.3624 23.6031 10.0063C23.4482 9.89623 23.3902 9.88175 23.354 9.88175C23.3178 9.88175 23.2889 9.90058 23.2744 9.92954C23.2064 10.0729 23.6118 10.6144 25.0481 12.3996C25.7039 13.2162 26.383 14.0603 26.7985 14.6496C26.9954 14.9247 27.3458 14.9595 27.7512 14.9971C28.4361 15.0608 29.2889 15.1419 29.9129 16.3986C29.9636 16.5014 30.023 16.5536 30.0896 16.5536C30.1315 16.5536 30.2083 16.529 30.2503 16.3769C30.3487 16.0222 30.217 15.1593 29.4481 14.6858Z" fill="white"/>
</svg>
