<svg width="265" height="182" viewBox="0 0 265 182" fill="none" xmlns="http://www.w3.org/2000/svg">
<path d="M264.439 167.937C264.131 167.372 263.89 166.921 264.221 166.277C265.167 164.415 264.61 163.1 263.767 161.098C263.476 160.409 263.143 159.625 262.829 158.708L262.7 158.328C261.905 155.997 261.905 155.997 260.633 153.904C260.074 152.988 259.52 152.069 258.973 151.145C257.438 148.554 256.326 145.509 255.245 142.567C254.145 139.566 253.108 136.728 251.759 134.805C250.134 132.495 249.294 129.98 248.678 128.144C248.286 126.975 248.003 126.132 247.664 125.752C246.863 124.856 245.967 124.739 245.27 124.739C245.116 124.739 244.97 124.744 244.83 124.75C244.71 124.756 244.595 124.762 244.486 124.762C244.099 124.762 243.923 124.698 243.839 124.522C243.365 123.55 242.206 120.373 240.607 115.975C235.264 101.28 225.308 73.936 219.292 69.4475C216.363 67.2691 210.653 60.936 210.166 56.6027C209.706 52.4978 225.974 26.3748 230.889 23.3327C233.225 21.8833 235.07 20.7385 241.427 20.7385C243.679 20.7385 246.396 20.882 249.731 21.1777C250.238 21.2245 250.731 21.245 251.204 21.245C254.271 21.245 256.057 20.3286 256.469 19.4239C256.682 18.9495 256.69 18.5367 256.489 18.2029C255.819 17.0903 252.915 17.0757 250.355 17.064C249.011 17.0581 247.737 17.0523 247.006 16.8854C243.469 16.0802 240.192 15.6703 237.272 15.6703C234.051 15.6703 231.273 16.1739 229.027 17.1664C219.018 21.5818 205.858 40.0599 200.238 47.9565C198.81 49.9622 197.776 51.4144 197.521 51.6047C197.373 51.7131 197.101 51.7745 196.72 51.7745C196.079 51.7745 195.214 51.6282 194.211 51.4583C192.965 51.2505 191.556 51.0133 190.268 51.0133C189.307 51.0133 188.537 51.145 187.916 51.4144C187.896 51.4261 187.86 51.432 187.795 51.432C187.238 51.432 185.692 50.7468 183.359 49.7016C176.862 46.8059 163.338 40.7773 143.774 37.5155C134.776 36.0135 126.828 30.2572 121.569 26.448C118.738 24.4013 116.693 22.9198 115.416 22.6914C112.193 22.1176 108.409 19.5205 105.371 17.4358C103.679 16.2764 102.22 15.275 101.257 14.909C100.574 14.6484 99.6551 14.136 98.4873 13.4919C95.0875 11.6004 89.9486 8.75157 82.8802 7.5804C76.6603 6.5527 73.0532 6.175 69.5722 6.175C68.2168 6.175 66.8557 6.23356 65.1586 6.35946C64.1365 6.43558 62.9406 6.49122 61.6776 6.54685C57.5217 6.73131 52.8085 6.94212 50.7417 8.08987C50.5589 8.17975 50.3583 8.2229 50.1564 8.21577C47.7816 8.21577 41.6373 4.2982 40.265 2.24572C39.3269 0.840316 37.9798 0 36.6608 0C35.7114 0 34.8601 0.453828 34.2608 1.28243C32.9585 3.08018 32.8801 6.45315 34.0367 10.7748C33.4514 11.3867 32.9585 11.9664 32.5217 12.4788C31.5695 13.5944 30.8778 14.4025 30.0432 14.6543C29.3543 14.8592 28.6766 14.9646 28.0297 14.9646C25.5512 14.9646 23.8009 13.4392 22.5239 12.3236C22.2466 12.0836 21.9834 11.8523 21.7369 11.659C21.6534 11.5858 21.549 11.5436 21.4401 11.539C21.3589 11.539 21.2413 11.5712 21.1432 11.7146C20.8072 12.2036 20.8996 13.6763 21.3505 15.07C21.7033 16.168 22.269 17.307 22.7675 18.3083C23.294 19.3653 23.7477 20.2759 23.8401 20.8849C24.039 22.182 22.5967 23.8948 21.2021 25.552C20.0594 26.8989 18.8832 28.2984 18.5192 29.5428C18.1803 30.7052 18.4296 32.0432 18.6732 33.3374C18.8664 34.368 19.0485 35.343 18.9 36.1043C18.6536 37.3691 17.8162 39.4919 16.9313 41.7435C15.4162 45.5878 13.7051 49.9446 14.3408 51.5052C15.363 54.0144 16.7773 54.3336 17.5362 54.5034C17.7714 54.559 17.9731 54.6 18.0207 54.6849C18.0403 54.7171 18.0403 54.7727 18.0207 54.8489C17.8162 55.6336 18.2951 57.0917 19.1325 58.2365C19.7738 59.1178 21.1964 60.5935 23.4789 60.5935C23.9353 60.5935 24.3106 61.1351 24.7867 61.8144C25.6912 63.1115 26.9375 64.8975 29.8948 64.8155C32.8773 64.7394 34.7004 62.6079 36.1679 60.9009C37.1005 59.8117 37.9098 58.8718 38.7276 58.8718C39.4501 58.8718 40.1866 58.9597 40.8979 59.0504C41.5925 59.1295 42.3066 59.2203 42.9899 59.2203C43.6816 59.2402 44.3703 59.1188 45.0175 58.8631C45.9052 58.5 46.1993 57.686 46.4821 56.8955C46.6922 56.3099 46.8938 55.7507 47.3251 55.4169C48.0784 57.2088 48.2464 59.964 47.2859 61.182C46.5717 62.0867 42.301 62.7162 39.1784 63.1788C38.5175 63.2754 37.8958 63.3662 37.3553 63.4541C34.7733 63.8728 26.5538 66.9734 24.9799 67.682C24.5234 67.8811 23.6749 68.1475 22.6863 68.452C19.9502 69.2953 16.2004 70.4577 15.3042 71.9538C14.9934 72.4721 14.3436 72.7239 13.3215 72.7239C12.4001 72.7239 11.3163 72.5277 10.2633 72.3345C9.29154 72.1588 8.37578 71.9919 7.65605 71.9919C7.3732 71.9919 7.14076 72.0182 6.94472 72.068C5.85813 72.355 5.56408 72.8908 5.35124 73.289C5.17481 73.614 5.05719 73.8336 4.5755 73.8336C3.21726 73.8336 2.35471 74.6007 1.99905 75.318C1.52576 76.2696 1.57057 77.0367 1.61818 77.8536C1.65178 78.4509 1.68819 79.0716 1.51176 79.8124C1.36595 80.3505 1.19301 80.8803 0.993668 81.3993C0.276741 83.3903 -0.703433 86.1162 0.752825 86.9917C1.747 87.5919 2.49753 88.3971 3.15845 89.1115C4.21424 90.2505 5.1188 91.2255 6.62827 91.0673C6.87751 91.041 7.12395 91.0264 7.3592 91.0264C8.82666 91.0264 9.73122 91.5212 10.5322 91.9574C11.1007 92.2619 11.5907 92.5313 12.1564 92.5313C12.3679 92.5308 12.5779 92.4942 12.7782 92.423C13.7723 92.0775 14.5033 91.6793 15.0886 91.3631C15.7943 90.9795 16.3068 90.7014 16.8865 90.7014C17.2533 90.7014 17.6342 90.8097 18.0823 91.0498C18.6676 91.3631 19.1913 91.9516 19.7458 92.5752C20.6504 93.5824 21.6753 94.7273 23.3192 95.1986C23.7141 95.307 24.1174 95.3655 24.5514 95.3655C25.526 95.3655 26.4922 95.0815 27.4248 94.8122C28.3265 94.5516 29.2591 94.2764 30.1692 94.2764C30.4801 94.2764 30.7685 94.3086 31.0542 94.373C31.4155 94.4491 31.7375 94.4872 32.0316 94.4872C32.8129 94.4872 33.2862 94.2119 33.7847 93.925C34.3924 93.5736 35.0197 93.2047 36.3247 93.2047C36.6104 93.2047 36.9156 93.2223 37.2433 93.2604C37.8706 93.3365 39.3577 91.9223 40.9315 90.4173C42.3626 89.0529 43.8413 87.6387 44.5134 87.5246C44.5578 87.5167 44.6028 87.5128 44.6478 87.5128C45.6308 87.5128 49.5823 88.2653 54.1611 89.132C60.5686 90.3441 67.8695 91.7261 69.7851 91.5827C71.7538 91.4392 74.3443 88.2624 76.6295 85.4633C78.293 83.4254 79.8668 81.4959 80.8106 81.2412C81.774 80.9836 86.616 80.5707 90.5367 80.5707C92.8415 80.5707 94.4434 80.7171 95.1604 80.9894C96.1685 81.37 100.417 83.3142 105.794 85.7766C116.637 90.7423 131.486 97.541 134.586 98.3315C137.316 99.0284 140.722 99.3651 144.998 99.3651C148.924 99.3651 153.055 99.0869 157.046 98.8176C160.751 98.5687 164.249 98.3345 167.343 98.3345C170.46 98.3345 172.796 98.5863 174.479 99.1045C185.479 102.492 194.22 116.353 200.605 126.469C201.939 128.628 203.32 130.755 204.747 132.849C206.189 134.913 208.012 136.687 209.773 138.406C212.039 140.611 214.383 142.895 215.993 145.843C219.376 152.03 223.202 159.777 222.745 164.763C222.678 165.536 222.6 166.292 222.53 167.027C222.093 171.445 221.746 174.929 222.925 175.945C223.202 176.171 223.528 176.323 223.874 176.387C224.364 176.516 224.829 176.633 225.291 177.57C225.453 177.889 225.585 178.241 225.711 178.577C226.05 179.464 226.366 180.299 227.117 180.495L227.601 180.612C228.338 180.785 229.032 180.946 230.408 181.772C230.652 181.92 230.929 181.999 231.211 182C232.474 182 233.681 180.401 234.65 179.122C234.832 178.882 235.009 178.65 235.171 178.446C235.838 177.608 235.801 176.683 235.765 175.936C235.734 175.28 235.712 174.762 236.115 174.449C236.583 174.077 236.753 173.278 236.815 172.669C236.933 171.474 236.723 170.127 236.336 169.668C235.227 168.344 234.603 166.699 234.143 165.501C233.976 165.018 233.776 164.548 233.544 164.096C231.923 161.311 231.444 156.849 231.088 153.596C230.842 151.321 230.699 150.127 230.34 149.875C229.29 149.128 227.627 142.839 226.534 138.675C225.742 135.68 225.316 134.108 225.087 133.894C224.762 133.595 224.35 133.309 223.882 132.972C222.958 132.31 221.846 131.514 220.863 130.278C220.849 130.247 220.829 130.219 220.805 130.196C220.791 130.176 220.771 130.164 220.757 130.149C219.85 128.948 219.199 127.559 218.847 126.074L218.536 124.809C217.508 120.713 216.234 115.624 215.881 112.096C218.595 113.715 233.564 132.896 235.216 135.469C235.748 136.301 236.465 136.86 237.372 137.563C239.504 139.22 242.719 141.723 246.508 150.677C247.871 153.895 248.74 158.31 249.504 162.207C250.367 166.576 251.109 170.347 252.33 171.621C253.433 172.771 254.237 172.903 254.878 173.011C255.287 173.082 255.606 173.137 255.9 173.436C257.533 175.075 258.351 175.86 259.141 175.86C259.483 175.846 259.809 175.704 260.059 175.459C260.521 175.084 261.02 174.76 261.546 174.493C262.731 173.828 264.069 173.079 264.75 171.126C265.302 169.53 264.823 168.646 264.439 167.937ZM259.706 173.963C259.552 174.033 259.385 174.069 259.216 174.068C258.202 174.068 257.057 172.894 256.382 171.884C255.979 171.284 255.371 171.017 254.727 170.73C254.089 170.446 253.433 170.154 252.946 169.515C252.537 168.982 251.831 165.615 250.935 161.358C250.151 157.622 249.244 153.309 248.356 150.056C248.636 149.857 248.916 149.5 249.162 149.029C249.728 147.954 249.975 147.582 251.341 145.527L251.406 145.43C252.456 143.846 252.492 143.84 253.078 143.744C253.274 143.711 253.54 143.673 253.909 143.562C253.957 143.553 253.999 143.536 254.041 143.521L254.436 144.464C255.998 148.238 257.766 152.513 260.37 156.366C261.132 157.496 264.098 163.657 262.414 166.183C262.137 166.602 262.524 167.559 262.893 168.485C263.347 169.609 263.812 170.771 263.333 171.416C262.518 172.522 261.291 173.234 259.706 173.963ZM225.739 109.089C226.632 108.131 227.403 107.3 227.823 105.686C228.78 102.101 228.917 98.3311 228.223 94.6804C227.66 91.6002 223.994 84.8777 223.53 84.8777L223.454 84.8836L223.415 84.9363C223.367 85.0095 223.375 85.109 223.454 85.3345C225.137 90.4408 225.386 97.0813 224.008 100.138C223.263 101.789 222.771 104.612 222.373 106.878C222.054 108.676 221.785 110.231 221.485 110.723C221.23 111.147 220.578 111.475 219.942 111.782C219.455 112.028 218.982 112.266 218.693 112.547C218.139 111.946 217.592 111.373 217.08 110.831C218.298 110.532 219.586 109.42 220.135 106.986C220.777 104.129 221.149 101.579 221.149 96.9935C221.149 96.3376 221.155 95.7374 221.16 95.1811C221.197 91.9282 221.214 90.1363 219.97 86.289C219.382 84.4737 219.074 82.9658 218.808 81.6365C218.413 79.7216 218.105 78.205 217.144 76.8581C216.831 76.4062 216.534 75.9423 216.254 75.4673C215.624 74.4309 214.974 73.3563 214.145 72.718C213.865 72.5043 213.697 72.5013 213.619 72.639C213.479 72.8761 213.767 73.5466 214.459 74.955C214.602 75.2448 214.725 75.4966 214.795 75.6577C216.066 78.5768 217.424 83.0302 217.424 86.7721C217.424 88.0809 217.464 89.3486 217.5 90.5725C217.57 92.8914 217.637 95.0815 217.424 97.1106C217.273 98.516 216.979 99.5525 216.719 100.46C216.402 101.57 216.125 102.53 216.181 103.859C216.209 104.615 216.352 105.37 216.489 106.102C216.794 107.713 217.035 108.98 215.94 109.396L215.764 109.472C214.537 108.301 210.975 105.733 206.752 102.914C206.822 102.34 206.841 101.652 206.816 100.87C206.743 98.5921 207.021 96.9613 207.298 95.3831C207.617 93.5473 207.922 91.8169 207.555 89.3662C207.278 87.5128 207.088 86.8599 206.931 86.33C206.718 85.6009 206.578 85.1207 206.385 81.8005C206.13 77.3939 202.935 71.4239 200.369 66.6279C199.585 65.161 198.843 63.7732 198.275 62.602C195.97 57.8149 195.729 57.8149 195.583 57.8149C195.558 57.8157 195.532 57.8227 195.509 57.8354C195.487 57.8481 195.467 57.8661 195.452 57.8881C195.191 58.2921 196.734 62.684 200.081 71.7723C200.663 73.3534 201.212 74.8437 201.618 75.968C203.22 80.4214 203.377 84.9246 203.517 88.8948C203.542 89.7234 203.573 90.514 203.61 91.2723C203.747 93.8284 204.128 96.2351 204.436 98.1676C204.654 99.5496 204.845 100.756 204.895 101.684C202.619 100.185 200.319 98.7279 197.995 97.3126C198.172 96.8441 198.294 96.3543 198.356 95.8545C198.863 92.2444 198.501 84.5176 197.692 81.6013C197.273 80.1418 196.789 78.7036 196.241 77.2914C195.747 76.0069 195.295 74.7052 194.886 73.3885C194.659 72.6419 194.491 72.0417 194.346 71.5088C193.869 69.752 193.631 68.8736 192.083 66.6367C191.313 65.5419 190.486 64.4931 189.604 63.495C188.694 62.4351 187.907 61.5158 187.173 60.2158C186.49 59.0095 185.502 57.6919 184.552 56.4153C183.614 55.1592 182.645 53.8651 182.004 52.7173C181.435 51.7014 180.912 50.8054 180.377 50.05L180.444 50.0793C184.079 51.4964 186.476 52.4363 187.563 52.4363C187.686 52.4407 187.81 52.4219 187.927 52.3806C188.24 52.2664 188.638 52.2108 189.139 52.2108C190.072 52.2108 191.22 52.404 192.441 52.6119C193.413 52.7759 194.407 52.9457 195.334 53.0219C195.6 53.3527 196.143 53.8095 196.989 54.4975C198.188 55.4842 199.832 56.8282 200.952 58.2746C204.873 63.3399 206.362 67.6995 207.25 70.3025C207.586 71.2863 207.83 72.0036 208.096 72.4369C209.306 74.4104 210.034 75.8128 210.384 76.4863C210.67 77.0367 210.67 77.0367 210.759 77.0367H210.824L210.857 76.984C210.91 76.9167 210.91 76.9167 210.717 76.2725C210.353 75.0696 210.019 73.857 209.715 72.636C208.774 68.9088 207.819 67.2809 206.813 65.5563C206.094 64.3858 205.471 63.1536 204.951 61.873C203.61 58.5205 199.888 54.3863 197.681 52.9018C198.15 52.8016 198.579 52.5545 198.91 52.1932C199.011 52.0791 199.227 51.7628 199.549 51.2856C200.126 51.4261 201.288 51.4788 203.282 51.5462C205.749 51.6282 208.818 51.7306 209.53 52.2782C209.572 52.3104 209.617 52.3367 209.659 52.3601C208.76 54.4975 208.281 56.2718 208.443 57.3845C208.813 59.9025 211.319 62.8304 214.492 66.5372C216.355 68.7068 218.461 71.1633 220.432 73.9126C225.26 80.6293 229.699 90.1421 236.342 108.576C236.281 108.584 236.226 108.614 236.185 108.661C236.171 108.683 236.162 108.708 236.16 108.734C235.814 108.901 235.459 109.045 235.096 109.165C233.883 109.61 232.054 110.289 230.998 111.173C230.102 111.923 229.013 113.724 227.862 115.63C226.977 117.097 226.061 118.605 225.173 119.755C224.143 118.584 223.042 117.346 221.942 116.113C223.076 111.946 224.546 110.368 225.739 109.089ZM226.599 143.413C226.582 143.407 226.568 143.401 226.551 143.401C226.47 143.401 226.26 143.401 225.196 144.751C224.921 145.099 224.637 145.438 224.342 145.767C223.74 146.449 223.378 146.865 222.961 148.027C222.871 148.282 222.642 148.405 222.258 148.405C221.606 148.405 220.653 148.036 219.889 147.74C219.315 147.515 218.855 147.336 218.601 147.336C218.583 147.336 218.565 147.338 218.547 147.342C216.912 144.326 215.377 142.013 214.714 141.325C214.207 140.794 213.705 140.258 213.207 139.718C214.251 140.362 215.419 140.76 216.254 140.76C217.038 140.76 217.492 140.4 217.492 139.771C217.492 137.132 217.982 136.087 219.446 134.289C219.925 133.704 220.231 133.373 220.429 133.148C220.464 133.116 220.496 133.082 220.525 133.045C221.678 135.065 222.95 136.816 224.308 137.548C224.639 137.739 225.302 139.577 226.599 143.413ZM235.644 172.417C235.65 172.653 235.609 172.887 235.522 173.104C235.435 173.322 235.305 173.518 235.14 173.679C234.412 174.338 234.516 175.034 234.619 175.766C234.723 176.472 234.83 177.204 234.255 177.948C233.958 178.333 233.677 178.733 233.415 179.145C232.852 180 232.48 180.571 231.416 180.949C231.282 180.998 231.141 181.024 230.998 181.025C230.408 181.025 229.965 180.554 229.539 180.106C229.128 179.669 228.733 179.251 228.226 179.251C228.142 179.251 228.058 179.263 227.977 179.286C227.913 179.303 227.847 179.312 227.781 179.312C227.19 179.312 226.932 178.586 226.635 177.749C226.24 176.618 225.748 175.219 224.297 175.005C223.227 174.841 223.398 173.377 223.675 170.95C223.927 168.795 224.266 165.841 223.964 162.275C223.644 158.574 221.852 153.953 219.9 149.971H219.967C220.385 149.971 220.919 149.936 221.485 149.901C221.939 149.869 222.409 149.84 222.838 149.828C223.731 149.796 223.874 149.365 224.036 148.856C224.174 148.437 224.342 147.913 225 147.377C225.809 146.71 225.84 146.601 225.82 146.285C225.806 146.08 225.79 145.77 226.229 144.891C226.543 144.265 226.669 143.934 226.711 143.738L226.792 143.975C227.755 146.841 228.755 149.802 229.257 150.645C229.397 150.873 229.523 151.796 229.775 153.681C230.366 158.123 231.466 166.391 233.964 168.93C235.065 170.048 235.678 171.319 235.644 172.417ZM217.702 131.224C216.999 132.571 216.635 133.054 215.839 134.114L215.346 134.77C214.733 135.592 212.93 135.859 211.608 136.055C211.142 136.105 210.68 136.194 210.227 136.321C207.379 132.899 205.144 129.684 202.895 126.287C203.425 126.006 204.156 125.731 205.147 125.684C205.436 125.669 205.726 125.661 206.015 125.661C207.544 125.661 208.805 125.857 209.818 126.021C210.541 126.129 211.168 126.229 211.706 126.229C212.846 126.229 214.733 124.949 215.663 123.723C215.848 124.009 216.035 124.293 216.217 124.592C216.775 125.494 217.396 126.794 218.116 128.299C218.388 128.858 218.662 129.441 218.954 130.032C218.423 130.277 217.984 130.695 217.702 131.224ZM180.78 90.4086C180.791 90.3793 180.797 90.3529 180.814 90.3266C181.222 89.4628 182.281 88.9768 183.407 88.4673C185.112 87.6856 187.042 86.8101 187.168 84.3595C187.3 81.7009 186.751 81.0216 185.989 80.0847C185.48 79.4961 185.049 78.8382 184.709 78.1288C184.012 76.6707 184.149 76.255 184.339 75.6752C184.51 75.1628 184.72 74.5216 184.488 73.0518C184.001 69.9277 183.146 67.5327 181.844 64.4583C180.987 62.4468 177.338 56.4592 175.703 55.0948C175.095 54.5854 174.972 54.5444 174.888 54.5444C174.861 54.5445 174.836 54.5516 174.813 54.5649C174.79 54.5782 174.77 54.5973 174.756 54.6205C174.689 54.761 174.798 54.9543 175.465 55.9673C175.773 56.4387 176.156 57.0272 176.548 57.6714C177.862 59.8498 177.979 60.2011 178.912 62.9622L178.979 63.1671C179.607 65.0234 179.632 65.4831 179.699 66.5957C179.733 67.2223 179.783 68.086 179.968 69.5266C180.063 70.323 180.141 70.891 180.195 71.3243C180.371 72.7122 180.371 72.7122 180.503 74.4719L180.623 76.0763C180.94 80.2106 180.94 80.2106 178.881 85.1324L178.654 85.68C177.811 87.6973 177.439 89.0559 177.352 90.0426C176.337 89.9835 175.321 89.9757 174.305 90.0191C174.036 90.0309 173.773 90.0484 173.507 90.066C173.493 89.3194 173.49 88.6137 174.258 87.8583C175.927 86.2128 176.907 82.1372 176.742 79.5079C176.644 77.9824 175.957 77.9385 175.456 77.9092C175.263 77.8975 175.092 77.8887 175.022 77.7921C174.952 77.7014 174.938 77.5081 174.98 77.2329C175.274 75.3473 173.983 65.9135 170.942 61.5011C169.407 59.273 167.828 57.4196 166.153 55.4608C164.59 53.6338 162.974 51.7394 161.3 49.4176C161.115 49.1599 160.975 49.0457 160.846 49.0457C160.812 49.0458 160.778 49.0541 160.748 49.0698C160.717 49.0855 160.69 49.1083 160.67 49.1365C160.577 49.2595 160.331 49.5786 161.196 53.5635C161.619 55.5077 162.341 56.834 163.033 58.1223C163.464 58.9275 163.915 59.7619 164.293 60.7399C165.327 63.4131 166.817 67.4477 167.923 70.7475C168.976 73.895 168.844 76.3399 168.729 78.5007C168.645 80.0437 168.567 81.5047 168.925 83.0097C170.079 87.8261 169.337 89.5712 168.547 90.6428C167.144 90.8653 165.724 91.12 164.271 91.3836C162.72 91.6617 161.104 91.9516 159.393 92.2209L159.793 91.6354C161.204 89.539 161.375 88.8568 161.756 87.3547L162.047 86.2304C162.574 84.3097 162.669 81.5252 162.736 79.4874C162.756 78.9604 162.773 78.4948 162.795 78.123C162.801 77.9883 162.776 77.8887 162.722 77.8243C162.701 77.8007 162.675 77.7823 162.646 77.7701C162.617 77.758 162.585 77.7525 162.554 77.7541C161.913 77.7541 159.829 80.7113 159.152 82.225C158.216 84.3038 155.853 89.3077 154.094 90.8946C153.161 91.7291 152.515 92.464 152.125 93.1052C150.549 93.2369 148.877 93.3277 147.104 93.3687C147.85 92.7092 148.489 91.927 148.994 91.0527C150.084 89.2052 151.753 87.0766 153.22 85.191C154.385 83.7036 155.391 82.4182 155.763 81.695C156.113 81.0187 156.525 80.6673 156.928 80.3277C157.457 79.8797 157.961 79.4523 158.25 78.3426C158.751 76.4277 159.745 70.9056 159.241 68.6189C158.964 67.3658 158.426 66.8358 157.908 66.3264C157.469 65.8901 157.051 65.4773 156.76 64.6399C156.502 63.902 156.502 63.5946 156.502 63.2959C156.502 62.8187 156.502 62.4059 155.598 60.6345C155.032 59.5218 154.427 58.2687 153.845 57.0507C152.884 55.0568 151.896 52.9984 150.977 51.3734C150.455 50.4409 150.01 49.4633 149.647 48.4514C149.082 46.9009 148.364 45.4162 147.504 44.0214C146.611 42.5399 146.127 41.2311 145.737 40.18C145.614 39.855 145.502 39.5534 145.39 39.2782C145.936 39.3953 146.482 39.5153 147.014 39.6354C147.011 39.6527 147.009 39.6703 147.009 39.6881C147.006 39.9487 147.308 40.1185 147.854 40.4259C148.384 40.7275 149.115 41.1403 149.899 41.8284C151.859 43.5441 152.274 44.241 153.282 46.1822C154.136 47.8336 157.138 52.6646 159.21 53.5782C159.303 53.6271 159.404 53.6541 159.507 53.6572C159.653 53.6572 159.709 53.5752 159.734 53.5254C159.953 53.0599 158.606 51.1743 156.365 48.1264C155.368 46.7678 154.424 45.4883 153.988 44.7592C153.716 44.2995 153.475 43.8779 153.254 43.4914C152.624 42.4052 152.128 41.5414 151.456 40.6718C159.875 42.7482 168.167 45.351 176.288 48.466C177.265 49.5552 177.845 50.6092 178.447 51.7072C179.077 52.8462 179.721 54.0203 180.861 55.3759C183.292 58.2745 185.35 62.198 185.972 65.1464C186.409 67.1842 187.633 68.8854 188.817 70.5338C189.461 71.4209 190.069 72.2642 190.526 73.1309C191.153 74.302 191.511 75.52 191.859 76.7C192.22 77.9385 192.562 79.1097 193.178 79.9354C193.914 80.9221 194.099 81.5399 194.413 82.5705C194.584 83.1239 194.791 83.8149 195.144 84.7372C195.34 85.2554 195.536 85.7209 195.726 86.1748C196.471 87.9637 197.009 89.2637 196.622 90.9532C196.421 91.8257 196.482 92.6689 196.541 93.4829C196.608 94.3935 196.678 95.3216 196.396 96.3464C195.117 95.584 193.825 94.847 192.52 94.1358C189.747 92.6367 185.415 91.12 180.78 90.4086ZM137.425 91.8754C138.506 91.4158 139.621 90.9414 140.73 90.6486C143.939 89.8054 143.732 87.5421 143.567 85.7209C143.505 85.0446 143.447 84.5029 143.399 84.0637C143.178 82.0727 143.178 82.0727 144.189 80.193L144.536 79.5342C145.48 77.7658 144.9 74.3167 144.231 73.125C144.077 72.8527 143.931 72.7209 143.771 72.7209C143.452 72.7209 143.36 73.2773 143.329 73.4588C142.931 75.8568 141.016 78.5768 139.403 80.0935C138.389 81.048 137.63 82.7696 136.963 84.2921C136.524 85.2993 136.104 86.248 135.67 86.8687C134.908 87.9403 134.012 88.1482 132.625 88.1482C132.401 88.1482 132.172 88.1423 131.928 88.1365C131.665 88.1336 131.393 88.1277 131.108 88.1277C130.263 88.1199 129.42 88.1905 128.587 88.3385C127.914 88.4463 127.255 88.635 126.624 88.9007C122.101 86.4471 118.035 82.9511 115.29 78.325C114.314 76.6295 113.477 74.8508 112.787 73.0079C113.464 73.0079 114.293 72.4662 115.475 71.257C116.688 70.0155 117.872 69.1108 118.923 68.3115C120.617 67.0232 121.956 66.0013 122.476 64.2622C123.14 62.0311 124.91 56.1167 124.274 52.8872C123.913 51.0601 124.364 47.6667 124.762 44.6743C125.019 42.7214 125.266 40.8827 125.266 39.6588C125.266 37.416 125.339 34.8541 125.397 32.7986L125.451 30.8984C127.302 32.1223 129.298 33.3608 131.354 34.4851C131.394 34.6334 131.472 34.7678 131.578 34.8745C135.011 38.9151 135.572 40.2034 135.572 44.0887V45.2189C135.563 49.0399 135.555 53.7919 136.165 55.5399C136.661 56.9658 136.807 59.2788 136.252 60.1221C136.126 60.3095 135.975 60.409 135.798 60.409C134.507 60.4354 133.188 60.7984 133.188 63.3164C133.188 63.7761 133.197 64.2095 133.208 64.6164C133.247 66.4786 133.278 67.8196 132.393 69.629C131.337 71.784 130.749 74.8759 130.556 75.8948L130.531 76.0237C130.505 76.1583 130.433 76.4453 130.34 76.8142C129.856 78.7173 128.856 82.6847 129.534 83.7212C129.58 83.7965 129.642 83.8603 129.714 83.9078C129.787 83.9554 129.869 83.9856 129.954 83.9964H130.013C131.701 83.9964 137.12 75.5786 137.944 73.532C138.378 72.4516 138.187 71.2863 138.019 70.2644C137.801 68.9498 137.616 67.8137 138.66 67.0847C141.234 65.2928 140.408 58.7079 140.094 56.7315C139.834 55.0919 139.445 53.3 139.069 51.5667C138.495 48.9198 137.955 46.4164 137.955 44.8559C137.955 44.5162 137.96 44.2 137.966 43.9014C138.002 41.9396 138.025 40.6455 136.246 37.9782C135.81 37.3289 135.307 36.7319 134.745 36.198C136.972 37.2169 139.212 38.0221 141.363 38.4554C141.344 38.4809 141.327 38.5084 141.313 38.5374L141.287 38.5901L141.307 38.6428C141.679 39.6119 142.688 41.6322 143.967 44.1912C146.852 49.9563 150.801 57.85 150.913 60.7106C151.072 64.675 151.386 67.7054 151.904 70.2381C152.027 70.8441 152.184 71.3302 152.318 71.7635C152.736 73.0781 153.01 73.9477 151.912 76.3721C150.671 79.0734 149.567 81.8412 148.605 84.664C148.191 85.8322 148.009 86.6959 147.857 87.3899C147.577 88.6928 147.409 89.4745 146.152 90.9151C145.474 91.6968 144.365 92.584 143.323 93.3863L143.172 93.3833C140.767 93.3211 138.373 93.0132 136.025 92.464L137.425 91.8754ZM104.707 43.7052L104.822 44.1736C105.791 48.0941 108.325 74.7881 105.522 77.2417C104.234 78.3718 99.6495 78.9164 91.5113 78.9164C87.6298 78.9164 83.3731 78.7935 79.2339 78.6178C79.1807 78.2664 79.0239 78.0264 78.8615 77.7775C78.4806 77.1948 78.0465 76.536 78.9091 74.0414C79.1975 73.2099 78.8167 68.5574 78.2902 67.7727C78.223 67.6761 78.1445 67.6205 78.0633 67.6205C77.8729 67.6205 77.6685 67.8254 77.478 69.3216C76.8255 74.4396 76.0526 75.5171 75.5177 75.5171C75.1508 75.5171 74.5179 75.0047 73.5909 72.5716C72.6556 70.1034 72.7844 67.8518 72.8936 66.0365C72.9804 64.5432 73.0476 63.3662 72.5127 62.561C71.863 61.5948 71.611 61.3957 71.4261 61.3957C71.3938 61.3965 71.362 61.4042 71.3327 61.4183C71.3033 61.4324 71.277 61.4526 71.2553 61.4777C71.0705 61.7061 71.1601 62.3883 71.3785 63.905C71.667 65.8784 72.0563 68.5779 71.7034 70.8705C71.1965 74.141 72.6108 75.3297 73.6441 76.1964C74.4003 76.8318 74.8988 77.2475 74.3751 78.2108C74.3443 78.2723 74.3163 78.3279 74.2911 78.3923C71.8938 78.2723 69.6142 78.1493 67.5643 78.0381C62.9687 77.7892 59.5576 77.6106 58.9107 77.7043C58.0678 77.8243 57.9054 78.2518 57.6785 78.8403C57.25 79.9559 56.6619 81.4842 50.9181 81.5779C49.3722 81.6043 45.1967 84.6376 43.4128 85.9318C43.2109 86.0782 43.0083 86.2236 42.8051 86.368C42.4158 86.6432 41.7829 87.2991 41.0548 88.0662C39.5285 89.659 37.7894 91.4714 36.84 91.366C36.7368 91.3542 36.633 91.3484 36.5292 91.3484C35.7534 91.3484 34.9833 91.6529 34.1655 91.9691C33.205 92.341 32.2136 92.7275 31.0374 92.7275C30.3765 92.7275 29.7324 92.6045 29.0714 92.3527C28.8552 92.2652 28.6256 92.2195 28.3937 92.218C27.9036 92.218 27.4696 92.4376 27.0103 92.666C26.4558 92.9471 25.8257 93.2633 24.9771 93.2633C24.8399 93.2633 24.6971 93.2574 24.557 93.2399C22.5715 93.0056 21.7762 92.0277 20.5747 90.5374C20.4543 90.3881 20.3311 90.2329 20.1995 90.0777C19.4181 89.1232 18.8384 89.0939 18.2811 89.0588C17.8415 89.0354 17.3934 89.009 16.9005 88.5523C16.0491 87.7588 15.6179 86.9653 15.5843 86.1426C15.5422 85.1851 16.0267 84.1779 17.1077 82.9775C18.0095 81.9732 18.0851 81.2207 18.1551 80.4917C18.2335 79.6982 18.3063 78.9428 19.3733 77.9971C20.2359 77.2358 21.3001 76.984 22.5323 76.7C23.7197 76.4189 25.0611 76.1086 26.5174 75.2536C28.993 73.8072 31.4351 71.3536 33.219 69.5588L34.2132 68.5691C35.1345 67.6644 38.5315 66.218 42.133 64.6896C46.0733 63.0149 50.1508 61.2815 51.3158 60.1279C52.7328 58.7225 60.0197 55.9205 66.4525 53.4523C69.1045 52.4333 71.653 51.4525 73.4957 50.6824C73.5282 50.7095 73.5691 50.7231 73.6105 50.7205C73.6834 50.7205 73.8878 50.7146 75.0528 49.9973L75.4533 49.804C75.7163 49.6836 75.9549 49.5116 76.1562 49.2975C79.0519 47.5056 80.8694 47.0928 82.6281 46.6946C84.0256 46.3842 85.3446 46.0856 87.0697 45.1018C90.6936 43.0347 94.9167 39.205 95.6196 35.6768C95.7401 35.0707 95.8297 34.7779 95.8409 34.7486L95.8633 34.6813L95.7933 34.5759L95.642 34.5847L95.614 34.6667C95.5076 34.9858 92.9732 42.1329 81.1075 45.5527C79.6848 45.9626 77.7077 47.1133 76.1142 48.22C75.7333 47.6784 74.9408 47.0518 74.0082 46.314C73.7241 46.0925 73.4422 45.868 73.1625 45.6405C73.9746 44.3698 74.8568 42.6072 75.3328 41.6205C77.3156 37.5009 80.8134 33.7297 83.3647 30.9746C84.7229 29.5077 85.7955 28.3511 86.308 27.5137C86.5572 27.1038 86.5796 26.9633 86.5292 26.8696C86.5012 26.811 86.448 26.7818 86.3836 26.7818C85.8291 26.7818 82.0568 30.6847 79.0211 34.1894C77.1 36.4088 72.6976 41.6732 71.7482 44.4225C71.009 43.751 70.3371 43.0025 69.7431 42.1885C70.3676 39.4948 71.5242 36.564 74.6691 33.4428C75.4897 32.6288 76.0106 31.4694 76.7275 29.8678C77.3744 28.4185 78.1837 26.6149 79.5252 24.375C81.6116 20.8908 81.5667 20.8029 81.4967 20.6712L81.4407 20.598H81.3707C81.2643 20.598 81.1439 20.7034 80.721 21.125C80.3401 21.4968 79.7072 22.1263 79.444 22.1263C79.4132 22.1263 79.402 22.1146 79.3964 22.1029C79.3628 22.0561 79.2983 21.8775 79.4636 21.2041C80.3653 17.5471 81.5135 15.723 82.4405 14.2532C82.7766 13.7173 83.0958 13.2137 83.3507 12.6896C83.5523 12.2739 83.5355 12.1392 83.4879 12.0572C83.4711 12.0291 83.4475 12.0062 83.4194 11.9908C83.3914 11.9753 83.3599 11.9679 83.3283 11.9694C82.7458 11.9694 79.8921 15.4214 79.2311 18.7563L79.2199 18.8178C78.3994 22.9462 78.1501 24.1935 77.17 26.7173C76.3298 28.8752 74.7671 31.3757 72.5239 34.1484C72.3895 34.3182 72.2467 34.4881 72.0983 34.6696C70.9725 36.0486 69.4798 37.861 68.5696 40.0043C68.3583 39.4375 68.2108 38.847 68.13 38.2446C67.9851 37.1232 67.8553 35.9997 67.7407 34.8745C67.9731 34.2626 68.2504 33.7063 68.5332 33.1354C69.2194 31.7534 69.9279 30.3333 70.1939 27.9061C70.5748 24.4511 70.1827 22.5041 69.7683 20.4399C69.6394 19.7986 69.505 19.1369 69.3874 18.4079C68.8637 15.1052 67.3178 14.3059 65.9092 13.814C64.649 13.3777 59.1768 12.5081 58.7315 12.5081C58.6027 12.5081 58.5859 12.5989 58.5831 12.6282C58.5691 12.7599 58.6419 12.7716 59.104 12.8712C60.5714 13.1757 65.0158 14.3966 66.3489 15.6176C67.6119 16.7741 68.144 20.1998 67.4859 22.952C67.3738 23.4088 67.2842 23.8597 67.1918 24.3282C67.0462 25.0455 66.8921 25.8038 66.6513 26.6998C66.3965 25.8302 66.0772 25.3119 65.6487 25.3119C65.5025 25.3181 65.36 25.3624 65.2343 25.4408C61.6356 27.4932 61.2211 29.9966 59.6725 39.3074L59.2832 41.6439C57.6337 51.4525 50.4112 53.1595 46.5297 54.0759C45.8968 54.2223 45.3507 54.357 44.9223 54.4946C44.421 54.6615 43.8889 54.8284 43.3456 54.9982C40.8979 55.7741 38.1198 56.6466 37.0445 57.5953C36.5936 57.9935 36.1147 58.6171 35.6078 59.2759C34.244 61.0561 32.5469 63.2725 29.836 63.3896C27.4752 63.4892 26.2429 61.7032 25.3552 60.4032C24.9323 59.7824 24.5626 59.2466 24.2518 59.2466C21.919 59.2466 20.1995 58.1545 19.5302 56.2484C19.4657 56.064 19.4685 55.9205 19.5386 55.8122C19.6086 55.7068 19.7374 55.6541 19.925 55.6541C20.0959 55.6541 20.2919 55.695 20.4823 55.7302C20.6131 55.7614 20.7461 55.781 20.88 55.7887H20.9108C20.8929 55.7462 20.8703 55.7059 20.8436 55.6687C20.2191 54.7552 19.9222 51.8624 20.8968 49.5727C21.3449 48.5158 21.2441 48.2142 21.1992 48.1439C21.1824 48.1146 21.1488 48.0824 21.0676 48.0824C20.9248 48.0824 20.3451 48.2054 18.8748 49.7865C17.6538 51.1011 16.7297 51.7716 16.1303 51.7716C15.8307 51.7716 15.6123 51.6077 15.503 51.2973C15.069 50.0529 16.556 46.7297 18.1327 43.2104C19.3649 40.4581 20.6391 37.6122 20.6896 36.2536C20.7367 35.0965 20.6014 33.9391 20.2891 32.8279C20.0931 32.0257 19.925 31.3347 20.0398 30.4153C20.1911 29.1914 21.2609 27.7743 22.3923 26.2752C23.7925 24.4189 25.2376 22.5011 25.1676 20.7268C25.1451 20.1471 24.3582 18.8998 23.6637 17.7959C22.8151 16.4462 22.3811 15.7259 22.5351 15.4214C22.5603 15.3716 22.6247 15.2926 22.7703 15.2926C22.8459 15.2926 22.9384 15.3101 23.0532 15.3541L23.0812 15.3658L23.1036 15.3892C24.0446 16.493 26.635 18.0477 29.4411 18.0477C29.696 18.0477 29.9536 18.0331 30.2028 18.0068C31.1998 17.9072 32.7065 17.755 32.7849 17.3977C32.8689 17.0288 31.5303 16.1534 31.0934 15.8664L30.9786 15.7932L31.0598 15.6849C31.4295 15.1813 32.0596 14.5255 32.7289 13.8257C33.8827 12.6194 35.3166 11.1173 35.1961 10.5347C35.1329 10.2299 35.0685 9.9254 35.0029 9.62117C34.2608 6.18378 33.4262 2.28378 36.5992 1.49617C36.6843 1.47359 36.7718 1.46276 36.8596 1.46396C39.5061 1.46396 45.0399 10.7718 46.4037 15.7318C46.6922 16.78 48.5573 17.4065 50.19 17.4065C51.3578 17.4065 52.3044 17.105 52.786 16.5809C52.914 16.4434 53.0129 16.2792 53.0761 16.0991C53.1393 15.919 53.1655 15.727 53.1529 15.5356C53.0017 12.066 50.5597 10.3151 49.5179 9.56554C49.1202 9.2786 48.9858 9.18198 49.0306 9.03559C49.0726 8.90383 49.2238 8.90383 49.3078 8.90383C49.5375 8.90383 49.9912 8.96531 50.8369 9.08243C57.5441 8.06058 63.3803 7.55991 68.6761 7.55991C81.1271 7.55991 90.8448 10.2243 102.209 16.7477L102.43 16.8766C102.47 16.9849 102.512 17.0932 102.562 17.2133C104.895 22.7266 104.772 25.1568 103.898 29.7741C103.01 34.4646 101.828 36.7543 100.212 38.9297C98.9774 40.5957 98.9914 41.6 99.011 42.6658C99.0306 43.8135 99.053 45.1164 97.482 47.5935C92.7239 55.0978 90.2707 55.2471 87.6746 55.4081C87.3582 55.4257 84.5745 55.6131 84.5801 56.1547C84.5829 56.3158 84.5885 56.6086 87.6802 56.6964C87.8483 56.7022 88.0135 56.7023 88.1759 56.7023C94.1858 56.7023 96.2918 53.6455 98.3277 50.6883L98.5041 50.4306C99.053 49.6372 99.5655 48.9784 100.064 48.3401C101.467 46.5365 102.576 45.1135 102.965 42.3905C103.153 41.0642 103.105 40.2005 103.066 39.445C102.996 38.1421 102.943 37.1993 104.189 34.7516C106.152 30.8896 106.623 29.089 106.284 26.7437C106.004 24.8113 105.043 20.0827 104.192 17.9423C104.592 18.1883 105.01 18.4518 105.43 18.7212C107.648 20.1119 110.261 21.7457 112.705 22.9462C112.741 23.0564 112.786 23.1632 112.84 23.2653C115.049 27.2649 114.923 31.0126 114.461 34.4646C114.305 35.6329 114.201 36.7572 114.097 37.8464C113.87 40.2795 113.674 42.3818 113.002 43.2718C112.742 43.6144 112.647 43.8633 112.711 44.0068C112.727 44.0396 112.752 44.0671 112.782 44.0862C112.812 44.1054 112.847 44.1154 112.882 44.1151C113.308 44.1151 114.394 42.7478 115.038 40.0306C116.097 35.5568 116.425 31.2498 116.01 27.2297C115.903 26.0381 115.512 24.8936 114.873 23.9007C115.066 23.9739 115.257 24.0441 115.444 24.1056C116.102 24.3282 117.601 25.3939 119.67 26.8754C120.645 27.5664 121.743 28.3541 122.933 29.1739C122.934 29.2718 122.948 29.3692 122.972 29.4637C124.263 34.7779 124.316 38.0338 123.21 43.9599C122.633 47.0518 122.471 49.2682 122.325 51.2241C122.182 53.1477 122.059 54.8108 121.563 56.7023C120.58 60.4646 118.699 64.6984 117.623 66.1477C116.181 68.086 114.708 69.0259 113.117 69.0259C112.657 69.0171 112.2 68.9542 111.753 68.8385C111.618 68.8071 111.482 68.7807 111.344 68.7595C109.062 61.4016 107.499 52.811 106.424 46.882C105.727 43.0493 105.178 40.0218 104.825 39.5914C104.251 38.9004 104.016 38.795 103.929 38.795C103.906 38.795 103.895 38.8009 103.881 38.8214C103.59 39.1962 104.158 41.4858 104.707 43.7052ZM191.946 109.434C192.184 108.913 192.909 108.638 194.035 108.638C197.023 108.638 203.727 110.81 210.045 116.909L210.006 116.912C209.471 116.968 208.935 117.008 208.398 117.032H208.309C206.654 117.032 203.094 116.002 201.624 115.097C200.201 114.221 195.805 112.664 193.29 112.242L192.354 110.995C191.775 110.228 191.811 109.724 191.946 109.434ZM214.153 122.63C213.812 122.885 211.753 123.664 209.894 123.664C209.661 123.664 209.443 123.649 209.23 123.629C208.866 123.589 208.501 123.571 208.135 123.576C207.513 123.576 206.797 123.605 206.038 123.635C205.223 123.667 204.38 123.696 203.61 123.696C203.083 123.696 201.529 123.696 200.963 123.359C199.77 121.535 198.555 119.688 197.219 117.738C197.408 117.476 197.649 117.261 197.925 117.105C198.05 117.049 198.186 117.023 198.322 117.029C199.185 117.029 200.809 117.688 202.534 118.376C204.576 119.199 206.895 120.13 208.376 120.13C208.611 120.13 208.819 120.107 209.003 120.066C210.628 119.664 211.398 119.457 212.103 119.067C212.986 120.063 213.854 121.14 214.688 122.311C214.439 122.437 214.237 122.575 214.153 122.63ZM252.218 18.9232L252.313 19.1662C252.481 19.5878 252.593 19.8631 252.464 20.0651C252.375 20.2086 252.187 20.27 251.84 20.27C251.565 20.27 251.17 20.232 250.554 20.1471C249.439 19.9997 248.32 19.8816 247.199 19.7928C247.211 19.7606 247.225 19.7342 247.239 19.705C247.493 19.0169 247.505 18.4664 247.267 18.0302C247.188 17.8874 247.086 17.7597 246.967 17.6525C247.272 17.6964 247.527 17.7227 247.72 17.7374C248.219 17.7725 248.658 17.7959 249.056 17.8106C251.028 17.9131 251.848 17.9541 252.218 18.9232ZM241.458 18.8559C241.66 18.2351 241.64 17.389 241.033 16.777C242.038 16.8912 243.004 17.0288 243.881 17.1606C243.942 17.2829 244.014 17.3986 244.096 17.5061C244.402 17.9482 244.867 18.6216 244.704 19.4854C244.696 19.5337 244.692 19.5827 244.693 19.6318C243.704 19.5836 242.714 19.5601 241.724 19.5615L241.083 19.5673C241.248 19.3559 241.375 19.1148 241.458 18.8559ZM237.35 16.6716C237.624 18.0009 238.339 19.0579 239.083 19.6259C237.966 19.6845 236.935 19.7782 235.995 19.9128C236.144 19.5913 236.196 19.2296 236.143 18.8764C236.009 17.6408 235.255 16.8766 233.998 16.6775C235.108 16.5368 236.227 16.483 237.344 16.5164C237.344 16.5691 237.344 16.6189 237.35 16.6716ZM230.366 17.7345C230.394 17.793 230.45 17.8457 230.573 17.8838C232.542 18.4606 232.788 19.5849 232.936 20.2583C232.959 20.3608 232.984 20.4574 233.009 20.5482C232.759 20.6247 232.51 20.7087 232.264 20.8C231.743 20.9932 230.982 21.5847 230.041 22.4894C230.043 22.4763 230.046 22.4634 230.052 22.4513C230.228 21.7369 230.183 21.1572 229.906 20.677C229.439 19.8748 228.394 19.5293 227.531 19.3185C227.515 19.3126 227.495 19.3126 227.478 19.3097C228.409 18.7229 229.373 18.1968 230.366 17.7345ZM217.584 27.7831C217.633 27.8217 217.688 27.8514 217.746 27.8709C217.973 27.9494 218.211 27.9889 218.449 27.9881C219.329 27.9881 220.124 27.505 220.315 27.382C221.519 27.6104 223.392 28.8137 223.857 29.4315C223.889 29.4692 223.926 29.5017 223.966 29.5282C222.87 30.9455 221.799 32.3843 220.754 33.8439C220.177 30.8604 218.906 30.5471 216.108 30.5471H215.775C215.472 30.55 215.187 30.6056 214.926 30.6876C215.825 29.6687 216.71 28.6966 217.584 27.7831ZM212.812 33.1529L213.353 32.5088L213.383 32.5059C215.335 32.5059 218.715 34.4178 219.11 34.7984C219.214 34.895 219.455 35.1146 219.729 35.2903C219.267 35.9462 218.808 36.6108 218.343 37.293C218.262 37.4189 218.172 37.5448 218.088 37.6707C218.127 37.091 217.839 36.5669 216.607 35.955C215.641 35.4777 214.344 35.1995 213.05 35.1995C212.202 35.1995 211.454 35.3196 210.868 35.5304C211.501 34.7428 212.146 33.9493 212.812 33.1529ZM208.037 39.1845C208.169 39.1698 208.354 39.0761 208.704 38.8975C209.477 38.5023 210.776 37.8405 212.28 37.8405C213.156 37.8405 213.988 38.0689 214.761 38.5169C215.394 38.8887 215.865 39.2694 216.24 39.5797L216.623 39.8813C215.666 41.3599 214.719 42.8678 213.837 44.3522C213.443 43.9143 212.988 43.5411 212.487 43.2455C212.053 42.9878 211.249 42.8444 210.275 42.8444C207.99 42.8444 204.763 43.6408 203.192 45.8982L203.187 45.9041C204.759 43.6291 206.376 41.3887 208.037 39.1845ZM201.512 48.3547C201.74 48.4457 201.982 48.4904 202.226 48.4865C203.15 48.4865 204.425 48.0532 205.279 47.6227C206.082 47.2187 207.32 46.9786 208.58 46.9786C209.443 46.9786 210.706 47.0899 211.843 47.6257L211.949 47.6755C211.583 48.346 211.228 49.0234 210.885 49.7074C210.824 49.6928 210.754 49.684 210.678 49.6928C210.362 49.7183 210.045 49.7291 209.729 49.725C209.3 49.725 208.791 49.7133 208.222 49.7045C207.527 49.6928 206.743 49.6752 205.934 49.6752C204.144 49.6752 201.792 49.7426 200.255 50.2286L201.512 48.3547ZM224.585 21.3475C226.963 21.4881 228.484 23.8392 228.498 23.8626L228.537 23.9007C228.565 23.9172 228.595 23.9309 228.626 23.9417C227.562 25.0982 226.35 26.5212 225.053 28.1462L225.036 28.0788C224.297 25.7218 222.955 24.1642 221.76 24.2842C221.522 24.3077 221.135 24.4599 220.695 24.6912C222.034 23.4351 223.331 22.3196 224.585 21.3475ZM228.313 121.579C228.576 121.234 228.87 120.839 229.217 120.405L229.377 120.209C230.881 118.332 230.881 118.332 231.536 116.476L231.651 116.145C232.315 114.277 232.457 114.11 233.561 112.778L234.303 111.87L234.737 111.332C235.177 110.781 235.311 110.617 235.376 110.617H235.398C235.56 110.617 235.812 110.559 236.504 110.114C236.622 110.04 236.723 109.964 236.815 109.891C237.697 112.359 238.621 114.977 239.582 117.767C239.52 117.899 239.487 118.048 239.47 118.121C239.376 118.541 239.329 118.97 239.33 119.401C239.313 120.15 239.308 120.598 237.7 122.654C235.171 125.898 233.018 126.384 231.962 126.384C231.657 126.384 231.363 126.343 231.085 126.267C230.982 126.237 230.876 126.222 230.769 126.223C230.556 125.952 230.338 125.687 230.113 125.427L229.929 125.213L227.585 122.513C227.783 122.282 228.019 121.972 228.313 121.579ZM232.908 129.163L233.236 129.116C234.451 128.94 236.289 128.68 237.854 127.74C239.624 126.686 240.996 124.522 241.187 122.484L241.189 122.452L242.24 125.538C242.41 126.044 242.59 126.311 242.766 126.445C242.475 126.911 242.276 127.827 242.685 128.917C243.559 131.268 243.43 132.738 242.128 135.215C241.803 135.841 240.775 135.824 239.828 135.809L239.386 135.803C239.109 135.803 238.75 135.803 238.439 135.876C238.052 135.509 237.659 135.149 237.26 134.796C235.913 133.598 234.656 131.748 233.328 129.792L232.9 129.16L232.908 129.163ZM240.604 137.519C241.17 137.422 241.758 137.323 242.242 137.323C243.926 137.323 244.502 135.674 244.889 133.01C245.207 130.915 244.969 128.769 244.2 126.806C244.145 126.658 244.074 126.517 243.987 126.387C244.337 126.273 244.735 126.141 245.172 126.141C245.393 126.141 245.597 126.173 245.81 126.238C246.849 126.557 247.205 127.801 247.74 129.69C248.331 131.771 249.143 134.62 251.324 137.888C251.985 138.886 252.629 140.21 253.296 141.756C253.279 141.715 253.251 141.68 253.215 141.656C253.179 141.632 253.137 141.62 253.094 141.621C252.73 141.621 251.868 142.406 250.585 143.606C250.179 143.997 249.758 144.372 249.325 144.73C248.818 145.099 247.986 146.162 247.53 147.357C247.34 146.805 247.109 146.271 246.838 145.758C245.323 143.105 242.545 139.975 240.181 137.589C240.321 137.563 240.464 137.539 240.604 137.519Z" fill="black"/>
<path d="M44.8243 37.4043C44.5583 36.8538 43.8357 36.4732 43.2028 36.1394C42.7575 35.9081 42.2983 35.6651 42.2283 35.4543C41.9006 34.4529 41.811 33.3052 41.7242 32.1955C41.5897 30.5061 41.4665 28.9104 40.5564 27.8534C39.9655 27.1653 39.2849 26.6236 38.6296 26.1025C37.655 25.3295 36.8149 24.6619 36.6245 23.7631C36.4452 22.9169 36.5684 22.6797 36.7113 22.4016C36.8846 22.0903 36.9691 21.7337 36.9549 21.3739C36.9549 20.6038 36.0224 19.7167 35.6219 19.3712C35.0058 18.8383 34.1768 18.3025 33.7736 18.3025C33.7353 18.3014 33.6972 18.3084 33.6615 18.323C33.3479 18.4284 33.4263 18.7914 33.5131 19.2131C33.6307 19.7664 33.7904 20.5218 33.4235 21.3827C33.2275 21.8453 33.1855 22.1878 33.1546 22.4367C33.0846 23.0018 33.065 23.157 31.0319 23.6635C30.6118 23.7718 30.1777 23.8245 29.7436 23.8245C28.335 23.8245 27.1084 23.2448 26.9599 22.504C26.8479 21.9741 27.3268 21.4295 28.3014 20.9727C28.8083 20.7327 28.8055 20.4223 28.7803 20.2964C28.7271 20.0417 28.4638 19.8601 28.139 19.8601C27.9289 19.8601 27.3968 19.945 26.9908 20.7268C26.8391 21.0471 26.7434 21.3932 26.7079 21.7486C26.6267 22.2874 26.5875 22.586 25.9322 22.6358C25.19 22.6914 24.6019 23.0194 24.5935 23.3854C24.5879 23.5786 24.7308 23.8275 25.4309 23.9212C25.5653 23.9387 25.7081 23.9475 25.8454 23.9475C26.1926 23.9475 26.4839 23.8919 26.7163 23.8538C26.8442 23.8225 26.9744 23.8029 27.1056 23.7953C27.2288 23.7953 27.3464 23.7953 27.3464 24.2198C27.3464 24.536 27.156 25.189 26.9712 25.8155C26.6099 27.0482 26.4083 27.8182 26.6211 28.1169C26.7639 28.3189 27.0384 28.2838 27.478 27.9383C29.2199 26.5797 30.0629 26.3836 30.679 26.2372C31.0417 26.1812 31.3859 26.0334 31.6816 25.8067C31.886 25.6399 32.0372 25.6574 32.1353 25.8829C32.2837 26.2342 32.2333 27.0482 31.7656 27.6513C31.0459 27.218 30.0041 27.2912 28.7831 27.8504C28.0745 28.1725 26.9683 29.0509 27.478 31.2966C27.6153 31.8998 26.9011 32.7518 26.145 33.6536C25.3273 34.6286 24.4815 35.6358 24.5039 36.5669C24.5179 37.1203 24.8288 37.1993 25.0108 37.2022C26.1562 37.1993 29.0827 34.0459 29.9985 32.8455L30.3401 32.4092C30.5614 32.1311 30.595 32.0901 30.553 31.9964L30.5082 31.9203H30.4326C30.3882 31.9237 30.3448 31.9346 30.3037 31.9525C30.153 32.006 29.9952 32.0346 29.8361 32.0374C29.5893 32.0376 29.349 31.9556 29.1499 31.8031C28.6542 31.443 28.6655 31.3376 28.6655 31.3318C28.6823 31.2732 28.9567 31.2 29.1163 31.159C29.542 31.0419 30.1245 30.8867 30.3401 30.3743C30.4382 30.143 30.5026 29.9263 30.5642 29.736C30.7546 29.1095 30.8638 28.7581 31.8496 28.6322C32.1493 29.7595 31.3679 30.916 30.6454 31.7007L30.4494 31.9115H30.7322C31.8636 31.9115 32.701 32.8396 33.0006 33.7063C33.1658 34.1748 33.149 34.5817 32.9642 34.7428C32.6085 35.0502 32.3229 35.5216 32.0232 36.0135C31.578 36.7426 31.1187 37.495 30.4102 37.7381C30.2167 37.7772 30.0213 37.8046 29.8249 37.82C29.6596 37.82 29.5616 37.823 29.5616 37.9518L29.5756 38.0777H29.696C29.7419 38.0764 29.7876 38.0734 29.8333 38.0689H29.9061C30.1021 38.0689 30.2897 38.0396 30.469 37.984C31.4015 37.7995 33.1098 37.2579 34.1096 35.6651C34.9274 34.3651 35.1094 32.623 34.6417 30.5002C34.3141 28.9982 34.3701 28.518 34.4793 28.3775C34.5017 28.3482 34.5269 28.3365 34.5661 28.3365C34.8237 28.3365 35.3586 28.8459 35.8319 29.2968C36.518 29.9498 37.235 30.6115 37.6942 30.4709C37.7778 30.4442 37.8646 30.4304 37.9519 30.4299C38.8341 30.4299 39.719 31.6714 40.2063 32.8982C40.674 34.0752 40.7412 35.1234 40.3827 35.504C40.0299 35.873 38.9741 36.198 37.8567 36.5435C35.9299 37.1378 33.7484 37.8142 33.8576 39.0878C33.9808 40.4932 34.3533 41.2106 34.961 41.2106C35.2186 41.2106 35.5127 41.07 35.8319 40.7948C36.0252 40.6221 36.2912 40.3556 36.5993 40.0423C37.6326 38.9941 39.1925 37.4131 40.1923 37.4131C40.4247 37.4131 40.604 37.5009 40.7496 37.6766C42.8444 40.2502 42.4439 40.9324 41.9846 41.7259C41.7718 42.089 41.5309 42.5018 41.5029 43.1137C41.4581 44.1239 41.5477 44.7387 41.7774 44.9905C41.8134 45.0316 41.8571 45.0644 41.9057 45.0871C41.9544 45.1097 42.007 45.1217 42.0602 45.1223C42.7519 45.1223 43.7321 43.0874 44.0514 41.4185C44.2614 40.3234 44.5219 39.6383 44.7179 39.1376C44.9755 38.4554 45.1296 38.0484 44.8243 37.4043Z" fill="black"/>
<path d="M46.9638 26.9926C46.8806 26.5467 46.7891 26.1025 46.6894 25.6604C46.3309 24.0646 45.0763 23.1746 43.9701 22.3869C42.9899 21.6901 42.1442 21.0869 42.0713 20.1588C42.0237 19.5556 41.9089 18.8617 41.4216 18.8617C41.1808 18.8617 40.9231 19.0403 40.6487 19.2277C40.307 19.4619 39.9458 19.6962 39.7049 19.5439C38.9936 19.093 38.3999 18.5279 37.7782 17.9306C36.8176 17.0142 35.8234 16.0714 34.37 15.5619C34.1743 15.4792 33.969 15.4241 33.7595 15.398C33.6363 15.398 33.5942 15.4653 33.5802 15.5092C33.5214 15.6761 33.6951 15.8313 34.6108 16.6277C37.2685 18.9349 44.3285 25.0689 46.3925 34.9009C47.115 38.3471 46.8938 38.9619 46.5241 39.9779C46.1993 40.8739 45.754 42.1065 45.7932 45.8718C45.8044 46.9405 46.1741 47.1689 46.4793 47.1689C47.3475 47.1689 48.8738 45.2394 50.4728 42.1358C52.786 37.6473 52.2315 36.4937 49.5151 32.3448C47.3643 29.0685 47.2803 28.6293 46.9638 26.9926ZM56.9588 29.698C55.987 29.0714 55.2813 29.0568 54.6008 29.045C53.7494 29.0275 53.0129 29.0128 51.8563 27.8065C51.187 27.1068 50.3048 25.9151 49.3722 24.6532C48.028 22.8349 46.639 20.9552 45.6532 20.2349C45.3535 20.0124 45.2415 19.9831 45.1715 19.9831C45.1015 19.9831 45.0455 20.0212 45.0175 20.0797C44.8858 20.3696 45.67 21.4646 48.4481 25.0748C49.7167 26.7261 51.0301 28.4331 51.8339 29.6248C52.2147 30.1811 52.8925 30.2514 53.6766 30.3275C55.0012 30.4563 56.6507 30.6203 57.8577 33.1617C57.9558 33.3696 58.0706 33.475 58.1994 33.475C58.2806 33.475 58.429 33.4252 58.5103 33.1178C58.7007 32.4004 58.4458 30.6554 56.9588 29.698Z" fill="black"/>
</svg>
